<svg width="386" height="502" viewBox="0 0 386 502" fill="none" xmlns="http://www.w3.org/2000/svg">
<path d="M187.849 502C280.135 502 354.947 487.039 354.947 468.583C354.947 450.127 280.135 435.166 187.849 435.166C95.5634 435.166 20.751 450.127 20.751 468.583C20.751 487.039 95.5634 502 187.849 502Z" fill="#92E3A9"/>
<path opacity="0.5" d="M187.849 502C280.135 502 354.947 487.039 354.947 468.583C354.947 450.127 280.135 435.166 187.849 435.166C95.5634 435.166 20.751 450.127 20.751 468.583C20.751 487.039 95.5634 502 187.849 502Z" fill="white"/>
<path d="M233.09 228.47C233.09 228.47 246.252 256.561 246.252 258.044C246.252 259.527 234.573 265.879 232.349 267.214C230.624 268.197 228.845 269.084 227.022 269.871L228.357 282.885C228.357 282.885 248.464 278.3 256.893 273.715C265.321 269.13 265.025 263.951 263.072 256.265C261.119 248.578 248.131 218.868 248.131 218.868L233.09 228.47Z" fill="white"/>
<g style="mix-blend-mode:multiply" opacity="0.5">
<path d="M256.855 273.715C265.283 269.13 264.986 263.951 263.034 256.265C261.081 248.578 248.092 218.868 248.092 218.868L245.992 220.203L245.324 221.439C245.324 221.439 257.448 251.198 258.177 261.109C258.671 267.77 245.262 276.075 236.401 280.821C242.976 279.078 251.924 276.396 256.855 273.715Z" fill="#92E3A9"/>
</g>
<path d="M233.09 228.47C233.09 228.47 246.252 256.561 246.252 258.044C246.252 259.527 234.573 265.879 232.349 267.214C230.624 268.197 228.845 269.084 227.022 269.871L228.357 282.885C228.357 282.885 248.464 278.3 256.893 273.715C265.321 269.13 265.025 263.951 263.072 256.265C261.119 248.578 248.131 218.868 248.131 218.868L233.09 228.47Z" stroke="#263238" stroke-linecap="round" stroke-linejoin="round"/>
<path d="M138.127 222.267C138.127 222.267 128.525 257.451 128.24 263.667C127.956 269.884 147.309 282.143 148.014 282.885C148.718 283.626 146.914 261.504 146.914 261.504L153.476 229.373L138.127 222.267Z" fill="white"/>
<g style="mix-blend-mode:multiply" opacity="0.5">
<path d="M142.527 225.146L142.317 224.194L138.127 222.267C138.127 222.267 128.525 257.451 128.24 263.667C127.956 269.884 147.309 282.143 148.014 282.885C148.298 283.181 148.187 279.869 147.952 275.778C142.193 270.897 133.925 264.026 132.961 261.134" fill="#92E3A9"/>
</g>
<path d="M138.127 222.267C138.127 222.267 128.525 257.451 128.24 263.667C127.956 269.884 147.309 282.143 148.014 282.885C148.718 283.626 146.914 261.504 146.914 261.504L153.476 229.373L138.127 222.267Z" stroke="#263238" stroke-linecap="round" stroke-linejoin="round"/>
<path d="M183.224 186.922C183.224 186.922 179.516 189.591 172.287 189.888C165.057 190.184 164.711 184.944 155.726 184.944C144.839 184.944 131.183 219.387 131.183 219.387C131.183 219.387 137.98 226.048 144.641 228.854C148.326 230.468 152.2 231.61 156.171 232.252L157.209 254.881H230.544L231.422 232.252L254.347 217.385C254.347 217.385 243.1 197.278 237.638 189.739C232.176 182.201 222.993 185.006 220.188 186.922C217.383 188.837 209.065 189.294 206 188.849C202.002 187.965 198.051 186.88 194.161 185.599C194.161 185.599 189.44 181.669 183.224 186.922Z" fill="#92E3A9" stroke="#263238" stroke-linecap="round" stroke-linejoin="round"/>
<path d="M156.914 194.905L156.617 232.462" stroke="#263238" stroke-width="0.5" stroke-linecap="round" stroke-linejoin="round"/>
<path d="M159.571 198.316C159.571 198.316 160.609 216.644 164.515 226.852" stroke="#263238" stroke-width="0.5" stroke-linecap="round" stroke-linejoin="round"/>
<path d="M165.193 228.322C166.037 230.814 167.074 233.235 168.295 235.564" stroke="#263238" stroke-width="0.5" stroke-linecap="round" stroke-linejoin="round"/>
<path d="M161.933 196.24C163.336 202.904 165.316 209.433 167.852 215.754" stroke="#263238" stroke-width="0.5" stroke-linecap="round" stroke-linejoin="round"/>
<path d="M225.674 199.49C225.674 199.49 222.127 213.986 219.013 220.499" stroke="#263238" stroke-width="0.5" stroke-linecap="round" stroke-linejoin="round"/>
<path d="M231.421 232.314L231.272 203.037" stroke="#263238" stroke-width="0.5" stroke-linecap="round" stroke-linejoin="round"/>
<path d="M229.804 203.63C229.804 203.63 227.134 222.168 220.634 231.869" stroke="#263238" stroke-width="0.5" stroke-linecap="round" stroke-linejoin="round"/>
<path d="M226.553 228.174C226.553 228.174 223.587 233.797 221.523 236.751" stroke="#263238" stroke-width="0.5" stroke-linecap="round" stroke-linejoin="round"/>
<path d="M179.085 189.146C179.085 189.146 181.161 201.863 184.115 208.363C187.068 214.864 192.247 216.199 196.683 214.283C201.12 212.367 204.37 202.889 204.098 190.802" stroke="#263238" stroke-width="0.5" stroke-linecap="round" stroke-linejoin="round"/>
<path d="M168.592 162.526C168.592 162.526 165.774 157.657 163.562 160.166C161.35 162.674 165.342 168.446 167.554 170.361C169.766 172.277 171.397 171.103 171.261 169.039C171.125 166.975 168.592 162.526 168.592 162.526Z" fill="#92E3A9" stroke="#263238" stroke-linecap="round" stroke-linejoin="round"/>
<path opacity="0.5" d="M168.592 162.526C168.592 162.526 165.774 157.657 163.562 160.166C161.35 162.674 165.342 168.446 167.554 170.361C169.766 172.277 171.397 171.103 171.261 169.039C171.125 166.975 168.592 162.526 168.592 162.526Z" fill="white"/>
<path d="M168.592 162.526C168.592 162.526 165.774 157.657 163.562 160.166C161.35 162.674 165.342 168.446 167.554 170.361C169.766 172.277 171.397 171.103 171.261 169.039C171.125 166.975 168.592 162.526 168.592 162.526Z" stroke="#263238" stroke-linecap="round" stroke-linejoin="round"/>
<path d="M213.314 162.526C213.314 162.526 216.12 157.657 218.344 160.166C220.569 162.674 216.565 168.446 214.353 170.361C212.14 172.277 210.497 171.103 210.645 169.039C210.793 166.975 213.314 162.526 213.314 162.526Z" fill="#92E3A9" stroke="#263238" stroke-linecap="round" stroke-linejoin="round"/>
<path opacity="0.5" d="M213.314 162.526C213.314 162.526 216.12 157.657 218.344 160.166C220.569 162.674 216.565 168.446 214.353 170.361C212.14 172.277 210.497 171.103 210.645 169.039C210.793 166.975 213.314 162.526 213.314 162.526Z" fill="white"/>
<path d="M213.314 162.526C213.314 162.526 216.12 157.657 218.344 160.166C220.569 162.674 216.565 168.446 214.353 170.361C212.14 172.277 210.497 171.103 210.645 169.039C210.793 166.975 213.314 162.526 213.314 162.526Z" stroke="#263238" stroke-linecap="round" stroke-linejoin="round"/>
<path d="M181.889 185.896C183.285 192.206 185.063 198.426 187.215 204.52C189.885 211.169 194.902 211.169 196.978 206.88C199.055 202.592 200.377 186.612 200.377 186.612C200.377 186.612 186.474 188.553 181.889 185.896Z" fill="white" stroke="#263238" stroke-linecap="round" stroke-linejoin="round"/>
<path d="M168.888 164.157C168.888 164.157 172.731 177.752 180.01 185.748C187.289 193.743 189.897 195.634 193.765 195.053C197.633 194.473 201.749 189.443 207.508 178.987C213.267 168.532 213.687 160.512 214.169 159.77C214.651 159.029 212.933 144.248 204.702 137.883C196.472 131.519 187.252 128.726 179.269 135.671C171.285 142.617 166.218 153.949 168.888 164.157Z" fill="white"/>
<g style="mix-blend-mode:multiply" opacity="0.5">
<path d="M204.667 137.834C196.387 131.482 187.217 128.676 179.233 135.622C171.25 142.567 166.22 153.949 168.889 164.157C168.889 164.157 169.618 166.777 171.064 170.337C171.06 169.881 171.122 169.427 171.25 168.989C173.017 163.391 178.232 152.553 195.781 157.521C209.721 161.451 208.016 173.71 206.718 180.248L207.472 178.889C213.243 168.396 213.651 160.413 214.133 159.671C214.615 158.93 212.947 144.198 204.667 137.834Z" fill="#92E3A9"/>
</g>
<path d="M168.888 164.157C168.888 164.157 172.731 177.752 180.01 185.748C187.289 193.743 189.897 195.634 193.765 195.053C197.633 194.473 201.749 189.443 207.508 178.987C213.267 168.532 213.687 160.512 214.169 159.77C214.651 159.029 212.933 144.248 204.702 137.883C196.472 131.519 187.252 128.726 179.269 135.671C171.285 142.617 166.218 153.949 168.888 164.157Z" stroke="#263238" stroke-linecap="round" stroke-linejoin="round"/>
<path d="M193.729 171.251C193.271 174.138 193.023 177.054 192.988 179.976C193.136 182.93 194.026 183.82 192.691 184.116C191.356 184.413 189.886 182.337 189.886 182.337" stroke="#263238" stroke-linecap="round" stroke-linejoin="round"/>
<path d="M178.937 173.624C179.793 174.243 180.817 174.588 181.873 174.614C182.93 174.641 183.97 174.347 184.856 173.772" stroke="#263238" stroke-linecap="round" stroke-linejoin="round"/>
<path d="M197.722 173.624C198.576 174.242 199.598 174.586 200.652 174.613C201.707 174.639 202.744 174.346 203.629 173.772" stroke="#263238" stroke-linecap="round" stroke-linejoin="round"/>
<path d="M190.873 170.76C190.873 170.76 190.813 163.17 180.328 162.234" stroke="#263238" stroke-linecap="round" stroke-linejoin="round"/>
<path d="M193.403 169.213C193.403 169.213 194.23 162.466 204.818 162.987" stroke="#263238" stroke-linecap="round" stroke-linejoin="round"/>
<path d="M189.697 191.709C189.697 191.709 190.701 184.907 201.921 185.232" stroke="#263238" stroke-linecap="round" stroke-linejoin="round"/>
<path d="M190.167 174.131C190.167 177.937 185.805 181.014 180.416 181.014C175.028 181.014 170.653 177.937 170.653 174.131C170.653 170.324 174.732 168.742 180.12 168.742C185.508 168.742 190.167 170.337 190.167 174.131Z" stroke="#263238" stroke-linecap="round" stroke-linejoin="round"/>
<path d="M212.65 174.131C212.65 177.937 208.275 181.014 202.887 181.014C197.498 181.014 193.136 177.937 193.136 174.131C193.136 170.324 197.202 168.742 202.59 168.742C207.978 168.742 212.65 170.337 212.65 174.131Z" stroke="#263238" stroke-linecap="round" stroke-linejoin="round"/>
<path d="M88.0411 292.685L87.4355 442.506C87.4355 442.978 87.623 443.431 87.9568 443.764C88.2905 444.098 88.7432 444.286 89.2152 444.286C89.6754 444.286 90.1176 444.106 90.4476 443.786C90.7777 443.465 90.9695 443.028 90.9824 442.568L95.2584 292.895L88.0411 292.685Z" fill="white" stroke="#263238" stroke-linecap="round" stroke-linejoin="round"/>
<path d="M77.9578 327.709L77.377 482.597C77.3754 482.831 77.4203 483.063 77.5091 483.28C77.598 483.496 77.729 483.693 77.8946 483.859C78.0602 484.024 78.257 484.155 78.4736 484.244C78.6903 484.333 78.9225 484.378 79.1566 484.376C79.616 484.377 80.0578 484.2 80.3895 483.882C80.7212 483.564 80.9171 483.13 80.9362 482.671L85.1999 327.906L77.9578 327.709Z" fill="white" stroke="#263238" stroke-linecap="round" stroke-linejoin="round"/>
<path d="M295.166 292.685L295.771 442.506C295.773 442.739 295.729 442.97 295.641 443.186C295.552 443.402 295.423 443.598 295.258 443.764C295.094 443.929 294.899 444.06 294.683 444.15C294.468 444.239 294.237 444.286 294.004 444.286C293.543 444.286 293.099 444.107 292.767 443.786C292.435 443.466 292.241 443.029 292.225 442.568L287.961 292.895L295.166 292.685Z" fill="white" stroke="#263238" stroke-linecap="round" stroke-linejoin="round"/>
<path d="M305.263 327.709L305.869 482.597C305.87 482.831 305.825 483.063 305.737 483.28C305.648 483.496 305.517 483.693 305.351 483.859C305.186 484.024 304.989 484.155 304.772 484.244C304.555 484.333 304.323 484.378 304.089 484.376C303.631 484.377 303.191 484.199 302.861 483.881C302.531 483.563 302.338 483.129 302.322 482.671L298.046 327.906L305.263 327.709Z" fill="white" stroke="#263238" stroke-linecap="round" stroke-linejoin="round"/>
<path d="M148.177 334.147L147.818 471.622C147.779 471.965 147.874 472.31 148.084 472.584C148.294 472.859 148.602 473.041 148.943 473.093C149.276 473.047 149.579 472.875 149.79 472.614C150.001 472.352 150.105 472.02 150.08 471.684L152.762 334.308L148.177 334.147Z" fill="white" stroke="#263238" stroke-linecap="round" stroke-linejoin="round"/>
<path d="M235.193 329.723L235.527 449.699C235.556 449.989 235.471 450.279 235.292 450.509C235.113 450.739 234.852 450.892 234.563 450.935C234.275 450.892 234.016 450.739 233.838 450.508C233.661 450.278 233.58 449.988 233.612 449.699L231.325 329.822L235.193 329.723Z" fill="white" stroke="#263238" stroke-linecap="round" stroke-linejoin="round"/>
<path d="M146.827 329.723L147.161 449.699C147.189 449.989 147.105 450.279 146.926 450.509C146.746 450.739 146.485 450.892 146.197 450.935C145.909 450.892 145.649 450.739 145.472 450.508C145.295 450.278 145.213 449.988 145.245 449.699L142.959 329.822L146.827 329.723Z" fill="white" stroke="#263238" stroke-linecap="round" stroke-linejoin="round"/>
<path d="M232.709 334.147L233.092 471.622C233.131 471.965 233.036 472.31 232.826 472.584C232.616 472.859 232.308 473.041 231.967 473.093C231.635 473.044 231.334 472.872 231.123 472.611C230.913 472.35 230.808 472.019 230.83 471.684L228.148 334.308L232.709 334.147Z" fill="white" stroke="#263238" stroke-linecap="round" stroke-linejoin="round"/>
<path d="M189.837 343.775C220.21 343.775 244.832 338.148 244.832 331.206C244.832 324.265 220.21 318.638 189.837 318.638C159.464 318.638 134.842 324.265 134.842 331.206C134.842 338.148 159.464 343.775 189.837 343.775Z" fill="white" stroke="#263238" stroke-linecap="round" stroke-linejoin="round"/>
<path d="M163.056 437.896C163.056 437.896 160.176 442.024 162.24 444.075C164.304 446.127 166.355 445.311 166.145 447.375C165.935 449.439 162.648 456.434 159.768 463.849C156.889 471.264 162.858 478.679 168.419 476.628C173.981 474.576 173.363 453.962 174.178 450.255C174.994 446.547 175.624 445.929 175.414 442.432C175.204 438.934 175.006 435.227 172.325 434.807C169.643 434.386 164.292 436.463 163.056 437.896Z" fill="white" stroke="#263238" stroke-linecap="round" stroke-linejoin="round"/>
<path d="M171.894 470.943C168.186 469.534 162.502 469.818 159.301 470.139C160.376 474.799 164.491 478.073 168.421 476.628C170.065 476.022 171.14 473.822 171.894 470.943Z" fill="#92E3A9" stroke="#263238" stroke-linecap="round" stroke-linejoin="round"/>
<path d="M156.677 428.838C156.677 428.838 162.646 438.935 164.29 441.604C165.933 444.273 171.507 443.458 172.125 439.75C172.743 436.043 169.851 425.748 169.851 425.748L157.492 428.838H156.677Z" fill="white" stroke="#263238" stroke-linecap="round" stroke-linejoin="round"/>
<path d="M142.467 412.772C142.467 412.772 140.811 415.454 141.639 417.307C142.467 419.161 144.729 424.512 146.175 427.194C147.621 429.876 154.208 431.52 161.82 430.284C169.433 429.048 173.771 425.538 173.981 422.448C174.191 419.359 172.745 415.243 171.707 410.3C170.669 405.357 168 405.567 164.292 405.567C160.585 405.567 145.557 409.892 142.467 412.772Z" fill="#92E3A9" stroke="#263238" stroke-linecap="round" stroke-linejoin="round"/>
<path d="M164.713 352.215C164.824 347.148 167.753 344.652 167.976 341.179C168.324 336.588 167.945 331.971 166.851 327.499L161.216 319.799C145.002 320.009 133.385 320.281 133.199 320.343C132.581 320.541 132.161 324.051 131.753 326.93C131.753 326.93 124.87 327.807 126.106 346.963C126.279 349.632 133.224 380.516 133.731 384.038C136.82 405.554 143.704 416.331 143.704 416.331C143.704 416.331 144.322 419.013 152.355 418.395C160.388 417.777 168.421 412.426 168.421 412.426C168.421 412.426 164.293 370.543 164.713 352.215Z" fill="#263238" stroke="#263238" stroke-linecap="round" stroke-linejoin="round"/>
<path d="M130.641 323.791C130.641 323.791 122.126 325.027 116.911 330.984C111.696 336.94 116.12 340.87 126.254 339.808C136.388 338.745 148.079 328.376 148.573 327.82C149.068 327.264 138.007 320.219 130.641 323.791Z" fill="white" stroke="#263238" stroke-linecap="round" stroke-linejoin="round"/>
<path d="M145.752 327.499C151.177 327.778 156.56 328.606 161.818 329.97C168.825 332.034 181.183 336.15 184.063 336.15C186.943 336.15 186.127 325.435 186.127 323.383C186.127 321.332 149.052 320.084 144.516 320.084C139.98 320.084 145.752 327.499 145.752 327.499Z" fill="white" stroke="#263238" stroke-linecap="round" stroke-linejoin="round"/>
<path d="M186.129 323.383C186.129 323.383 182.829 325.027 181.593 331.206C180.357 337.385 178.714 340.685 181.185 342.329C183.657 343.972 194.372 345.208 196.016 343.565C197.659 341.921 202.195 333.678 203.023 328.327C203.851 322.975 186.129 323.383 186.129 323.383Z" fill="#92E3A9" stroke="#263238" stroke-linecap="round" stroke-linejoin="round"/>
<path d="M200.13 325.435C198.214 327.633 196.685 330.14 195.607 332.85C194.733 335.686 194.044 338.575 193.543 341.5C197.486 342.581 201.34 343.961 205.073 345.628C211.673 348.508 222.795 350.572 233.498 353.043C244.2 355.515 247.092 357.987 250.8 357.987C254.507 357.987 259.043 355.095 264.814 348.1C270.585 341.105 265.63 326.263 259.871 321.727C254.112 317.191 223.203 313.496 219.088 314.732C214.972 315.968 200.13 325.435 200.13 325.435Z" fill="#263238" stroke="#263238" stroke-linecap="round" stroke-linejoin="round"/>
<path d="M122.843 339.919C122.029 336.222 120.38 332.76 118.023 329.797C117.64 330.156 117.269 330.526 116.911 330.934C112.326 336.149 115.193 339.857 122.843 339.919Z" fill="#92E3A9" stroke="#263238" stroke-linecap="round" stroke-linejoin="round"/>
<path d="M164.082 343.181C164.082 343.181 159.831 388.673 151.155 395.754" stroke="white" stroke-width="0.5" stroke-linecap="round" stroke-linejoin="round"/>
<path d="M161.077 386.362C161.077 386.362 157.703 401.192 148.854 407.087" stroke="white" stroke-width="0.5" stroke-linecap="round" stroke-linejoin="round"/>
<path d="M215.789 334.914C215.789 334.914 202.603 335.742 211.254 341.501C219.905 347.26 235.563 350.98 235.563 350.98" stroke="white" stroke-width="0.5" stroke-linecap="round" stroke-linejoin="round"/>
<path d="M311.517 319.33L307.068 315.326L296.785 293.08C296.298 292.068 295.532 291.216 294.578 290.623C293.624 290.03 292.521 289.721 291.397 289.731H91.6851C90.5596 289.718 89.4538 290.027 88.4973 290.62C87.5407 291.213 86.7731 292.066 86.2844 293.08L73.4687 320.788L71.3555 320.009V326.349L71.4543 326.275C71.5802 327.121 72.0095 327.892 72.6622 328.445C73.3148 328.997 74.1462 329.294 75.0012 329.278H308.069C308.969 329.299 309.842 328.969 310.504 328.358C311.166 327.747 311.565 326.903 311.616 326.003L311.517 319.33Z" fill="#263238" stroke="#263238" stroke-linecap="round" stroke-linejoin="round"/>
<path d="M308.066 323.482H74.9986C74.4214 323.505 73.8478 323.381 73.3317 323.122C72.8156 322.862 72.3737 322.476 72.0477 321.999C71.7216 321.523 71.5219 320.971 71.4674 320.396C71.4129 319.821 71.5053 319.241 71.7359 318.712L86.2818 287.284C86.768 286.268 87.5351 285.413 88.4922 284.82C89.4493 284.226 90.5563 283.919 91.6824 283.935H291.394C292.518 283.922 293.623 284.23 294.578 284.823C295.532 285.416 296.297 286.27 296.783 287.284L311.329 318.712C311.559 319.241 311.652 319.821 311.597 320.396C311.543 320.971 311.343 321.523 311.017 321.999C310.691 322.476 310.249 322.862 309.733 323.122C309.217 323.381 308.643 323.505 308.066 323.482Z" fill="white" stroke="#263238" stroke-linecap="round" stroke-linejoin="round"/>
<g style="mix-blend-mode:multiply" opacity="0.5">
<path d="M86.8048 302.374C86.8048 302.374 81.5278 305.995 84.8275 307.317C88.1272 308.64 126.055 307.651 130.677 306.329C135.299 305.006 140.564 292.808 140.564 290.831C140.564 288.854 133.915 287.432 131.468 287.321C129.021 287.21 96.6916 289.175 96.6916 289.175L86.8048 302.374Z" fill="#92E3A9"/>
</g>
<g style="mix-blend-mode:multiply" opacity="0.5">
<path d="M275.468 308.64C282.935 308.64 288.988 306.128 288.988 303.029C288.988 299.93 282.935 297.418 275.468 297.418C268.001 297.418 261.948 299.93 261.948 303.029C261.948 306.128 268.001 308.64 275.468 308.64Z" fill="#92E3A9"/>
</g>
<g style="mix-blend-mode:multiply" opacity="0.5">
<path d="M189.392 315.573C216.168 315.573 237.874 311.511 237.874 306.502C237.874 301.492 216.168 297.43 189.392 297.43C162.616 297.43 140.91 301.492 140.91 306.502C140.91 311.511 162.616 315.573 189.392 315.573Z" fill="#92E3A9"/>
</g>
<path d="M265.58 280.957C265.58 280.957 264.691 277.41 261.737 278.596C258.783 279.783 259.08 287.618 259.661 292.055C260.242 296.491 264.246 294.415 264.246 294.415V291.758C264.246 291.758 262.775 292.932 262.034 291.313C261.292 289.694 261.44 281.55 262.182 281.698C262.923 281.847 264.394 284.355 264.394 284.355C264.394 284.355 264.839 284.071 265.58 280.957Z" fill="#92E3A9" stroke="#263238" stroke-linecap="round" stroke-linejoin="round"/>
<path d="M263.455 281.55V300.977C263.455 303.264 268.707 305.117 275.196 305.117C281.684 305.117 286.924 303.264 286.924 300.977V281.55H263.455Z" fill="#92E3A9" stroke="#263238" stroke-linecap="round" stroke-linejoin="round"/>
<path d="M286.924 281.55C286.924 283.527 281.671 285.121 275.196 285.121C268.72 285.121 263.455 283.527 263.455 281.55C263.455 279.572 268.707 277.978 275.196 277.978C281.684 277.978 286.924 279.585 286.924 281.55Z" fill="white" stroke="#263238" stroke-linecap="round" stroke-linejoin="round"/>
<path d="M285.392 281.55C285.392 283.268 280.819 284.652 275.196 284.652C269.573 284.652 264.988 283.268 264.988 281.55C264.988 279.832 269.561 278.448 275.196 278.448C280.832 278.448 285.392 279.832 285.392 281.55Z" fill="white" stroke="#263238" stroke-linecap="round" stroke-linejoin="round"/>
<path d="M267.324 283.527C272.461 285.026 277.92 285.026 283.056 283.527C277.92 282.028 272.461 282.028 267.324 283.527Z" fill="#263238" stroke="#263238" stroke-linecap="round" stroke-linejoin="round"/>
<path d="M85.3457 290.423L85.494 297.072L130.293 297.517V289.83L85.3457 290.423Z" fill="white" stroke="#263238" stroke-linecap="round" stroke-linejoin="round"/>
<path d="M130.292 297.517L136.805 283.478V279.338L129.995 291.165L130.292 297.517Z" fill="white" stroke="#263238" stroke-linecap="round" stroke-linejoin="round"/>
<path d="M85.3457 296.479L85.494 303.14L130.293 303.585V295.898L85.3457 296.479Z" fill="white" stroke="#263238" stroke-linecap="round" stroke-linejoin="round"/>
<path d="M130.292 303.585L136.805 289.533V285.393L129.995 297.22L130.292 303.585Z" fill="white" stroke="#263238" stroke-linecap="round" stroke-linejoin="round"/>
<path d="M102.648 273.567C102.648 273.567 103.686 271.503 102.203 270.613C100.72 269.723 99.1014 271.849 98.2116 272.528C97.3218 273.208 78.6977 285.542 78.1045 287.47C77.5113 289.398 78.1045 293.649 82.0963 294.119C86.088 294.588 89.6349 291.906 91.4145 291.462C93.1941 291.017 93.8862 290.868 93.8862 290.868L106.158 274.308L102.648 273.567Z" fill="white" stroke="#263238" stroke-linecap="round" stroke-linejoin="round"/>
<path d="M82.0963 294.131C86.0881 294.576 89.6349 291.919 91.4145 291.474C93.1941 291.029 93.8862 290.881 93.8862 290.881L94.3311 290.275L82.8007 287.927C82.1738 287.337 81.3679 286.972 80.5105 286.891C79.6531 286.811 78.7933 287.019 78.0674 287.482C77.5113 289.385 78.1045 293.674 82.0963 294.131Z" fill="white" stroke="#263238" stroke-linecap="round" stroke-linejoin="round"/>
<path d="M82.8369 287.952H117.44C128.242 287.952 131.492 287.358 131.492 287.358L138.141 273.604C138.141 273.604 117.132 274.938 110.643 274.493C107.962 274.416 105.292 274.118 102.66 273.604L82.8369 287.952Z" fill="white" stroke="#263238" stroke-linecap="round" stroke-linejoin="round"/>
<path d="M82.8369 287.952L83.4301 290.609C83.4301 290.609 111.521 290.757 118.911 290.757C126.301 290.757 131.925 291.054 131.925 291.054L131.48 287.346L82.8369 287.952Z" fill="white" stroke="#263238" stroke-linecap="round" stroke-linejoin="round"/>
<path d="M131.922 291.017L138.126 276.817V273.566L131.478 287.321L131.922 291.017Z" fill="white" stroke="#263238" stroke-linecap="round" stroke-linejoin="round"/>
<path d="M231.731 307.626H147.014C146.826 307.628 146.64 307.592 146.466 307.522C146.292 307.451 146.134 307.347 146.001 307.214C145.867 307.082 145.762 306.925 145.689 306.752C145.617 306.579 145.58 306.393 145.58 306.205C145.58 306.017 145.617 305.832 145.689 305.658C145.762 305.485 145.867 305.328 146.001 305.196C146.134 305.064 146.292 304.959 146.466 304.888C146.64 304.818 146.826 304.782 147.014 304.784H231.731C231.918 304.782 232.103 304.818 232.276 304.889C232.45 304.96 232.607 305.064 232.739 305.196C232.872 305.329 232.976 305.486 233.047 305.659C233.118 305.832 233.153 306.018 233.152 306.205C233.153 306.392 233.118 306.578 233.047 306.751C232.976 306.924 232.872 307.081 232.739 307.214C232.607 307.346 232.45 307.451 232.276 307.521C232.103 307.592 231.918 307.628 231.731 307.626Z" fill="white" stroke="#263238" stroke-linecap="round" stroke-linejoin="round"/>
<path d="M232.451 304.759H146.288C145.973 304.76 145.669 304.64 145.439 304.424C145.21 304.208 145.071 303.912 145.052 303.597L140.368 247.305C140.347 247.13 140.364 246.954 140.416 246.786C140.469 246.619 140.556 246.464 140.673 246.333C140.79 246.202 140.934 246.098 141.094 246.027C141.255 245.955 141.429 245.919 141.604 245.921H237.147C237.323 245.919 237.496 245.955 237.657 246.027C237.817 246.098 237.961 246.202 238.078 246.333C238.195 246.464 238.283 246.619 238.335 246.786C238.388 246.954 238.404 247.13 238.383 247.305L233.699 303.597C233.68 303.914 233.54 304.212 233.307 304.428C233.075 304.644 232.768 304.763 232.451 304.759Z" fill="white" stroke="#263238" stroke-linecap="round" stroke-linejoin="round"/>
<path d="M197.497 276.31C197.497 279.671 193.851 282.39 189.365 282.39C184.879 282.39 181.221 279.671 181.221 276.31C181.221 272.948 184.866 270.242 189.365 270.242C193.863 270.242 197.497 272.961 197.497 276.31Z" fill="white" stroke="#263238" stroke-linecap="round" stroke-linejoin="round"/>
<path d="M281.693 232.339C283.015 231.308 283.944 229.856 284.326 228.223C284.603 226.999 284.574 225.726 284.239 224.516" stroke="#263238" stroke-linecap="round" stroke-linejoin="round"/>
<path d="M271.836 276.409C271.836 276.409 280.055 271.465 277.373 265.818C274.691 260.17 265.62 256.425 265.62 247.626C265.62 240.038 273.69 237.233 278.955 234.192" stroke="#263238" stroke-linecap="round" stroke-linejoin="round"/>
<path d="M279.422 276.248C279.422 276.248 284.007 273.196 284.007 268.351C284.007 265.101 280.534 262.975 275.949 257.748" stroke="#263238" stroke-linecap="round" stroke-linejoin="round"/>
<path d="M273.417 254.584C273.417 254.584 270.414 252.223 272.627 247.787" stroke="#263238" stroke-linecap="round" stroke-linejoin="round"/>
<path d="M203.837 125.13C205.307 124.821 208.459 123.609 210.584 118.678C210.617 118.604 210.635 118.523 210.636 118.442C210.638 118.361 210.623 118.28 210.593 118.204C210.563 118.128 210.519 118.059 210.462 118C210.405 117.942 210.338 117.895 210.263 117.863C210.112 117.8 209.942 117.798 209.79 117.858C209.638 117.918 209.515 118.035 209.447 118.184C207.495 122.707 204.702 123.708 203.54 123.931C205.619 121.415 206.767 118.259 206.79 114.996C206.79 106.419 198.844 99.4734 189.044 99.4734C179.243 99.4734 171.297 106.419 171.297 114.996C171.304 118.128 172.346 121.169 174.263 123.647C172.397 123.548 169.245 124.339 165.254 128.998C165.14 129.115 165.076 129.273 165.076 129.436C165.076 129.6 165.14 129.758 165.254 129.875C165.368 129.97 165.512 130.023 165.661 130.023C165.751 130.024 165.84 130.004 165.921 129.965C166.003 129.927 166.074 129.871 166.131 129.801C171.235 123.857 174.609 124.858 175.289 125.13C174.135 125.764 173.053 126.523 172.063 127.391C166.366 132.52 162.893 142.221 163.338 150.304C163.838 155.664 165.781 160.789 168.961 165.134C173.099 162.172 176.53 158.332 179.009 153.888C180.855 150.623 182.506 147.252 183.952 143.791C183.952 147.412 184.421 151.787 186.325 154.913C187.698 157.383 189.709 159.438 192.148 160.865C194.588 162.291 197.365 163.035 200.191 163.02C201.166 163.034 202.141 162.939 203.095 162.736C203.179 162.715 203.257 162.677 203.326 162.624C203.394 162.57 203.45 162.504 203.491 162.427C208.261 163.441 213.007 163.354 213.736 162.341C214.91 160.722 216.578 155.667 217.134 149.488C218.148 139.008 211.548 129.912 203.837 125.13ZM187.474 154.159C185.076 150.242 185.151 143.853 185.435 140.182L185.596 139.762C185.71 143.537 186.672 147.238 188.411 150.59C190.15 153.943 192.622 156.861 195.643 159.128C197.312 160.281 199.162 161.146 201.118 161.686C198.09 161.896 191.861 161.315 187.474 154.159Z" fill="#263238"/>
<path d="M187.685 134.707C187.685 134.707 186.671 142.196 196.187 149.537C205.703 156.878 214.725 153.986 214.725 153.986" stroke="white" stroke-width="0.5" stroke-linecap="round" stroke-linejoin="round"/>
<path d="M189.081 132.236C189.081 132.236 199.104 146.831 212.945 143.024" stroke="white" stroke-width="0.5" stroke-linecap="round" stroke-linejoin="round"/>
<path d="M184.128 127.379C182.547 126.576 180.777 126.223 179.009 126.358C177.242 126.494 175.545 127.112 174.105 128.145C168.779 131.692 166.109 140.071 166.109 140.071" stroke="white" stroke-width="0.5" stroke-linecap="round" stroke-linejoin="round"/>
<path d="M184.386 131.445C184.386 131.445 180.073 130.295 177.403 132.965C176.102 134.144 174.989 135.515 174.104 137.031" stroke="white" stroke-width="0.5" stroke-linecap="round" stroke-linejoin="round"/>
<path d="M8.94646 138.415H97.9271C100.044 138.415 102.075 139.256 103.572 140.753C105.07 142.251 105.911 144.281 105.911 146.399V208.08H1V146.399C0.999977 144.288 1.836 142.263 3.3252 140.767C4.81439 139.27 6.83552 138.425 8.94646 138.415Z" fill="#92E3A9" stroke="#263238" stroke-linecap="round" stroke-linejoin="round"/>
<path d="M105.861 198.131H1V208.042H105.861V198.131Z" fill="#263238" stroke="#263238" stroke-linecap="round" stroke-linejoin="round"/>
<path d="M101.067 201.517H5.80859V204.656H101.067V201.517Z" fill="white" stroke="#263238" stroke-linecap="round" stroke-linejoin="round"/>
<path d="M53.4362 184.512C61.4356 184.512 67.9203 178.027 67.9203 170.028C67.9203 162.029 61.4356 155.544 53.4362 155.544C45.4369 155.544 38.9521 162.029 38.9521 170.028C38.9521 178.027 45.4369 184.512 53.4362 184.512Z" fill="#263238" stroke="#263238" stroke-linecap="round" stroke-linejoin="round"/>
<path d="M46.8965 161.019L62.5299 170.04L46.8965 179.062V161.019Z" fill="white" stroke="#263238" stroke-linecap="round" stroke-linejoin="round"/>
<path d="M381.823 147.066H282.301C280.376 147.066 278.815 148.626 278.815 150.551V188.479C278.815 190.404 280.376 191.964 282.301 191.964H381.823C383.748 191.964 385.308 190.404 385.308 188.479V150.551C385.308 148.626 383.748 147.066 381.823 147.066Z" fill="#263238" stroke="#263238" stroke-linecap="round" stroke-linejoin="round"/>
<path d="M291.498 153.183L292.017 154.049C289.669 155.359 287.482 157.657 287.482 160.351C287.451 160.814 287.514 161.278 287.666 161.717C287.817 162.155 288.055 162.558 288.365 162.904C288.674 163.249 289.05 163.529 289.469 163.727C289.888 163.926 290.343 164.038 290.806 164.059C291.152 164.059 291.387 163.886 291.387 163.54C291.387 163.194 291.214 163.083 290.868 163.021C290.401 162.894 289.995 162.606 289.721 162.208C289.447 161.809 289.323 161.327 289.372 160.846C289.381 160.462 289.468 160.084 289.628 159.735C289.788 159.386 290.017 159.073 290.301 158.815C290.585 158.557 290.919 158.36 291.282 158.235C291.645 158.111 292.03 158.061 292.413 158.09C292.829 158.091 293.241 158.176 293.624 158.34C294.007 158.503 294.353 158.741 294.642 159.041C294.932 159.341 295.158 159.695 295.308 160.084C295.457 160.472 295.528 160.887 295.514 161.303C295.508 161.826 295.397 162.342 295.187 162.821C294.977 163.3 294.672 163.732 294.292 164.091C293.911 164.45 293.462 164.728 292.971 164.909C292.481 165.091 291.959 165.171 291.436 165.146C290.787 165.188 290.136 165.094 289.525 164.868C288.914 164.642 288.358 164.291 287.892 163.836C287.426 163.382 287.061 162.835 286.82 162.23C286.579 161.626 286.467 160.977 286.493 160.327C286.456 157.2 288.866 154.679 291.498 153.183ZM302.114 153.183L302.633 154.049C300.272 155.359 298.097 157.657 298.097 160.351C298.066 160.814 298.127 161.279 298.278 161.718C298.429 162.157 298.667 162.562 298.976 162.907C299.286 163.253 299.662 163.533 300.083 163.731C300.503 163.929 300.958 164.04 301.422 164.059C301.768 164.059 302.003 163.886 302.003 163.54C302.003 163.194 301.83 163.083 301.484 163.021C301.017 162.894 300.61 162.606 300.337 162.208C300.063 161.809 299.939 161.327 299.988 160.846C299.995 160.461 300.081 160.083 300.24 159.733C300.399 159.383 300.628 159.069 300.913 158.811C301.198 158.553 301.532 158.356 301.896 158.232C302.26 158.108 302.645 158.059 303.028 158.09C303.445 158.091 303.857 158.176 304.24 158.34C304.623 158.503 304.969 158.741 305.258 159.041C305.547 159.341 305.774 159.695 305.923 160.084C306.073 160.472 306.144 160.887 306.13 161.303C306.123 161.825 306.01 162.341 305.799 162.819C305.589 163.298 305.284 163.729 304.904 164.087C304.524 164.445 304.075 164.724 303.585 164.906C303.096 165.088 302.574 165.17 302.052 165.146C301.403 165.187 300.753 165.09 300.143 164.864C299.533 164.638 298.978 164.286 298.512 163.832C298.047 163.378 297.681 162.832 297.439 162.228C297.198 161.624 297.085 160.977 297.109 160.327C297.059 157.2 299.469 154.679 302.114 153.183Z" fill="#92E3A9"/>
<path d="M312.273 162.328H372.879" stroke="white" stroke-linecap="round" stroke-linejoin="round"/>
<path d="M312.273 167.532H372.879" stroke="white" stroke-linecap="round" stroke-linejoin="round"/>
<path d="M312.273 172.734H372.879" stroke="white" stroke-linecap="round" stroke-linejoin="round"/>
<path d="M312.273 177.95H372.879" stroke="white" stroke-linecap="round" stroke-linejoin="round"/>
<path d="M191.607 64.919C204.116 62.8773 212.602 51.0815 210.56 38.5723C208.518 26.0631 196.723 17.5775 184.213 19.6193C171.704 21.661 163.219 33.4569 165.26 45.966C167.302 58.4752 179.098 66.9608 191.607 64.919Z" fill="#263238" stroke="#263238" stroke-linecap="round" stroke-linejoin="round"/>
<path d="M202.467 55.0742C209.524 47.0379 208.731 34.802 200.695 27.7445C192.658 20.6869 180.422 21.4803 173.365 29.5166C166.307 37.5528 167.101 49.7888 175.137 56.8464C183.173 63.9039 195.409 63.1105 202.467 55.0742Z" fill="white" stroke="#263238" stroke-linecap="round" stroke-linejoin="round"/>
<path d="M187.922 28.2642V42.2663H197.388" stroke="#263238" stroke-width="2" stroke-linecap="round" stroke-linejoin="round"/>
<path d="M212.075 30.8057L216.42 19.3276L220.637 22.2758L224.918 13.4396L229.359 16.6396L221.022 25.1956L217.511 22.2102L212.075 30.8057Z" fill="#455A64"/>
<path d="M217.211 33.3279L226.077 29.3901L226.838 32.5297L233.787 31.7447L234.664 35.0899L225.074 35.0478L225.058 31.8458L217.211 33.3279Z" fill="#455A64"/>
<path d="M208.848 24.5457L205.877 15.21L209.197 15.0273L207.27 7.33027L210.762 6.2641L211.131 16.6243L208.136 16.5896L208.848 24.5457Z" fill="#455A64"/>
<path d="M166.709 55.5001L154.463 56.3041L156.051 61.1985L146.35 62.7125L148.113 67.8942L158.731 62.4188L156.901 58.1899L166.709 55.5001Z" fill="#455A64"/>
<path d="M167.623 61.147L161.268 68.477L164.049 70.1219L161.269 76.538L164.212 78.354L166.972 69.1696L163.915 68.2189L167.623 61.147Z" fill="#455A64"/>
<path d="M161.665 50.5874L153.604 45.0194L152.46 48.1411L145.661 44.0504L143.621 47.0791L153.422 50.4574L154.264 47.5822L161.665 50.5874Z" fill="#455A64"/>
<path d="M61.0014 70.5183L45.9859 49.1012L70.3938 59.8159L69.0343 27.165L88.1034 48.5574L103.848 23.0126L111.448 52.0301L135.313 49.2495L119.481 74.3618L145.397 90.8109L112.907 85.3608L111.832 111.857L89.5246 93.9746L66.1054 113.637L68.9355 87.8078L39.4854 85.435L61.0014 70.5183Z" fill="white"/>
<path d="M60.9977 70.5181C60.9977 70.5181 60.5405 70.8641 59.6259 71.5068L55.4982 74.411L39.5559 85.5336L39.4817 85.2617L68.9442 87.5727H69.1666V87.7952C68.3263 95.5315 67.387 104.257 66.3736 113.637L65.9658 113.414L89.3727 93.7148L89.5457 93.5789L89.7187 93.7148L112.026 111.622L111.544 111.845C111.877 103.441 112.236 94.5429 112.606 85.3358V84.9898H112.953L145.393 90.5017L145.171 91.0825L120.677 75.4985L119.305 74.6334L119.033 74.4604L119.206 74.1885L135.049 49.0886L135.346 49.5706L111.482 52.3388H111.222L111.148 52.0793L103.56 23.0494L104.092 23.1359C98.6044 32.0175 93.3521 40.5242 88.3345 48.656L88.1368 48.9774L87.8896 48.7055L68.8453 27.3254L69.2779 27.1524C69.7722 39.2142 70.2047 50.1267 70.6002 59.8033V60.1247L70.3036 59.9887L45.9081 49.2245L46.0811 49.0021L57.2037 65.068L60.1203 69.1463C60.7506 70.0608 61.0472 70.5181 61.0472 70.5181C61.0472 70.5181 60.6888 70.0485 60.0338 69.1339L57.0801 65.068L45.8587 49.2122L45.5497 48.7796L46.0317 48.9897L70.4766 59.655L70.1924 59.8528C69.7722 50.1761 69.3026 39.2636 68.7835 27.1895V26.4974L69.2408 27.0164L88.3345 48.3965H87.8896C92.8824 40.2647 98.1224 31.7497 103.61 22.8517L103.98 22.2461L104.153 22.9258L111.778 51.931L111.445 51.7086L135.272 49.0021L135.939 48.9279L135.581 49.4841C130.407 57.723 125.13 66.0938 119.75 74.5964L119.651 74.1515L121.023 75.0166L145.566 90.6129L146.901 91.4533L145.393 91.1319L112.903 85.6572L113.261 85.3729C112.891 94.5305 112.52 103.466 112.174 111.869V112.463L111.717 112.092L89.4715 94.1845H89.8176C81.4633 101.179 73.5539 107.779 66.3366 113.834L65.8669 114.217V113.612C66.905 104.244 67.8814 95.5192 68.7341 87.7828L68.9318 88.0176L39.4817 85.5459H39.0615L39.4076 85.3111L55.3746 74.3368L59.5518 71.482L60.9977 70.5181Z" fill="#263238"/>
<path d="M127.14 100.586C127.14 100.586 126.608 100.661 125.731 101.019C124.493 101.547 123.448 102.445 122.74 103.59C122.245 104.363 121.928 105.237 121.813 106.148C121.699 107.188 121.888 108.24 122.357 109.176C122.836 110.296 123.649 111.242 124.686 111.884C125.722 112.525 126.932 112.831 128.149 112.759C129.365 112.687 130.531 112.242 131.485 111.483C132.439 110.725 133.135 109.69 133.48 108.521C133.836 107.534 133.896 106.464 133.653 105.443C133.432 104.537 133.01 103.692 132.417 102.972C131.578 101.919 130.434 101.15 129.142 100.772C128.661 100.657 128.174 100.566 127.683 100.5H128.067C128.227 100.489 128.388 100.489 128.549 100.5C128.765 100.524 128.979 100.561 129.191 100.611C130.553 100.936 131.772 101.695 132.664 102.774C133.298 103.509 133.755 104.38 133.999 105.32C134.281 106.41 134.23 107.559 133.85 108.619C133.457 109.801 132.747 110.852 131.799 111.66C130.781 112.531 129.513 113.058 128.178 113.167C126.839 113.219 125.519 112.842 124.408 112.092C123.366 111.425 122.531 110.479 121.999 109.361C121.504 108.349 121.315 107.216 121.455 106.098C121.638 104.946 122.118 103.861 122.848 102.95C123.579 102.04 124.534 101.336 125.62 100.908C125.825 100.83 126.035 100.768 126.25 100.722C126.403 100.677 126.56 100.652 126.719 100.648C127.004 100.574 127.14 100.562 127.14 100.586Z" fill="#263238"/>
<path d="M142.81 116.158C142.81 116.158 142.477 116.232 141.933 116.467C141.172 116.813 140.532 117.376 140.091 118.086C139.76 118.593 139.565 119.177 139.526 119.781C139.487 120.385 139.605 120.989 139.869 121.534C140.19 122.192 140.699 122.741 141.331 123.11C141.963 123.479 142.691 123.653 143.422 123.61C144.153 123.566 144.855 123.307 145.439 122.865C146.023 122.423 146.463 121.818 146.703 121.126C146.9 120.553 146.946 119.939 146.835 119.344C146.725 118.748 146.462 118.192 146.073 117.728C145.556 117.073 144.854 116.591 144.058 116.343C143.49 116.17 143.144 116.183 143.144 116.146C143.455 116.06 143.784 116.06 144.095 116.146C144.966 116.343 145.75 116.816 146.332 117.493C146.736 117.967 147.031 118.524 147.197 119.124C147.371 119.826 147.341 120.564 147.111 121.25C146.871 122.048 146.391 122.753 145.737 123.27C145.083 123.787 144.286 124.09 143.454 124.138C142.622 124.187 141.795 123.979 141.085 123.541C140.375 123.104 139.817 122.46 139.486 121.695C139.172 121.042 139.056 120.312 139.152 119.594C139.242 118.982 139.47 118.398 139.819 117.888C140.304 117.138 141.027 116.573 141.871 116.282C142.17 116.167 142.492 116.124 142.81 116.158Z" fill="#263238"/>
<path d="M84.542 56.7386L84.6656 70.3329C84.6735 70.8701 84.8756 71.3863 85.2345 71.7861C85.5934 72.1859 86.0849 72.4423 86.6182 72.5079C87.1883 72.5796 87.7639 72.4279 88.2246 72.0847C88.6854 71.7414 88.9954 71.2332 89.0899 70.6665L91.3391 57.0723C91.3594 56.8364 91.3314 56.5989 91.2568 56.3742C91.1822 56.1495 91.0627 55.9424 90.9054 55.7654C90.7481 55.5885 90.5564 55.4454 90.342 55.345C90.1276 55.2446 89.895 55.189 89.6584 55.1814L86.3463 55.0455C86.116 55.0356 85.8861 55.0718 85.67 55.1519C85.4539 55.2321 85.256 55.3546 85.0879 55.5124C84.9198 55.6701 84.7849 55.8598 84.6912 56.0704C84.5974 56.281 84.5467 56.5081 84.542 56.7386Z" fill="#263238"/>
<path d="M89.7817 80.3927C89.5408 81.0043 89.124 81.5307 88.5839 81.9055C88.0439 82.2802 87.4049 82.4865 86.7476 82.4981C86.0904 82.5098 85.4445 82.3264 84.8915 81.971C84.3385 81.6157 83.9033 81.1043 83.6408 80.5017C83.3783 79.899 83.3004 79.2321 83.4169 78.5852C83.5333 77.9382 83.839 77.3404 84.2952 76.8671C84.7514 76.3938 85.3376 76.0664 85.9798 75.9263C86.622 75.7861 87.2914 75.8395 87.9032 76.0796C88.31 76.2393 88.6812 76.4775 88.9958 76.7807C89.3104 77.084 89.5621 77.4462 89.7366 77.8468C89.911 78.2474 90.0048 78.6784 90.0126 79.1153C90.0203 79.5521 89.9419 79.9862 89.7817 80.3927Z" fill="#263238"/>
<path d="M94.8993 57.295L95.0228 70.8892C95.0285 71.4291 95.2314 71.9483 95.5934 72.3489C95.9553 72.7496 96.4513 73.004 96.9878 73.0643C97.5571 73.1427 98.1344 72.9951 98.5963 72.6533C99.0582 72.3115 99.368 71.8025 99.4595 71.2353L101.709 57.641C101.751 57.399 101.741 57.1507 101.68 56.9129C101.618 56.6751 101.506 56.4532 101.352 56.2622C101.197 56.0713 101.003 55.9158 100.784 55.8061C100.564 55.6964 100.323 55.6352 100.077 55.6266L96.753 55.4906C96.5093 55.4729 96.2645 55.5071 96.0349 55.5908C95.8053 55.6745 95.596 55.8059 95.4209 55.9764C95.2457 56.1469 95.1087 56.3525 95.0188 56.5798C94.9289 56.8071 94.8881 57.0508 94.8993 57.295Z" fill="#263238"/>
<path d="M100.173 80.9613C99.9324 81.5729 99.5156 82.0993 98.9755 82.474C98.4355 82.8488 97.7965 83.055 97.1393 83.0667C96.482 83.0783 95.8361 82.8949 95.2831 82.5395C94.7301 82.1842 94.2949 81.6729 94.0324 81.0702C93.7699 80.4676 93.692 79.8006 93.8085 79.1537C93.9249 78.5068 94.2306 77.9089 94.6868 77.4356C95.143 76.9624 95.7292 76.635 96.3714 76.4948C97.0136 76.3547 97.683 76.408 98.2949 76.6482C98.7016 76.8078 99.0728 77.0461 99.3874 77.3493C99.702 77.6525 99.9537 78.0148 100.128 78.4153C100.303 78.8159 100.396 79.247 100.404 79.6838C100.412 80.1207 100.333 80.5548 100.173 80.9613Z" fill="#263238"/>
<path d="M301.138 80.8746L312.421 64.7963L294.094 72.8293L295.107 48.3225L280.796 64.3761L268.981 45.2082L263.259 66.9837L245.352 64.9075L257.241 83.7541L237.776 96.1125L262.172 92.0095L262.975 111.907L279.721 98.473L297.307 113.254L295.181 93.8509L317.303 92.0713L301.138 80.8746Z" fill="white"/>
<path d="M301.113 80.8749L302.225 81.604L305.377 83.742L317.365 91.948L317.711 92.1828H317.29L295.181 94.0242L295.367 93.7894C296.022 99.5979 296.751 106.148 297.529 113.192L297.603 113.798L297.134 113.402L279.523 98.6586H279.869L263.136 112.105L262.678 112.475V111.882C262.419 105.579 262.147 98.8687 261.863 91.9851L262.221 92.2817L237.826 96.3847L236.269 96.6566L237.603 95.8038L256.042 84.1004L257.068 83.4454L256.969 83.8903C252.915 77.5381 248.961 71.2476 245.08 65.0684L244.722 64.4999L245.389 64.5741L263.296 66.675L262.963 66.9098L268.685 45.1343L268.858 44.4546L269.228 45.0478L281.031 64.2404H280.586L294.922 48.1745L295.391 47.6554V48.3475C295.008 57.4062 294.65 65.6493 294.328 72.8666L294.044 72.6689L312.396 64.6853L312.878 64.4752L312.582 64.9078L304.141 76.7842L301.954 79.8491L301.175 80.8996L301.867 79.8615L303.993 76.7842L312.335 64.7348L312.52 64.9572L294.205 73.052L293.908 73.1756V72.8542C294.192 65.5875 294.526 57.3939 294.885 48.3351L295.317 48.5082L281.031 64.5741L280.784 64.8583L280.586 64.537L268.746 45.3815L269.29 45.295C267.449 52.3145 265.583 59.5937 263.593 67.0829L263.519 67.3424H263.247L245.34 65.2662L245.636 64.7718L257.513 83.6061L257.673 83.878L257.414 84.051L256.376 84.706L237.949 96.4094L237.727 95.8162L262.122 91.7255H262.468V92.0716C262.74 98.9552 263.012 105.666 263.259 111.969L262.777 111.759L279.535 98.3373L279.721 98.2014L279.894 98.3373L297.455 113.167L297.06 113.39C296.293 106.346 295.589 99.7956 294.971 93.9871V93.7647H295.181L317.303 92.0469L317.179 92.257L305.216 83.8656L302.127 81.6782C301.472 81.1344 301.113 80.8749 301.113 80.8749Z" fill="#263238"/>
<path d="M251.479 103.441C251.479 103.441 251.875 103.441 252.542 103.775C253.469 104.176 254.253 104.848 254.791 105.703C255.16 106.283 255.397 106.937 255.483 107.618C255.565 108.4 255.423 109.188 255.075 109.892C254.71 110.724 254.098 111.425 253.323 111.899C252.548 112.373 251.646 112.598 250.739 112.544C249.831 112.49 248.963 112.16 248.249 111.597C247.535 111.035 247.01 110.267 246.746 109.398C246.482 108.661 246.435 107.863 246.61 107.099C246.827 106.28 247.252 105.53 247.843 104.922C248.433 104.314 249.171 103.868 249.984 103.627C250.676 103.429 251.084 103.454 251.084 103.417C250.985 103.406 250.886 103.406 250.787 103.417C250.668 103.406 250.548 103.406 250.429 103.417C250.27 103.426 250.113 103.451 249.959 103.491C249.093 103.699 248.299 104.137 247.662 104.76C247.025 105.382 246.567 106.165 246.338 107.025C246.138 107.843 246.177 108.701 246.449 109.497C246.751 110.376 247.29 111.155 248.006 111.746C248.767 112.407 249.721 112.806 250.725 112.883C251.729 112.914 252.718 112.634 253.555 112.08C254.335 111.571 254.96 110.857 255.36 110.016C255.737 109.251 255.879 108.39 255.768 107.544C255.66 106.824 255.394 106.136 254.989 105.53C254.42 104.647 253.578 103.975 252.591 103.614C252.441 103.551 252.283 103.506 252.122 103.478C252.007 103.465 251.891 103.465 251.776 103.478L251.479 103.441Z" fill="#263238"/>
<path d="M239.714 115.144C239.714 115.144 239.961 115.144 240.369 115.379C240.951 115.633 241.435 116.066 241.753 116.615C242.004 116.994 242.151 117.431 242.181 117.884C242.212 118.336 242.124 118.789 241.926 119.198C241.681 119.679 241.308 120.084 240.848 120.367C240.388 120.651 239.859 120.802 239.319 120.804C238.765 120.755 238.237 120.546 237.799 120.204C237.361 119.863 237.03 119.401 236.847 118.877C236.696 118.446 236.66 117.984 236.742 117.535C236.824 117.086 237.023 116.667 237.317 116.318C237.702 115.827 238.228 115.465 238.825 115.28C239.257 115.157 239.517 115.157 239.517 115.12C239.281 115.066 239.036 115.066 238.8 115.12C238.146 115.271 237.558 115.626 237.119 116.133C236.815 116.491 236.595 116.914 236.476 117.369C236.323 117.889 236.323 118.443 236.476 118.963C236.677 119.55 237.042 120.068 237.529 120.453C238.015 120.839 238.602 121.077 239.22 121.138C239.842 121.155 240.455 120.99 240.985 120.663C241.514 120.336 241.936 119.861 242.198 119.297C242.435 118.81 242.521 118.263 242.446 117.727C242.376 117.283 242.207 116.861 241.951 116.491C241.584 115.922 241.042 115.489 240.406 115.256C240.187 115.166 239.95 115.128 239.714 115.144Z" fill="#263238"/>
<path d="M283.464 70.5184L283.377 80.7635C283.368 81.1638 283.214 81.5472 282.943 81.8426C282.673 82.138 282.305 82.3254 281.907 82.3701C281.492 82.4114 281.077 82.2961 280.743 82.0468C280.409 81.7975 280.181 81.4323 280.102 81.023L278.422 70.8273C278.39 70.6444 278.397 70.4567 278.444 70.277C278.491 70.0973 278.576 69.9297 278.693 69.7856C278.81 69.6415 278.957 69.5242 279.123 69.4417C279.29 69.3592 279.472 69.3133 279.658 69.3072L282.129 69.2084C282.306 69.1938 282.484 69.2175 282.651 69.2778C282.818 69.3382 282.97 69.4337 283.096 69.558C283.223 69.6823 283.321 69.8324 283.385 69.9981C283.448 70.1638 283.475 70.3413 283.464 70.5184Z" fill="#263238"/>
<path d="M279.507 88.29C279.69 88.741 280.002 89.128 280.404 89.4025C280.806 89.6769 281.28 89.8266 281.767 89.8327C282.253 89.8388 282.731 89.7011 283.14 89.4369C283.549 89.1726 283.87 88.7936 284.064 88.3473C284.258 87.9011 284.317 87.4074 284.231 86.9282C284.146 86.449 283.921 86.0057 283.585 85.6538C283.249 85.3019 282.816 85.0571 282.341 84.95C281.867 84.843 281.371 84.8785 280.916 85.0521C280.609 85.1694 280.328 85.3468 280.09 85.574C279.853 85.8012 279.663 86.0735 279.531 86.375C279.4 86.6766 279.331 87.0013 279.326 87.3301C279.322 87.6589 279.384 87.9853 279.507 88.29Z" fill="#263238"/>
<path d="M275.69 70.9508L275.591 81.1341C275.593 81.5403 275.444 81.9326 275.172 82.2343C274.9 82.536 274.525 82.7254 274.121 82.7654C273.699 82.8186 273.273 82.705 272.934 82.4488C272.594 82.1926 272.368 81.814 272.304 81.3936L270.611 71.2474C270.581 71.0647 270.59 70.8778 270.638 70.6989C270.686 70.52 270.771 70.3533 270.887 70.2097C271.004 70.066 271.15 69.9488 271.315 69.8656C271.481 69.7825 271.662 69.7353 271.847 69.7273L274.318 69.6284C274.496 69.6218 274.673 69.6511 274.84 69.7145C275.006 69.778 275.158 69.8743 275.286 69.9978C275.414 70.1213 275.516 70.2693 275.585 70.433C275.655 70.5968 275.69 70.7729 275.69 70.9508Z" fill="#263238"/>
<path d="M271.736 88.7101C271.919 89.1612 272.231 89.5482 272.633 89.8226C273.035 90.097 273.509 90.2467 273.995 90.2528C274.482 90.2589 274.96 90.1212 275.368 89.857C275.777 89.5928 276.099 89.2138 276.293 88.7675C276.487 88.3212 276.545 87.8275 276.46 87.3484C276.375 86.8692 276.15 86.4258 275.814 86.0739C275.477 85.722 275.045 85.4772 274.57 85.3701C274.095 85.2631 273.599 85.2986 273.145 85.4722C272.837 85.5895 272.557 85.767 272.319 85.9941C272.081 86.2213 271.891 86.4936 271.76 86.7952C271.629 87.0967 271.559 87.4214 271.555 87.7502C271.551 88.079 271.612 88.4054 271.736 88.7101Z" fill="#263238"/>
</svg>
