<svg width="497" height="381" viewBox="0 0 497 381" fill="none" xmlns="http://www.w3.org/2000/svg">
<path d="M414.503 95.9233C414.503 95.9233 415.113 172.79 415.113 193.066C415.113 213.342 414.503 334.937 414.503 334.937" stroke="#263238" stroke-width="3" stroke-linecap="round" stroke-linejoin="round"/>
<path d="M460.614 115.6L441.547 99.6131L495.048 105.762L447.696 90.3948L496.278 81.7863H441.547L483.98 49.8117L436.018 73.7875L463.694 26.4457L426.8 68.8683L439.708 6.76902L415.721 64.5692L413.262 0L408.353 65.799L382.186 7.66811L400.354 71.3279L361.218 28.6366L395.435 81.1662L346.988 46.608L392.355 90.3948L341.004 62.3266L388.056 94.0842L345.489 88.5346L386.827 100.233L353.726 105.752L388.056 104.532L367.77 118.06L415.721 105.152L460.614 115.6Z" fill="#92E3A9"/>
<path d="M396.062 173.401C396.062 173.401 394.212 189.388 395.441 195.537C396.748 202.636 397.368 209.845 397.291 217.064C397.291 225.052 397.901 259.032 397.901 264.602C397.901 270.172 397.291 317.152 397.291 321.441V336.178" stroke="#263238" stroke-width="3" stroke-linecap="round" stroke-linejoin="round"/>
<path d="M397.9 258.411C397.9 258.411 400.36 211.524 402.82 205.375C405.279 199.226 407.129 201.076 407.739 193.697C408.348 186.319 408.359 183.239 409.589 180.779C410.568 178.588 411.39 176.329 412.048 174.021L413.278 169.102" stroke="#263238" stroke-width="3" stroke-linecap="round" stroke-linejoin="round"/>
<path d="M441.549 189.388L422.492 173.401L475.993 179.55L428.641 164.182L477.223 155.574H422.492L464.925 123.599L416.953 147.575L444.629 100.233L407.735 142.656L420.642 80.5565L396.667 138.357L394.207 73.7875L389.288 139.586L370.231 79.9365L381.289 145.115L347.475 96.5438L376.38 154.954L332.015 125.976L373.301 164.182L327.53 145.446L369.002 167.872L326.031 164.162L367.772 174.021L338.753 180.635L369.002 178.32L348.705 191.847L396.667 178.94L441.549 189.388Z" fill="#92E3A9"/>
<path d="M379.208 318.754L366.042 340.694C365.042 342.36 364.387 344.21 364.117 346.135C363.847 348.06 363.968 350.019 364.472 351.896L370.321 373.681C370.73 375.228 371.641 376.596 372.911 377.57C374.18 378.545 375.737 379.07 377.338 379.065H437.277C438.878 379.07 440.435 378.545 441.704 377.57C442.974 376.596 443.885 375.228 444.294 373.681L450.144 351.896C450.648 350.019 450.768 348.06 450.498 346.135C450.228 344.21 449.573 342.36 448.573 340.694L435.407 318.754C434.967 318.017 434.343 317.407 433.597 316.983C432.851 316.559 432.007 316.336 431.149 316.336H383.466C382.608 316.336 381.764 316.559 381.018 316.983C380.272 317.407 379.648 318.017 379.208 318.754Z" fill="white" stroke="#263238" stroke-linejoin="round"/>
<path d="M18.9356 222.561C17.241 220.433 15.171 218.632 12.828 217.249C9.63467 215.658 3 214.325 3 214.325C3 214.325 8.83892 213.002 13.3344 214.056C17.8298 215.11 21.0335 219.636 21.0335 219.636C21.0335 219.636 19.7107 217.776 17.8505 212.206C15.9903 206.636 15.9903 194.638 15.9903 194.638C18.8307 197.942 21.0756 201.715 22.625 205.788C23.9325 209.501 24.8402 213.343 25.3326 217.249C25.3326 217.249 24.8055 207.948 26.366 202.647C27.9265 197.345 32.4736 190.69 32.4736 190.69C32.4736 190.69 32.7423 202.378 30.8821 208.754C29.022 215.131 28.2262 218.055 28.2262 218.055C29.3874 214.746 31.2932 211.748 33.7964 209.292C37.7855 205.571 47.3448 202.388 47.3448 202.388C47.3448 202.388 42.8287 210.656 39.9041 213.27C36.9794 215.885 34.0651 218.851 34.0651 218.851C36.6824 217.198 39.7347 216.367 42.8287 216.464C48.4092 216.464 55.0439 220.174 55.0439 220.174C55.0439 220.174 35.667 219.905 31.9466 223.088L18.9356 222.561Z" fill="#92E3A9" stroke="#263238" stroke-miterlimit="10"/>
<path d="M22.5284 221.135L19.2627 218.872" stroke="#263238" stroke-linecap="round" stroke-linejoin="round"/>
<path d="M26.0538 222.902L21.5273 210.821" stroke="#263238" stroke-linecap="round" stroke-linejoin="round"/>
<path d="M25.5547 224.411L28.5723 206.791" stroke="#263238" stroke-linecap="round" stroke-linejoin="round"/>
<path d="M26.0566 222.902L34.6135 212.33" stroke="#263238" stroke-linecap="round" stroke-linejoin="round"/>
<path d="M24.3779 221.817L36.8722 218.624" stroke="#263238" stroke-linecap="round" stroke-linejoin="round"/>
<path d="M41.2101 264.064H14.6714L13.4726 254.433C12.5943 247.407 12.5527 240.303 13.3486 233.268L14.6714 221.466H41.2101L42.5225 232.968C43.3184 239.999 43.2871 247.099 42.4295 254.123L41.2101 264.064Z" fill="#263238"/>
<path d="M42.9768 245.979L38.9877 221.817L33.6758 263.506L24.3852 221.817L18.8046 264.033L14.6709 221.507" fill="#263238"/>
<path d="M42.9768 245.979L38.9877 221.817L33.6758 263.506L24.3852 221.817L18.8046 264.033L14.6709 221.507" stroke="white" stroke-linecap="round" stroke-linejoin="round"/>
<path d="M41.2101 264.064H14.6714L13.4726 254.433C12.5943 247.407 12.5527 240.303 13.3486 233.268L14.6714 221.466H41.2101L42.5225 232.968C43.3184 239.999 43.2871 247.099 42.4295 254.123L41.2101 264.064Z" stroke="#263238" stroke-miterlimit="10"/>
<path d="M50.4281 229.071L36.7764 264.601H64.5448L50.4281 229.071Z" fill="white" stroke="#263238" stroke-linecap="round" stroke-linejoin="round"/>
<path d="M50.4258 229.071L59.5407 264.342H103.823L94.3469 229.071H50.4258Z" fill="white" stroke="#263238" stroke-linecap="round" stroke-linejoin="round"/>
<path d="M50.4258 229.071C53.372 231.771 56.9122 233.739 60.7602 234.817C66.7644 236.326 70.5158 229.319 70.5158 229.319L50.4258 229.071Z" fill="white" stroke="#263238" stroke-linecap="round" stroke-linejoin="round"/>
<path d="M62.7959 234.828C62.7959 234.828 68.0458 235.324 75.5485 232.575C83.0513 229.826 97.0647 224.07 100.351 222.065C103.637 220.06 100.103 210.305 100.103 210.305C100.103 210.305 96.5996 214.811 86.596 217.063C81.0453 218.345 75.4335 219.345 69.7819 220.06C69.7819 220.06 71.0531 231.8 62.7959 234.828Z" fill="white" stroke="#263238" stroke-linecap="round" stroke-linejoin="round"/>
<path d="M60.0361 239.323L65.2963 259.847" stroke="#263238" stroke-linecap="round" stroke-linejoin="round"/>
<path d="M66.0439 239.323L71.3041 259.847" stroke="#263238" stroke-linecap="round" stroke-linejoin="round"/>
<path d="M72.0488 239.323L77.309 259.847" stroke="#263238" stroke-linecap="round" stroke-linejoin="round"/>
<path d="M78.0537 239.323L83.3036 259.847" stroke="#263238" stroke-linecap="round" stroke-linejoin="round"/>
<path d="M84.0557 239.323L89.3055 259.847" stroke="#263238" stroke-linecap="round" stroke-linejoin="round"/>
<path d="M90.0635 239.323L95.3133 259.847" stroke="#263238" stroke-linecap="round" stroke-linejoin="round"/>
<path d="M58.5361 242.332H93.3113" stroke="#263238" stroke-linecap="round" stroke-linejoin="round"/>
<path d="M60.2891 246.578H95.0642" stroke="#263238" stroke-linecap="round" stroke-linejoin="round"/>
<path d="M61.2891 250.836H96.0746" stroke="#263238" stroke-linecap="round" stroke-linejoin="round"/>
<path d="M61.7861 255.094H96.5613" stroke="#263238" stroke-linecap="round" stroke-linejoin="round"/>
<path d="M114.91 271.071H5.87207V379.065H114.91V271.071Z" fill="white" stroke="#263238" stroke-linecap="round" stroke-linejoin="round"/>
<path d="M106.824 288.267H13.9492V322.464H106.824V288.267Z" fill="white" stroke="#263238" stroke-linecap="round" stroke-linejoin="round"/>
<path d="M77.6477 302.447H43.1309V308.286H77.6477V302.447Z" fill="#263238" stroke="#263238" stroke-linecap="round" stroke-linejoin="round"/>
<path d="M106.824 331.63H13.9492V365.827H106.824V331.63Z" fill="white" stroke="#263238" stroke-linecap="round" stroke-linejoin="round"/>
<path d="M77.6477 345.809H43.1309V351.648H77.6477V345.809Z" fill="#263238" stroke="#263238" stroke-linecap="round" stroke-linejoin="round"/>
<path d="M118.867 264.354H3.60742V274.688H118.867V264.354Z" fill="#263238" stroke="#263238" stroke-linecap="round" stroke-linejoin="round"/>
<path d="M178.278 286.572C178.278 286.572 152.959 219.916 156.059 201.83C159.159 183.745 220.132 155.326 301.257 154.292C382.382 153.259 451.105 192.013 460.406 205.447C469.707 218.882 448.005 311.375 448.005 311.375L187.062 308.275L178.278 286.572Z" fill="#616161" stroke="#263238" stroke-linecap="round" stroke-linejoin="round"/>
<path d="M191.372 233.867C191.372 233.867 211.349 234.559 228.225 240.068C245.101 245.576 299.191 248.676 299.191 248.676L299.883 297.94H186.546C186.546 297.94 172.078 277.612 168.285 261.77C164.493 245.927 178.62 234.208 191.372 233.867Z" fill="#92E3A9" stroke="#263238" stroke-linecap="round" stroke-linejoin="round"/>
<path d="M272.216 287.947C270.69 288.742 269.112 289.433 267.493 290.014" stroke="#263238" stroke-linecap="round" stroke-linejoin="round"/>
<path d="M294.368 265.904C290.047 273.351 284.222 279.816 277.265 284.888" stroke="#263238" stroke-linecap="round" stroke-linejoin="round"/>
<path d="M282.653 274.864C282.653 274.864 268.185 287.265 253.024 292.081" stroke="#263238" stroke-linecap="round" stroke-linejoin="round"/>
<path d="M202.404 272.135L203.045 296.183H214.113L202.404 272.135Z" fill="#263238" stroke="#263238" stroke-linecap="round" stroke-linejoin="round"/>
<path d="M176.944 262.101L193.572 275.897C193.572 275.897 197.644 256.138 195.453 248.294C194.297 243.831 192.033 239.732 188.87 236.378C188.87 236.378 185.418 248.924 181.026 254.257C176.634 259.589 176.944 262.101 176.944 262.101Z" fill="white" stroke="#263238" stroke-linecap="round" stroke-linejoin="round"/>
<path d="M185.179 267.97C185.179 267.97 190.347 254.618 190.037 249.761C189.727 244.904 178.813 263.113 178.813 263.113L185.179 267.97Z" fill="#263238" stroke="#263238" stroke-linecap="round" stroke-linejoin="round"/>
<path d="M153.114 238.58L133.975 253.947L132.414 294.716L162.208 264.292C162.208 264.292 176.325 256.138 170.672 246.723C165.019 237.309 153.114 238.58 153.114 238.58Z" fill="#92E3A9" stroke="#263238" stroke-linecap="round" stroke-linejoin="round"/>
<path d="M103.553 207.835C103.553 207.835 104.586 213.539 106.281 213.891C107.976 214.242 112.833 218.365 113.866 214.573C114.9 210.78 111.448 204.238 108.699 203.556C105.95 202.874 103.553 207.835 103.553 207.835Z" fill="#263238" stroke="#263238" stroke-linecap="round" stroke-linejoin="round"/>
<path d="M133.667 220.071C133.667 220.071 142.451 278.719 142.13 283.111C141.81 287.503 137.749 291.895 132.416 296.287C127.084 300.679 125.182 297.858 121.751 287.823C118.32 277.789 125.513 221.952 125.513 221.952C125.513 221.952 120.18 224.773 117.359 222.892C114.538 221.011 109.825 217.88 107.324 217.56C104.823 217.239 98.8501 219.441 98.2197 217.56C97.5893 215.679 100.111 213.168 101.671 212.858C103.232 212.548 112.336 213.798 112.336 213.798C112.336 213.798 111.706 210.036 109.515 208.155C107.324 206.275 106.415 205.644 103.552 207.835C100.69 210.026 99.7906 212.227 97.9097 213.168C96.0288 214.108 94.458 211.287 96.0288 209.096C97.5997 206.905 101.671 203.763 104.493 200.312C107.314 196.86 109.825 196.86 112.967 198.741C116.109 200.622 121.751 204.394 128.024 208.776C129.836 210.035 131.302 211.729 132.288 213.703C133.274 215.676 133.748 217.866 133.667 220.071Z" fill="white" stroke="#263238" stroke-linecap="round" stroke-linejoin="round"/>
<path d="M146.84 219.399C146.84 219.399 154.363 250.402 153.733 254.536C153.102 258.67 149.341 262.07 152.172 265.201C155.004 268.332 173.182 266.141 179.145 263.951C185.108 261.76 189.479 254.226 189.81 250.774C190.141 247.323 190.12 240.44 190.12 240.44C190.12 240.44 200.785 237.929 200.455 229.775C200.124 221.621 193.861 222.241 193.861 222.241C193.861 222.241 197.623 216.598 193.231 209.385C188.839 202.172 175.352 201.541 164.067 205.623C157.048 208.339 151.033 213.149 146.84 219.399Z" fill="white" stroke="#263238" stroke-linecap="round" stroke-linejoin="round"/>
<path d="M187.307 226.034C187.307 226.034 187.307 246.103 186.366 250.836C185.426 255.569 182.605 256.799 181.344 256.489C180.083 256.179 166.287 246.155 163.155 245.824C160.024 245.493 154.061 251.776 154.061 251.776L153.627 251.921C153.767 252.806 153.805 253.704 153.741 254.598C153.121 258.731 149.349 262.131 152.18 265.263C155.012 268.394 173.19 266.203 179.153 264.012C185.116 261.821 189.487 254.288 189.818 250.836C190.149 247.384 190.128 240.502 190.128 240.502L189.818 226.034H187.307Z" fill="#263238" stroke="#263238" stroke-linecap="round" stroke-linejoin="round"/>
<path d="M160.95 228.225L160.33 244.853H167.854" stroke="#263238" stroke-linecap="round" stroke-linejoin="round"/>
<path d="M170.02 230.89C170.02 232.368 169.379 233.557 168.604 233.557C167.829 233.557 167.188 232.368 167.188 230.89C167.188 229.413 167.829 229.785 168.604 229.785C169.379 229.785 170.02 229.423 170.02 230.89Z" fill="#263238"/>
<path d="M157.505 230.891C157.505 232.369 156.865 233.557 156.09 233.557C155.315 233.557 154.674 232.369 154.674 230.891C154.674 229.413 155.449 230.002 156.234 230.002C157.02 230.002 157.505 229.423 157.505 230.891Z" fill="#263238"/>
<path d="M153.568 231.169L158.126 229.092" stroke="#263238" stroke-linecap="round" stroke-linejoin="round"/>
<path d="M166.845 229.092L171.609 231.169" stroke="#263238" stroke-linecap="round" stroke-linejoin="round"/>
<path d="M163.147 221.953C164.958 221.459 166.878 221.558 168.628 222.235C170.378 222.911 171.865 224.131 172.872 225.714" stroke="#263238" stroke-width="3" stroke-linecap="round" stroke-linejoin="round"/>
<path d="M157.823 221.952C156.3 222.02 154.839 222.575 153.654 223.534C152.469 224.494 151.623 225.808 151.24 227.284" stroke="#263238" stroke-width="3" stroke-linecap="round" stroke-linejoin="round"/>
<path d="M155.616 254.257L162.85 248.294L168.286 253.74C168.54 253.989 168.736 254.291 168.862 254.625C168.987 254.958 169.038 255.315 169.012 255.67C168.985 256.025 168.882 256.37 168.708 256.681C168.534 256.992 168.295 257.262 168.007 257.471C166.886 258.314 165.501 258.732 164.1 258.649C160.649 258.339 163.79 255.197 161.589 255.197C159.388 255.197 159.398 257.708 157.517 257.708C155.636 257.708 154.996 256.768 155.616 254.257Z" fill="white" stroke="#263238" stroke-linecap="round" stroke-linejoin="round"/>
<path d="M158.446 253.007C158.446 253.007 164.089 250.806 167.22 254.567" stroke="#263238" stroke-linecap="round" stroke-linejoin="round"/>
<path d="M166.286 233.867C166.286 233.867 166.917 236.967 172.879 237.949" stroke="#263238" stroke-linecap="round" stroke-linejoin="round"/>
<path d="M159.386 232.307C158.393 234.363 156.732 236.021 154.674 237.009" stroke="#263238" stroke-linecap="round" stroke-linejoin="round"/>
<path d="M182.278 209.716C182.278 209.716 172.243 216.95 155.936 220.05L139.628 223.15C139.628 223.15 136.796 217.198 138.367 212.816C139.938 208.434 142.501 206.853 142.501 206.853C142.501 206.853 136.228 206.543 139.68 203.753C143.131 200.963 150.345 199.671 150.345 199.671C150.345 199.671 140.3 198.11 145.632 193.398C150.965 188.685 170.104 190.297 170.104 190.297C170.104 190.297 165.712 184.335 172.605 184.335C179.498 184.335 184.841 189.037 184.841 189.037C184.841 189.037 184.21 184.965 187.032 187.156C189.853 189.347 192.685 194.059 192.685 194.059C192.685 194.059 205.231 193.119 203.97 196.57C202.709 200.022 197.697 200.022 197.697 200.022C199.382 200.57 200.83 201.677 201.799 203.16C202.769 204.643 203.203 206.413 203.029 208.176C202.719 214.759 197.387 222.913 197.387 222.913C197.387 222.913 189.863 229.816 187.352 227.935C184.841 226.054 185.471 216.95 185.471 216.95C185.471 216.95 180.139 222.913 179.198 219.461C178.258 216.009 182.278 209.716 182.278 209.716Z" fill="#263238" stroke="#263238" stroke-linecap="round" stroke-linejoin="round"/>
<path d="M381.174 217.332L378.073 207.69L391.508 200.797L395.993 212.857L381.174 217.332Z" fill="white" stroke="#263238" stroke-linecap="round" stroke-linejoin="round"/>
<path d="M386.34 206.998C386.34 206.998 382.558 210.099 379.799 210.791C377.04 211.483 375.665 209.406 376.357 207.691C377.05 205.975 373.939 203.206 370.498 199.764C367.057 196.323 365.672 189.43 370.157 186.671C374.642 183.911 384.274 175.303 388.066 169.795C391.859 164.286 401.501 162.561 404.601 162.561C407.702 162.561 406.668 167.387 401.16 175.303C395.652 183.219 391.167 192.53 391.167 194.597C391.167 196.664 395.641 197.697 395.641 200.798C395.641 203.898 386.34 206.998 386.34 206.998Z" fill="white" stroke="#263238" stroke-linecap="round" stroke-linejoin="round"/>
<path d="M370.498 199.763L371.965 201.221C373.744 199.238 375.224 197.007 376.357 194.596C379.179 188.706 377.174 184.582 375.624 182.567C373.897 184.067 372.07 185.448 370.157 186.701C365.672 189.429 367.057 196.322 370.498 199.763Z" fill="#A6A6A6" stroke="#263238" stroke-linecap="round" stroke-linejoin="round"/>
<path d="M404.6 162.561C400.247 162.779 396.004 163.999 392.199 166.126C394.535 167.521 399.433 170.425 403.061 172.44C406.864 166.24 407.308 162.561 404.6 162.561Z" fill="#A6A6A6" stroke="#263238" stroke-linecap="round" stroke-linejoin="round"/>
<path d="M299.187 248.676C299.187 248.676 319.163 248.676 333.631 250.743C348.1 252.81 400.123 269.696 400.123 269.696L376.354 215.606L396.33 208.723C396.33 208.723 430.434 277.963 431.467 281.746C432.5 285.528 433.534 291.739 429.059 295.873C427.656 297.095 426.008 298.003 424.226 298.538C422.444 299.073 420.569 299.221 418.725 298.973H297.12L299.187 248.676Z" fill="#263238" stroke="#263238" stroke-linecap="round" stroke-linejoin="round"/>
<path d="M179.829 356.329L190.163 376.947C190.479 377.583 190.967 378.119 191.572 378.494C192.176 378.868 192.873 379.066 193.584 379.065C194.088 379.065 194.586 378.966 195.051 378.773C195.517 378.581 195.939 378.298 196.295 377.942C196.651 377.586 196.934 377.163 197.126 376.698C197.319 376.233 197.418 375.735 197.418 375.231V353.746L179.829 356.329Z" fill="#263238" stroke="#263238" stroke-linecap="round" stroke-linejoin="round"/>
<path d="M438.194 356.329L427.859 376.947C427.543 377.583 427.055 378.119 426.451 378.494C425.847 378.868 425.15 379.066 424.439 379.065C423.422 379.065 422.446 378.661 421.727 377.942C421.008 377.223 420.604 376.248 420.604 375.231V353.746L438.194 356.329Z" fill="#263238" stroke="#263238" stroke-linecap="round" stroke-linejoin="round"/>
<path d="M205.207 358.397H413.548L435.085 296.39H186.543L205.207 358.397Z" fill="#616161" stroke="#263238" stroke-linecap="round" stroke-linejoin="round"/>
<path d="M205.218 358.397C205.218 352.548 193.726 303.563 192.238 290.19C190.687 276.238 183.453 263.837 171.052 263.32C158.651 262.804 134.882 264.354 140.566 282.956C145.805 300.09 171.207 350.543 175.176 358.397H205.218Z" fill="#616161" stroke="#263238" stroke-linecap="round" stroke-linejoin="round"/>
<path d="M413.556 358.397C413.556 352.548 425.047 303.563 426.536 290.19C428.086 276.238 435.32 263.837 447.721 263.32C460.122 262.804 483.891 264.354 478.208 282.956C472.978 300.09 447.566 350.543 443.598 358.397H413.556Z" fill="#616161" stroke="#263238" stroke-linecap="round" stroke-linejoin="round"/>
<path d="M235.291 365.827C235.291 365.827 230.589 365.827 231.53 367.078C232.47 368.328 236.862 370.178 236.862 370.178L234.351 373.278L240.624 375.789V369.248L235.291 365.827Z" fill="white" stroke="#263238" stroke-linecap="round" stroke-linejoin="round"/>
<path d="M240.62 366.447C240.62 366.447 232.156 360.494 233.386 364.256C234.616 368.018 238.718 369.588 238.718 369.588L234.089 374.921C234.089 374.921 239.731 377.742 240.672 375.861C241.667 373.3 242.506 370.681 243.183 368.018L240.62 366.447Z" fill="white" stroke="#263238" stroke-linecap="round" stroke-linejoin="round"/>
<path d="M244.698 368.958C244.698 368.958 238.425 360.174 238.105 362.685C237.785 365.196 240.616 369.278 240.616 369.278L237.795 373.981C237.795 373.981 240.616 378.683 241.877 376.802C243.138 374.921 244.698 368.958 244.698 368.958Z" fill="white" stroke="#263238" stroke-linecap="round" stroke-linejoin="round"/>
<path d="M210.825 291.802C210.825 291.802 214.587 310.941 214.587 311.882V372.72C214.587 375.552 213.967 376.492 216.788 378.683C219.609 380.874 242.19 379.944 243.13 378.683C244.071 377.422 246.892 371.449 246.892 369.899C246.892 368.349 245.011 363.316 243.44 362.375C241.87 361.435 242.5 364.566 242.5 364.566L243.13 369.589L240.94 372.689L232.155 369.589C229.518 368.655 226.639 368.655 224.002 369.589C224.002 369.589 236.227 311.561 235.607 308.109C234.987 304.658 230.274 288.04 230.274 288.04L210.825 291.802Z" fill="white" stroke="#263238" stroke-linecap="round" stroke-linejoin="round"/>
<path d="M212.813 300.4L231.932 294.633L230.722 291.894L210.994 294.933L212.813 300.4Z" fill="#263238" stroke="#263238" stroke-linecap="round" stroke-linejoin="round"/>
<path d="M201.416 268.591L209.88 296.494L241.555 291.161C241.555 291.161 231.52 262.628 225.247 255.725C221.136 251.379 216.223 247.87 210.779 245.39" fill="#92E3A9"/>
<path d="M201.416 268.591L209.88 296.494L241.555 291.161C241.555 291.161 231.52 262.628 225.247 255.725C221.136 251.379 216.223 247.87 210.779 245.39" stroke="#263238" stroke-linecap="round" stroke-linejoin="round"/>
<path d="M380.839 290.366C380.839 290.366 384.632 278.998 387.381 277.272C390.13 275.546 395.307 276.239 397.374 277.613C399.441 278.988 408.742 283.132 412.876 284.847C417.009 286.563 421.143 288.981 422.177 292.081C423.21 295.182 424.936 298.282 421.836 298.633C418.735 298.985 409.434 296.215 403.575 296.215C397.715 296.215 391.173 296.907 391.173 296.907L380.498 292.081L380.839 290.366Z" fill="white" stroke="#263238" stroke-linecap="round" stroke-linejoin="round"/>
<path d="M417.705 287.296C416.134 290.459 414.295 294.623 413.892 297.579C417.271 298.22 420.309 298.798 421.839 298.612C424.939 298.261 423.213 295.161 422.18 292.06C421.57 290.242 419.855 288.64 417.705 287.296Z" fill="#A6A6A6" stroke="#263238" stroke-linecap="round" stroke-linejoin="round"/>
<path d="M400.228 279.153C399.243 278.697 398.287 278.183 397.365 277.613C395.298 276.239 390.131 275.546 387.372 277.272C386.204 278.006 384.84 280.486 383.672 283.09C387.806 283.535 394.006 283.648 397.706 281.024C398.667 280.372 399.494 279.752 400.228 279.153Z" fill="#A6A6A6" stroke="#263238" stroke-linecap="round" stroke-linejoin="round"/>
<path d="M300.564 280.372C300.564 280.372 312.625 341.345 314.351 350.987C316.076 360.629 319.166 365.455 320.551 365.114C321.936 364.773 393.574 296.566 393.574 296.566L379.106 290.014L337.768 316.542L341.22 262.111" fill="#263238"/>
<path d="M300.564 280.372C300.564 280.372 312.625 341.345 314.351 350.987C316.076 360.629 319.166 365.455 320.551 365.114C321.936 364.773 393.574 296.566 393.574 296.566L379.106 290.014L337.768 316.542L341.22 262.111" stroke="#263238" stroke-linecap="round" stroke-linejoin="round"/>
</svg>
