<svg width="88" height="108" viewBox="0 0 88 108" fill="none" xmlns="http://www.w3.org/2000/svg">
<path d="M0 21.1177C0 20.7654 0 20.4339 0 20.0817C0.103604 20.0195 0.124324 19.8952 0.145045 19.7916C0.186487 19.5636 0.26937 19.3357 0.352253 19.1285C0.76667 18.1339 1.51262 17.4501 2.42434 16.9321C5.28381 15.3366 8.14328 13.7618 11.0028 12.1663C16.5352 9.09964 22.0677 6.03296 27.6208 2.96628C29.1749 2.09601 30.7911 1.30862 32.3245 0.396901C32.6353 0.210413 32.9875 0.10681 33.3605 0.0239263C33.7542 -0.0175153 34.1479 0.00320552 34.5416 0.0239263C36.0749 0.210413 37.6083 0.417621 39.1416 0.604109C41.4209 0.8942 43.7209 1.16357 46.0002 1.43294C48.2795 1.72303 50.5795 2.01312 52.8588 2.28249C54.7651 2.51042 56.6507 2.73835 58.557 2.96628C61.0228 3.27709 63.4886 3.5879 65.9544 3.89872C68.0265 4.14737 70.0985 4.39602 72.1499 4.66539C72.5643 4.72755 72.9787 4.74827 73.3724 4.87259C73.8076 5.01764 74.1805 5.22485 74.4292 5.61854C74.8229 6.30233 74.885 7.37981 74.0355 8.08432C73.8076 8.2708 73.5589 8.41585 73.2895 8.56089C71.7562 9.32756 70.2436 10.1564 68.7517 10.9852C60.5877 15.6267 52.3615 20.1853 44.1353 24.7231C42.5813 25.5727 41.0687 26.4637 39.4939 27.2511C38.2092 27.8934 36.8831 28.3285 35.4533 28.3078C34.4794 28.3078 33.4848 28.2042 32.511 28.0799C30.5632 27.852 28.6154 27.5619 26.6677 27.3547C25.0722 27.1889 23.4974 27.0438 21.9019 27.0646C21.7569 27.0646 21.6325 27.0438 21.5082 27.0024C21.3217 26.9402 21.2388 26.7952 21.1974 26.6294C21.156 26.4637 21.2596 26.3393 21.3839 26.2565C21.5704 26.1321 21.7776 26.0078 21.9641 25.8628C24.8443 23.8528 27.7245 21.8636 30.6046 19.8537C33.3812 17.9267 36.1578 15.9789 38.9344 14.0519C39.1209 13.9276 39.3074 13.7825 39.4524 13.596C39.9912 12.9123 39.9497 11.6069 39.3696 10.9645C39.3281 10.9231 39.2867 10.8816 39.2245 10.8402C38.893 10.633 38.5614 10.4258 38.2092 10.2393C37.6083 9.92847 37.0281 9.94919 36.4479 10.26C36.0749 10.4672 35.702 10.6951 35.3497 10.9438C32.4074 12.9951 29.4857 15.0465 26.5434 17.0979C22.5857 19.8537 18.6695 22.6718 14.6703 25.3447C14.1938 25.6556 13.9037 26.0907 13.7172 26.6294C12.9505 28.7429 12.764 30.9186 13.137 33.1565C13.3235 34.3376 13.9037 35.2078 15.0433 35.6637C15.4785 35.8502 15.8514 36.1403 16.1208 36.5133C17.0532 37.7565 17.3433 39.1241 16.846 40.5952C16.5559 41.4448 16.5145 42.2944 16.7839 43.1439C16.9911 43.807 17.1776 44.4493 17.3019 45.1331C17.364 45.4854 17.4262 45.8376 17.5091 46.2727C17.737 46.0034 17.9442 45.7962 18.1307 45.5682C19.1253 44.4493 20.1406 43.3511 21.0316 42.1493C21.3632 41.7142 21.5911 41.2376 21.7361 40.6989C22.1091 39.3934 21.9641 38.088 21.4668 36.8448C20.7208 35.0421 19.4983 33.7367 17.592 33.1358C17.3848 33.0736 17.1983 32.9907 17.0118 32.8871C16.6181 32.6592 16.4316 32.3484 16.4316 31.8925C16.4316 31.6231 16.473 31.3538 16.6181 31.1258C17.2397 30.1312 18.1514 29.5925 19.3325 29.5511C20.037 29.5303 20.7623 29.6339 21.4668 29.6754C23.0623 29.779 24.6578 29.9033 26.2326 30.0276C27.3929 30.1105 28.5326 30.1934 29.6929 30.2763C31.2677 30.3799 32.8425 30.5042 34.438 30.6078C36.0335 30.7114 37.629 30.815 39.2038 30.9601C39.6389 31.0015 40.0533 30.9186 40.447 30.7114C40.7993 30.5042 41.1515 30.3177 41.5038 30.1105C47.948 26.4015 54.4129 22.7754 60.7742 18.9213C61.0643 18.7348 61.3751 18.6105 61.7066 18.5069C63.0327 18.1132 64.2553 18.6105 64.8976 19.833C65.0634 20.1438 65.1877 20.4546 65.2499 20.7862C65.6643 22.7546 66.203 24.6817 66.7625 26.6087C67.0733 27.6862 67.4048 28.7637 67.6949 29.8619C67.8814 30.5457 67.6949 30.9808 67.1147 31.3952C66.8454 31.5817 66.576 31.7889 66.3273 31.9961C65.8922 32.3691 65.4571 32.7213 64.9805 33.0114C64.8769 33.0736 64.7526 33.1772 64.6697 33.2601C64.4832 33.4673 64.4832 33.6123 64.6904 33.7781C64.8562 33.9231 65.0427 34.006 65.2291 34.0889C69.7048 36.1403 73.6003 39.0205 76.9778 42.6052C80.3761 46.2313 83.0698 50.3133 84.8932 54.934C86.0328 57.835 86.7788 60.8395 87.1932 63.9061C87.3797 65.3566 87.5247 66.8071 87.504 68.2782C87.504 69.1692 87.504 70.0602 87.504 70.9305C87.504 72.008 87.4418 73.0647 87.2761 74.1215C87.1103 75.1783 86.9653 76.2557 86.7374 77.3125C86.468 78.5972 85.722 79.5296 84.5202 80.0684C83.8572 80.3585 83.1734 80.5035 82.4481 80.5035C76.2941 80.5035 70.14 80.5035 64.0066 80.5035C63.6958 80.5035 63.385 80.5242 63.0949 80.5035C62.0796 80.4621 61.1679 80.7522 60.2976 81.2702C57.2931 83.1143 54.0813 84.3576 50.5588 84.7305C48.5696 84.9378 46.6011 84.8342 44.6326 84.4405C42.3741 83.9846 40.2398 83.1765 38.2092 82.0783C37.3389 81.6017 36.4686 81.1251 35.6812 80.5035C34.8524 79.8404 34.2308 79.0323 34.0029 77.9756C33.7957 77.0639 33.7957 76.1521 34.0236 75.2404C34.3758 73.8107 35.2668 72.899 36.6758 72.4431C37.2975 72.2359 37.9398 72.1945 38.6029 72.1738C39.7011 72.153 40.82 72.1738 41.9182 72.1738C46.2074 72.1738 50.4759 72.1738 54.7651 72.1738C62.0381 72.1738 69.3319 72.1738 76.6049 72.1738C77.2472 72.1738 77.9103 72.2359 78.5526 72.2359C79.1121 72.2359 79.2986 72.0494 79.3193 71.49C79.3193 71.3242 79.3193 71.1791 79.3193 71.0134C79.3193 70.744 79.3193 70.4746 79.3193 70.2053C79.34 69.1485 79.34 68.0918 79.2779 67.035C79.1535 65.2323 78.8841 63.4503 78.4283 61.7097C76.4184 54.2503 72.2328 48.2827 65.8715 43.8899C63.385 42.17 60.6498 40.8853 57.7282 40.0565C57.0651 39.87 56.4435 39.9322 55.8633 40.2844C55.7804 40.3259 55.7183 40.3673 55.6354 40.4088C50.5381 43.434 45.0471 45.2367 39.1209 45.6511C36.5722 45.8376 34.0236 45.734 31.4749 45.4025C31.1019 45.361 30.7497 45.361 30.3767 45.4232C29.6929 45.5268 29.1542 45.8791 28.6569 46.3349C26.647 48.1583 24.865 50.2097 23.3731 52.489C20.5343 56.7989 18.9181 61.544 18.4622 66.6827C18.3379 68.1954 18.3379 69.6872 18.4208 71.1999C18.5451 73.044 18.8145 74.8467 19.2911 76.6494C20.7623 82.3477 23.6425 87.2378 27.8902 91.299C33.4641 96.6243 40.1362 99.3594 47.8029 99.6495C50.8074 99.7738 53.7498 99.4009 56.6507 98.6342C62.4525 97.0801 67.3841 94.1171 71.4247 89.6414C71.7769 89.2477 72.1499 88.854 72.5643 88.481C73.5175 87.6315 74.6157 87.217 75.9211 87.445C76.9778 87.6315 77.8895 88.0666 78.5319 88.9369C79.34 89.9936 79.6715 91.1747 79.3607 92.5008C79.195 93.1846 78.8427 93.7648 78.3869 94.3036C74.9886 98.3856 70.8652 101.556 66.1201 103.918C61.3129 106.301 56.2363 107.648 50.8696 107.938C50.6417 107.938 50.4137 107.876 50.2065 108C49.2741 108 48.3417 108 47.4092 108C47.202 107.876 46.9741 107.938 46.7462 107.938C45.9173 107.876 45.1092 107.814 44.3011 107.731C42.2912 107.503 40.3227 107.109 38.3957 106.57C31.8065 104.705 26.1082 101.349 21.3217 96.4585C18.255 93.3297 15.7064 89.8071 13.8001 85.8495C11.5001 81.1251 10.319 76.1107 10.1532 70.8683C10.0703 68.3197 10.2154 65.7917 10.5883 63.2638C10.6298 62.9116 10.7127 62.5593 10.6712 62.207C10.6505 62.207 10.6298 62.1863 10.6298 62.207C10.5262 62.2485 10.4226 62.2899 10.319 62.3314C9.6559 62.6007 8.97211 62.7458 8.26761 62.58C7.25229 62.3314 6.40273 61.8133 5.98832 60.798C5.71894 60.1142 5.6775 59.4097 5.84327 58.7052C6.02976 57.8971 6.52706 57.3377 7.25229 56.9647C9.67662 55.7214 11.1685 53.7737 11.7901 51.1421C12.0595 49.9818 12.1424 48.8214 12.1838 47.6403C12.2046 46.77 12.1217 45.8998 11.9145 45.0502C11.7487 44.3664 11.355 43.8691 10.7127 43.5583C10.5469 43.4754 10.3811 43.4133 10.2154 43.3304C8.14328 42.2944 7.27301 39.7457 8.26761 37.5493C8.49553 37.052 8.80634 36.6169 9.17932 36.2232C9.63518 35.7466 9.78022 35.1871 9.6559 34.5241C9.51085 33.7781 9.38653 33.0322 9.32437 32.2655C9.11716 30.152 9.30365 28.1006 10.0289 26.1114C10.0703 25.9871 10.1118 25.8628 10.1325 25.7177C10.1532 25.4069 9.98743 25.1997 9.67662 25.179C9.24148 25.1375 8.80634 25.0754 8.35049 25.0339C6.75498 24.8889 5.1802 24.7024 3.60542 24.5159C1.80271 24.3087 0.476578 22.9204 0.145045 21.3663C0.124324 21.3249 0.103604 21.2006 0 21.1177Z" fill="#92E3A9"/>
<path d="M48.8058 45.6123C52.4527 45.6123 55.6022 46.3997 58.5653 47.8916C61.5077 49.3835 64.077 51.4141 66.3978 53.7556C66.8329 54.1907 67.2266 54.688 67.5789 55.206C69.1536 57.5682 67.9104 60.7592 65.1338 61.4015C63.3933 61.7952 61.9014 61.3394 60.741 59.9718C58.9383 57.8583 56.804 56.1385 54.2347 55.0403C52.6184 54.3357 50.9401 53.9421 49.1788 53.9213C46.7959 53.8799 44.5788 54.5015 42.486 55.6412C41.4914 56.1799 40.5589 56.843 39.6679 57.5682C39.3157 57.8376 39.0256 58.1691 38.7148 58.4799C38.1346 59.0601 37.5337 59.6195 36.8913 60.1376C35.6688 61.1736 34.2805 61.4637 32.7679 60.9042C31.2553 60.3448 30.3436 59.2258 30.0949 57.6304C29.8877 56.3664 30.2607 55.2267 31.1517 54.2736C31.7526 53.6105 32.3949 52.9889 33.0787 52.4087C34.84 50.8961 36.6634 49.5078 38.6733 48.3474C40.9319 47.0628 43.3562 46.2339 45.9256 45.861C46.9824 45.6952 48.0599 45.6123 48.8058 45.6123Z" fill="#92E3A9"/>
</svg>
