<svg width="202" height="201" viewBox="0 0 202 201" fill="none" xmlns="http://www.w3.org/2000/svg">
<path d="M85.3434 170.682C104.219 170.682 119.521 165.746 119.521 159.656C119.521 153.567 104.219 148.631 85.3434 148.631C66.4678 148.631 51.166 153.567 51.166 159.656C51.166 165.746 66.4678 170.682 85.3434 170.682Z" fill="#92E3A9"/>
<path opacity="0.5" d="M85.3434 170.682C104.219 170.682 119.521 165.746 119.521 159.656C119.521 153.567 104.219 148.631 85.3434 148.631C66.4678 148.631 51.166 153.567 51.166 159.656C51.166 165.746 66.4678 170.682 85.3434 170.682Z" fill="white"/>
<path d="M163.907 42.0969H165.04C166.181 42.0969 167.969 41.4221 166.505 40.8013C165.04 40.1805 160.661 39.9848 160.175 40.4707C159.689 40.9565 155.627 42.4208 155.627 42.4208V42.4883C152.847 42.3263 145.593 41.8944 142.037 41.5841C139.069 41.3689 136.086 41.4344 133.13 41.7797L129.648 40.0388L125.377 47.7853C125.377 47.7853 127.705 50.3022 129.642 50.3022C131.578 50.3022 136.997 49.7219 142.415 49.1348C147.834 48.5477 157.328 45.8486 157.328 45.8486V45.7879C159.455 46.18 161.609 46.4056 163.772 46.4627C168.158 46.6246 168.158 45.9768 168.495 45.3223C168.675 45.002 168.787 44.6484 168.826 44.2832L163.907 42.0969Z" fill="white" stroke="#263238" stroke-linecap="round" stroke-linejoin="round"/>
<path d="M163.908 42.0969C163.908 42.0969 161.026 43.5275 160.439 43.8648C159.791 44.101 159.105 44.2176 158.415 44.209" fill="white"/>
<path d="M163.908 42.0969C163.908 42.0969 161.026 43.5275 160.439 43.8648C159.791 44.101 159.105 44.2176 158.415 44.209" stroke="#263238" stroke-linecap="round" stroke-linejoin="round"/>
<path d="M67.4129 148.428L64.228 155.594C62.6355 159.177 62.6355 165.345 66.2523 164.947C69.8691 164.549 69.8354 154.596 70.4292 152.207C71.023 149.818 71.2254 149.029 71.2254 149.029L67.4129 148.428Z" fill="#92E3A9" stroke="#263238" stroke-linecap="round" stroke-linejoin="round"/>
<path d="M69.4645 159.13C66.7654 163.854 65.8612 163.786 64.6196 161.829C63.9853 160.844 63.7964 158.773 63.7626 156.89C62.683 160.486 63.0406 165.304 66.2188 164.953C68.0205 164.744 68.9449 162.038 69.4645 159.13Z" fill="white" stroke="#263238" stroke-linecap="round" stroke-linejoin="round"/>
<path d="M100.046 148.428C100.046 148.428 97.0633 152.605 97.4614 154.596C97.8595 156.586 99.8501 155.992 102.036 157.585C104.223 159.177 104.223 159.974 106.611 161.559C109 163.145 112.583 163.152 111.389 160.169C110.194 157.187 105.808 152.828 105.619 152.011C105.396 151.268 105.13 150.538 104.823 149.825L100.046 148.428Z" fill="#92E3A9" stroke="#263238" stroke-linecap="round" stroke-linejoin="round"/>
<path d="M102.052 155.682C100.674 154.63 99.2086 153.695 97.673 152.888C97.4668 153.432 97.395 154.018 97.4638 154.596C97.862 156.586 99.8525 155.992 102.039 157.585C104.225 159.177 104.225 159.974 106.614 161.559C109.003 163.145 112.586 163.152 111.391 160.169C107.7 162.612 105.588 158.287 102.052 155.682Z" fill="white" stroke="#263238" stroke-linecap="round" stroke-linejoin="round"/>
<path d="M87.1115 80.9708C87.1115 80.9708 85.7214 91.0924 83.5284 98.4812C81.3354 105.87 79.554 112.415 78.7577 114.602C77.9615 116.788 72.9884 124.156 72.01 129.723C71.0315 135.29 67.8331 147.632 67.435 148.428C67.0369 149.224 69.4593 152.011 71.4162 152.011C73.373 152.011 87.3341 126.14 89.3247 122.76C91.3153 119.379 99.5881 98.38 101.181 96.187C102.031 94.9429 103.251 93.9984 104.669 93.4879C104.669 93.4879 107.031 109.008 107.031 113.414C107.031 117.82 104.845 117.591 103.252 122.766C101.66 127.942 100.067 147.841 100.067 148.408C100.067 148.975 101.066 150.203 102.456 150.797C103.405 151.162 104.427 151.298 105.438 151.195C105.438 151.195 111.41 133.09 113.799 127.517C116.188 121.943 119.197 114.784 119.373 110.6C119.548 106.417 121.356 88.9129 116.984 77.968C116.964 77.9883 101.046 84.952 87.1115 80.9708Z" fill="#263238" stroke="#263238" stroke-linecap="round" stroke-linejoin="round"/>
<path d="M98.2584 25.7066C98.2584 25.7066 91.5107 29.7553 87.4148 33.8444C83.5011 37.7581 83.9262 44.101 84.5132 48.5545C85.1003 53.0081 87.2124 71.0178 87.2124 72.1717C87.2124 73.3256 86.8277 82.4351 86.8277 82.4351C90.7336 84.614 95.1356 85.7482 99.608 85.728C107.159 85.728 117.827 79.7225 117.827 79.7225C117.827 79.7225 115.31 65.397 115.31 61.3281C115.31 57.2592 117.051 38.8715 117.051 38.8715C117.051 38.8715 119.959 44.4856 121.316 45.8419L125.189 49.7152L132.125 40.2278C132.125 40.2278 123.603 31.7121 119.534 28.2235C115.465 24.7349 114.23 23.0345 108.265 23.3044C104.804 23.4349 101.402 24.2514 98.2584 25.7066Z" fill="#92E3A9" stroke="#263238" stroke-linecap="round" stroke-linejoin="round"/>
<path d="M116.941 31.9078L117.036 38.8783L119.283 33.7297" stroke="#263238" stroke-linecap="round" stroke-linejoin="round"/>
<path d="M114.074 51.4291C114.074 51.4291 107.043 61.8409 103.662 64.1891" stroke="#263238" stroke-linecap="round" stroke-linejoin="round"/>
<path d="M104.394 41.4896C108.523 42.522 109.556 38.1158 109.556 32.7175C109.499 29.548 109.018 26.4003 108.125 23.3584C104.712 23.5026 101.361 24.3141 98.2601 25.7471C98.2601 25.7471 97.7 26.0845 96.8161 26.6513C96.4581 27.8788 96.4888 29.1869 96.9038 30.3963C98.1926 34.4855 100.257 40.4235 104.394 41.4896Z" fill="white" stroke="#263238" stroke-linecap="round" stroke-linejoin="round"/>
<path d="M92.6908 58.9461C95.1242 61.2898 97.3797 63.8114 99.4386 66.4901C102.212 70.2621 107.772 74.4795 107.772 74.4795C109.738 74.0489 111.731 73.7536 113.737 73.5955C115.525 73.5955 122.077 79.1489 122.077 79.1489C122.077 79.1489 121.672 80.7009 120.282 80.6942C118.892 80.6874 113.13 79.8035 112.536 79.8035C111.942 79.8035 109.162 80.6807 106.969 79.8035C104.776 78.9263 102.408 76.4768 102.408 76.4768C102.408 76.4768 91.6786 70.2554 88.3047 67.1514C86.3414 65.4021 84.8435 63.1923 83.9457 60.7208L83.75 57.8395L92.6908 58.9461Z" fill="white" stroke="#263238" stroke-linecap="round" stroke-linejoin="round"/>
<path d="M87.4164 33.8445C86.4251 34.351 85.5519 35.0613 84.8542 35.9288C84.1565 36.7963 83.6499 37.8014 83.3678 38.8783C82.4028 42.5559 83.1788 47.1983 83.1788 49.3306C83.1788 51.4629 83.9481 59.594 83.9481 59.594C85.5937 60.5444 87.4471 61.0773 89.3463 61.1459C91.3344 61.042 93.2646 60.4411 94.9604 59.3983L95.1561 43.5208" fill="#92E3A9"/>
<path d="M87.4164 33.8445C86.4251 34.351 85.5519 35.0613 84.8542 35.9288C84.1565 36.7963 83.6499 37.8014 83.3678 38.8783C82.4028 42.5558 83.1788 47.1983 83.1788 49.3306C83.1788 51.4629 83.9481 59.594 83.9481 59.594C85.5937 60.5444 87.4471 61.0773 89.3463 61.1459C91.3344 61.042 93.2646 60.4411 94.9604 59.3983L95.1561 43.5208" stroke="#263238" stroke-linecap="round" stroke-linejoin="round"/>
<path d="M98.3135 27.1237C98.9883 29.9101 99.8911 32.6364 101.013 35.2749C102.774 39.2696 105.648 39.7487 106.606 37.5085C107.565 35.2682 107.727 30.8012 107.727 30.8012C107.727 30.8012 105.028 32.2385 102.612 30.4773C100.196 28.7161 98.3135 27.1237 98.3135 27.1237Z" fill="white" stroke="#263238" stroke-linecap="round" stroke-linejoin="round"/>
<path d="M111.325 17.5013C111.325 17.5013 113.727 16.2192 114.206 14.4648C114.685 12.7104 113.727 11.9074 113.727 11.9074C113.727 11.9074 116.763 10.3082 115.643 7.58885C114.523 4.8695 107.161 0.557681 101.088 1.03677C95.0154 1.51586 95.4945 5.83443 95.4945 5.83443C95.4945 5.83443 92.458 6.63067 92.458 9.20832C92.458 11.786 92.9371 15.7604 94.6983 18.1559C96.4594 20.5513 98.0721 17.6768 99.0101 16.2395C99.948 14.8022 100.13 13.203 102.526 14.4851C104.921 15.7671 110.198 15.9223 110.198 15.9223L111.325 17.5013Z" fill="#263238" stroke="#263238" stroke-linecap="round" stroke-linejoin="round"/>
<path d="M113.665 8.42555C113.362 8.00295 113.001 7.62576 112.592 7.30542" stroke="white" stroke-width="0.75" stroke-linecap="round" stroke-linejoin="round"/>
<path d="M97.5098 7.6698C97.5098 7.6698 105.303 13.6078 109.035 13.2637C111.653 13.0275 114.19 11.705 114.177 9.88982" stroke="white" stroke-width="0.75" stroke-linecap="round" stroke-linejoin="round"/>
<path d="M96.489 8.52002C96.489 8.52002 99.3703 10.5443 98.1827 12.4202C96.9951 14.2961 94.4512 14.1139 94.4512 14.1139" stroke="white" stroke-width="0.75" stroke-linecap="round" stroke-linejoin="round"/>
<path d="M96.3039 15.9021C96.3039 15.9021 96.1487 18.2976 95.6696 17.9804C95.1905 17.6633 94.0704 15.423 93.7465 13.9858C93.4226 12.5485 91.9921 14.6201 92.3092 17.9804C92.4035 18.9304 92.7935 19.8269 93.4242 20.5435C94.0549 21.2602 94.8945 21.7609 95.8248 21.9751C95.8248 21.9751 98.8613 29.4854 101.898 31.7189C104.934 33.9524 107.175 32.3599 108.612 29.8025C110.049 27.2451 111.81 13.9858 111.81 13.9858C109.327 14.6189 106.713 14.5063 104.293 13.6619C102.075 12.7931 100.021 11.5516 98.2203 9.99109C98.2203 9.99109 100.454 12.8656 98.8546 14.141C98.062 14.8074 97.2079 15.3971 96.3039 15.9021Z" fill="white" stroke="#263238" stroke-linecap="round" stroke-linejoin="round"/>
<path d="M106.367 20.0587C106.367 20.0587 107.649 24.0534 106.846 24.5325C106.043 25.0116 104.612 24.5325 104.612 24.5325" stroke="#263238" stroke-linecap="round" stroke-linejoin="round"/>
<path d="M102.221 26.125C102.221 26.125 103.334 28.2033 106.533 27.2451" stroke="#263238" stroke-linecap="round" stroke-linejoin="round"/>
<path d="M103.334 19.9777C103.334 20.6525 103.084 21.1721 102.774 21.1721C102.464 21.1721 102.221 20.639 102.221 19.9777C102.221 19.3164 102.47 18.7766 102.774 18.7766C103.078 18.7766 103.334 19.3164 103.334 19.9777Z" fill="#263238"/>
<path d="M108.689 19.7349C108.689 20.4097 108.44 20.936 108.129 20.936C107.819 20.936 107.569 20.3962 107.569 19.7349C107.569 19.0736 107.819 18.5405 108.129 18.5405C108.44 18.5405 108.689 19.0736 108.689 19.7349Z" fill="#263238"/>
<path d="M100.461 17.3393C100.827 16.9123 101.306 16.5963 101.842 16.4269C102.379 16.2576 102.952 16.2417 103.497 16.3811" stroke="#263238" stroke-linecap="round" stroke-linejoin="round"/>
<path d="M107.157 16.6984C107.157 16.6984 109.391 15.9021 109.715 18.2976" stroke="#263238" stroke-linecap="round" stroke-linejoin="round"/>
<path d="M35.1735 201C54.0492 201 69.351 196.063 69.351 189.974C69.351 183.885 54.0492 178.948 35.1735 178.948C16.2979 178.948 0.996094 183.885 0.996094 189.974C0.996094 196.063 16.2979 201 35.1735 201Z" fill="#92E3A9"/>
<path opacity="0.5" d="M35.1735 201C54.0492 201 69.351 196.063 69.351 189.974C69.351 183.885 54.0492 178.948 35.1735 178.948C16.2979 178.948 0.996094 183.885 0.996094 189.974C0.996094 196.063 16.2979 201 35.1735 201Z" fill="white"/>
<path d="M65.6789 24.3772C65.6261 25.3233 65.4883 26.2628 65.2673 27.1843C64.8071 28.304 64.2494 29.381 63.6006 30.403L68.9988 37.0563C68.9988 37.0563 70.5575 33.9388 71.3875 33.5204C72.19 33.2413 73.0345 33.1021 73.8842 33.1088C73.0642 30.6603 71.947 28.3216 70.5575 26.1451C68.3848 22.8185 66.5156 22.8185 65.6789 24.3772Z" fill="white" stroke="#263238" stroke-linecap="round" stroke-linejoin="round"/>
<path d="M80.0283 12.2178C80.0283 12.2178 81.7895 12.2178 83.4562 9.2083C85.1229 6.1988 82.3091 2.97337 75.6625 2.03543C69.016 1.09749 60.8174 3.1758 58.4085 9.10034C55.9995 15.0249 60.1764 22.5959 62.7743 24.4785C65.3722 26.3611 67.2413 25.3152 68.1725 24.6877C69.1037 24.0601 69.0025 22.5082 69.3129 22.4002C69.6233 22.2922 70.6624 23.9589 72.3291 22.7173C73.9958 21.4757 72.5383 19.0803 74.097 17.9332C75.6558 16.786 77.0053 16.6848 76.9041 14.8157C76.9027 14.0091 76.7961 13.206 76.587 12.427L80.0283 12.2178Z" fill="#263238" stroke="#263238" stroke-linecap="round" stroke-linejoin="round"/>
<path d="M60.3681 15.9155C60.0266 16.3865 59.7959 16.9286 59.6934 17.5012" stroke="white" stroke-width="0.75" stroke-linecap="round" stroke-linejoin="round"/>
<path d="M79.0292 5.80743C79.0292 5.80743 81.5731 5.47004 79.7039 7.83176C77.8348 10.1935 74.9805 10.3689 70.3785 10.3689C67.3218 10.3689 63.7252 12.3393 61.6064 14.4581" stroke="white" stroke-width="0.75" stroke-linecap="round" stroke-linejoin="round"/>
<path d="M71.5684 13.9452C71.5684 13.9452 63.4306 14.9641 60.8867 18.8576" stroke="white" stroke-width="0.75" stroke-linecap="round" stroke-linejoin="round"/>
<path d="M63.2966 27.8051C63.2966 27.8051 65.4829 29.8834 68.2832 32.7917C71.0835 35.6999 74.6261 39.5394 74.6261 39.5394C74.6261 39.5394 70.3615 40.5786 70.0511 40.6865C69.7407 40.7945 60.2871 30.187 60.2871 30.187L63.2966 27.8051Z" fill="white" stroke="#263238" stroke-linecap="round" stroke-linejoin="round"/>
<path d="M16.5828 164.974C16.5828 164.974 10.8742 166.607 9.90247 168.01C8.93079 169.414 10.9821 175.122 10.7662 178.577C10.5503 182.032 10.0914 183.301 11.0901 184.286C12.0887 185.271 16.0497 187.525 18.3169 186.877C20.5842 186.229 18.101 183.645 17.993 182.241C17.8851 180.838 20.0174 171.445 20.1928 170.912C20.3682 170.379 17.8648 166.02 16.5828 164.974Z" fill="#92E3A9" stroke="#263238" stroke-linecap="round" stroke-linejoin="round"/>
<path d="M15.9421 183.307C15.6182 182.444 17.4536 173.496 16.0501 169.717C15.5328 168.196 14.4572 166.927 13.0406 166.168C11.691 166.715 10.3415 167.376 9.90286 167.997C8.93793 169.394 10.9825 175.109 10.7666 178.564C10.5506 182.019 10.0918 183.287 11.0905 184.272C12.0891 185.258 16.0501 187.511 18.3173 186.863C18.5684 186.802 18.8003 186.679 18.9921 186.506C18.1284 185.743 16.1918 183.975 15.9421 183.307Z" fill="white" stroke="#263238" stroke-linecap="round" stroke-linejoin="round"/>
<path d="M18.4388 186.816C17.0892 186.297 15.2741 185.095 14.8625 183.955C14.3294 182.444 15.6182 175.217 14.5453 170.689C13.8705 167.99 12.521 167.133 11.4548 166.876C10.8632 167.134 10.3339 167.516 9.90286 167.997C8.93793 169.393 10.9825 175.109 10.7666 178.564C10.5506 182.018 10.0918 183.287 11.0905 184.272C12.0891 185.257 16.0501 187.511 18.3173 186.863L18.4388 186.816Z" fill="white" stroke="#263238" stroke-linecap="round" stroke-linejoin="round"/>
<path d="M53.7227 97.82C53.7227 97.82 53.0952 115.783 51.8063 122.753C50.5175 129.723 46.5296 136.302 45.2408 138.624C43.952 140.945 25.8747 163.408 24.0663 165.993C22.2579 168.577 20.1931 170.898 20.1931 170.898L16.583 164.96C16.583 164.96 23.8099 151.019 26.1311 144.818C28.4523 138.617 36.4619 123.394 36.4619 123.394C36.4619 123.394 36.3202 109.015 36.8398 107.199C37.3594 105.384 35.2878 99.1965 36.5834 94.2909C37.879 89.3853 43.0545 87.0708 43.0545 87.0708" fill="#263238"/>
<path d="M53.7227 97.82C53.7227 97.82 53.0952 115.783 51.8063 122.753C50.5175 129.723 46.5296 136.302 45.2408 138.624C43.952 140.945 25.8747 163.408 24.0663 165.993C22.2579 168.577 20.1931 170.898 20.1931 170.898L16.583 164.96C16.583 164.96 23.8099 151.019 26.1311 144.818C28.4523 138.617 36.4619 123.394 36.4619 123.394C36.4619 123.394 36.3202 109.015 36.8398 107.199C37.3594 105.384 35.2878 99.1965 36.5834 94.2909C37.879 89.3853 43.0545 87.0708 43.0545 87.0708" stroke="#263238" stroke-linecap="round" stroke-linejoin="round"/>
<path d="M61.1443 182.072C61.1443 182.072 61.6976 182.437 67.2173 182.808C72.737 183.179 74.5791 181.519 74.3969 183.172C74.2147 184.825 70.5305 187.956 67.5884 189.245C64.6464 190.534 59.3089 190.905 57.0957 192.005C54.8824 193.105 52.6826 193.112 52.6826 190.534C52.6826 187.956 54.8891 182.99 54.8891 182.99C54.8891 182.99 59.6733 184.097 61.1443 182.072Z" fill="#92E3A9" stroke="#263238" stroke-linecap="round" stroke-linejoin="round"/>
<path d="M71.266 185.386C68.1417 187.592 63.3576 188.328 58.7556 189.981C56.8016 190.75 54.6262 190.736 52.6826 189.94C52.6826 190.15 52.6826 190.352 52.6826 190.534C52.6826 193.112 54.8891 193.112 57.0957 192.005C59.3022 190.899 64.6464 190.534 67.5884 189.266C70.5305 187.997 74.2147 184.853 74.3969 183.193C74.4442 182.747 74.3429 182.518 74.073 182.477C73.3503 183.632 72.3941 184.622 71.266 185.386Z" fill="white" stroke="#263238" stroke-linecap="round" stroke-linejoin="round"/>
<path d="M65.9976 88.3596C65.9976 88.3596 67.8802 115.499 69.6886 125.31C71.497 135.122 64.9652 154.535 63.9395 160.473C62.9139 166.411 61.6993 182.848 61.6993 182.848C61.6993 182.848 60.6669 185.433 59.1149 185.946C57.5629 186.459 54.7289 186.722 54.7289 184.913C54.7289 183.105 54.1283 171.317 54.1283 168.219C54.1283 165.122 54.6411 138.192 54.6411 133.023C54.6411 127.854 48.4467 102.3 48.1835 96.882C47.9204 91.4635 48.1835 87.5903 51.0243 86.5579C53.8651 85.5255 65.9976 88.3596 65.9976 88.3596Z" fill="#263238" stroke="#263238" stroke-linecap="round" stroke-linejoin="round"/>
<path d="M69.7553 60.9973C69.7553 60.9973 67.1709 75.3228 67.0562 79.5806C66.9415 83.8385 67.9604 89.5268 65.511 90.6875C63.4079 91.662 61.0236 91.8442 58.797 91.2003C57.3732 90.6875 56.3408 91.0721 56.4757 87.5902C56.6107 84.1084 67.5623 59.1889 69.7553 60.9973Z" fill="white" stroke="#263238" stroke-linecap="round" stroke-linejoin="round"/>
<path d="M53.1769 34.5326C53.1769 34.5326 38.0755 45.5719 34.2022 48.2778C30.329 50.9836 29.7487 54.8636 30.329 57.1848C30.9093 59.5061 38.8447 78.2918 38.8447 78.2918L43.2982 70.9368C43.2982 70.9368 40.0053 57.9608 40.201 56.2199C40.3967 54.479 46.0108 51.5707 46.0108 51.5707L53.1769 34.5326Z" fill="#92E3A9" stroke="#263238" stroke-linecap="round" stroke-linejoin="round"/>
<path d="M108.036 75.478L110.479 75.6804C110.479 75.6804 114.494 72.1648 115.877 70.9907C117.261 69.8166 123.718 73.5346 123.718 73.5346C123.718 73.5346 124.805 73.7775 123.624 74.3039C122.443 74.8302 119.157 75.1946 119.002 75.5117C118.846 75.8289 114.757 80.0125 113.327 80.7277C111.896 81.443 105.668 79.4389 105.668 79.4389L108.036 75.478Z" fill="white" stroke="#263238" stroke-linecap="round" stroke-linejoin="round"/>
<path d="M59.655 30.1938C59.655 30.1938 66.3083 36.0172 70.3569 39.6407C74.4056 43.2643 89.6488 61.6519 97.4087 67.4415C105.169 73.2311 108.036 75.4646 108.036 75.4646L106.93 79.3041C106.93 79.3041 105.641 80.404 98.4546 77.5159C91.2682 74.6279 84.3788 70.3161 79.2707 66.7532C74.1627 63.1904 70.4986 60.1134 70.4986 60.1134C70.4986 60.1134 62.462 78.5213 60.5996 85.8967C58.7373 93.272 56.7534 102.523 55.9234 104.601C55.0935 106.68 53.5347 108.239 51.5576 108.239C49.5805 108.239 46.571 106.788 40.9569 102.84C35.3428 98.8929 32.0229 96.4029 31.51 95.5662C30.9972 94.7295 40.1337 71.3552 42.104 61.0649C44.0744 50.7745 45.7546 36.638 59.655 30.1938Z" fill="#92E3A9" stroke="#263238" stroke-linecap="round" stroke-linejoin="round"/>
<path d="M62.5312 56.6383L70.4665 60.1269L56.5459 61.5844" stroke="#263238" stroke-linecap="round" stroke-linejoin="round"/>
<path d="M69.0415 39.7149C67.6494 39.38 66.1934 39.4203 64.8219 39.8317C63.4504 40.243 62.2125 41.0106 61.2344 42.0563" stroke="#263238" stroke-linecap="round" stroke-linejoin="round"/>
<path d="M62.9124 78.6832C62.9124 78.6832 57.7504 91.0721 54.2618 95.5931C50.7732 100.114 48.5869 102.82 48.5869 102.82C48.5869 102.82 55.6856 104.5 54.3967 106.693C54.3967 106.693 55.4291 105.917 57.494 98.9468C59.5588 91.9763 62.9124 78.6832 62.9124 78.6832Z" fill="#92E3A9" stroke="#263238" stroke-linecap="round" stroke-linejoin="round"/>
<path d="M70.4629 20.9494C70.4629 20.9494 70.0446 17.5215 67.865 16.9007C65.6855 16.2799 65.2671 22.0965 66.3063 24.0736C66.6218 24.6534 67.0676 25.152 67.6086 25.5302C68.1495 25.9084 68.7709 26.1559 69.4238 26.2531C69.4238 26.2531 71.8125 31.9685 73.7896 33.5272C75.7667 35.0859 76.4887 33.6352 77.629 32.596C78.7694 31.5569 80.0245 24.6944 80.0245 24.6944C80.0245 24.6944 82.9328 24.0736 82.7236 22.9265C82.5144 21.7794 80.4361 20.1261 80.7465 19.087C81.0569 18.0478 81.7857 17.1099 81.7857 16.2799C81.5447 14.6335 81.091 13.0254 80.4361 11.4958C80.0245 10.7737 75.3483 10.7737 73.7896 11.6037C72.2308 12.4337 75.1391 13.2637 74.7207 14.6132C74.3024 15.9628 71.8125 16.4891 71.6033 17.3123C71.3941 18.1356 72.5412 22.4001 70.4629 20.9494Z" fill="white" stroke="#263238" stroke-linecap="round" stroke-linejoin="round"/>
<path d="M81.1038 16.9345C81.1038 16.9345 80.4965 15.315 78.8838 17.1302L81.1038 16.9345Z" fill="white"/>
<path d="M81.1038 16.9345C81.1038 16.9345 80.4965 15.315 78.8838 17.1302" stroke="#263238" stroke-linecap="round" stroke-linejoin="round"/>
<path d="M75.6357 25.7739C75.8604 26.1824 76.1905 26.5231 76.5916 26.7604C76.9928 26.9978 77.4503 27.1232 77.9165 27.1235" fill="white"/>
<path d="M75.6357 25.7739C75.8604 26.1824 76.1905 26.5231 76.5916 26.7604C76.9928 26.9978 77.4503 27.1232 77.9165 27.1235" stroke="#263238" stroke-linecap="round" stroke-linejoin="round"/>
<path d="M79.2407 20.7874C79.55 20.7874 79.8008 20.2406 79.8008 19.5661C79.8008 18.8915 79.55 18.3447 79.2407 18.3447C78.9314 18.3447 78.6807 18.8915 78.6807 19.5661C78.6807 20.2406 78.9314 20.7874 79.2407 20.7874Z" fill="#263238"/>
<path d="M51.8953 121.208L45.2285 109.035L40.2959 107.294" stroke="white" stroke-width="0.75" stroke-linecap="round" stroke-linejoin="round"/>
<path d="M161.419 183.915C180.294 183.915 195.596 178.978 195.596 172.889C195.596 166.799 180.294 161.863 161.419 161.863C142.543 161.863 127.241 166.799 127.241 172.889C127.241 178.978 142.543 183.915 161.419 183.915Z" fill="#92E3A9"/>
<path opacity="0.5" d="M161.419 183.915C180.294 183.915 195.596 178.978 195.596 172.889C195.596 166.799 180.294 161.863 161.419 161.863C142.543 161.863 127.241 166.799 127.241 172.889C127.241 178.978 142.543 183.915 161.419 183.915Z" fill="white"/>
<path d="M145.618 8.21639C140.3 9.9978 135.354 13.4999 133.627 18.0951C131.353 24.1074 142.628 25.9698 145.618 30.4908C148.607 35.0118 143.364 38.3856 143.742 45.1469C144.12 51.9082 156.893 48.1564 162.905 54.9177C168.918 61.6789 163.283 63.9394 170.794 69.9517C178.304 75.9639 183.196 76.6994 187.71 69.5738C192.224 62.4482 195.598 53.7908 188.837 46.6314C182.076 39.472 170.045 37.6164 170.794 32.3531C171.543 27.0899 177.184 19.9507 170.422 13.9385C166.299 10.4254 161.311 8.0793 155.975 7.14349C152.946 6.59692 149.187 7.01529 145.618 8.21639Z" fill="#263238" stroke="#263238" stroke-linecap="round" stroke-linejoin="round"/>
<path d="M144.475 16.9277C144.475 16.9277 139.752 16.5634 139.92 13.2839C140.089 10.0045 151.209 8.73596 155.4 8.73596" stroke="white" stroke-width="0.75" stroke-linecap="round" stroke-linejoin="round"/>
<path d="M143.378 14.7416C147.413 14.7365 151.306 16.2298 154.303 18.932C159.397 23.4799 166.496 25.1197 171.233 23.6554" stroke="white" stroke-width="0.75" stroke-linecap="round" stroke-linejoin="round"/>
<path d="M142.831 18.9319C142.831 18.9319 134.457 19.4784 136.084 22.2045C137.71 24.9306 141.569 24.7552 141.569 24.7552" stroke="white" stroke-width="0.75" stroke-linecap="round" stroke-linejoin="round"/>
<path d="M150.343 40.6124C150.343 40.6124 145.708 42.9674 144.905 44.3507C144.102 45.734 137.772 60.5453 137.772 60.5453C137.772 60.5453 132.718 64.1081 127.543 68.5954C125.795 69.9817 123.808 71.0339 121.679 71.6994C121.679 71.6994 116.618 72.8465 115.356 73.3121C114.094 73.7777 112.138 77.7926 111.793 79.3851C111.449 80.9776 112.941 81.6793 114.209 81.794C115.478 81.9088 119.148 77.5429 119.493 77.1988C119.641 77.0921 119.81 77.0168 119.989 76.9773C120.167 76.9379 120.352 76.9352 120.532 76.9694C120.532 76.9694 117.657 80.0734 117.657 80.4175C117.657 80.7616 118.001 81.6793 118.919 80.9911C119.837 80.3028 120.646 79.1489 122.252 77.6577C123.858 76.1664 126.166 73.9801 126.976 73.1772C127.786 72.3742 134.911 69.1285 137.901 67.3133C139.814 66.2266 141.556 64.8622 143.069 63.2647C143.744 62.4617 149.851 51.6518 149.851 51.6518L150.343 40.6124Z" fill="white" stroke="#263238" stroke-linecap="round" stroke-linejoin="round"/>
<path d="M112.076 80.053C112.076 80.053 114.269 75.9504 115.032 75.1879" stroke="#263238" stroke-linecap="round" stroke-linejoin="round"/>
<path d="M112.746 81.3014C112.746 81.3014 115.891 75.9639 116.464 75.6805" stroke="#263238" stroke-linecap="round" stroke-linejoin="round"/>
<path d="M113.696 81.6727C113.696 81.6727 117.131 76.234 117.893 75.8561" stroke="#263238" stroke-linecap="round" stroke-linejoin="round"/>
<path d="M139.317 56.9488C141.043 58.2856 142.846 59.5203 144.716 60.6465C146.74 57.2052 149.837 51.7058 149.837 51.7058L150.343 40.6124C150.343 40.6124 145.708 42.9674 144.905 44.3507C144.351 45.2886 141.24 52.4683 139.317 56.9488Z" fill="#92E3A9" stroke="#263238" stroke-linecap="round" stroke-linejoin="round"/>
<path d="M165.71 123.138C165.71 123.138 173.065 148.664 175.366 154.407C177.667 160.149 177.896 169.353 177.667 172.113C177.438 174.873 175.251 179.36 174.563 181.081C173.875 182.801 176.628 182.808 178.126 181.755C179.624 180.703 183.99 179.11 185.022 175.682C186.054 172.255 185.022 168.091 185.252 166.479C185.481 164.866 187.323 164.873 185.481 162.113C183.639 159.353 180.886 156.822 180.542 155.365C180.197 153.907 178.47 147.2 179.388 140.648C180.305 134.096 177.896 126.849 177.323 124.784C177.137 123.901 176.826 123.049 176.398 122.254C176.398 122.254 168.929 123.812 165.71 123.138Z" fill="white" stroke="#263238" stroke-linecap="round" stroke-linejoin="round"/>
<path d="M185.479 162.079C184.885 161.188 184.197 160.325 183.529 159.508V162.207C183.529 164.623 183.3 171.175 181.458 173.247C180.108 174.765 178.205 174.36 177.281 174.043C176.518 176.433 175.617 178.776 174.582 181.06C173.907 182.788 176.646 182.788 178.144 181.735C179.642 180.683 184.008 179.09 185.041 175.662C186.073 172.234 185.041 168.071 185.27 166.458C185.499 164.846 187.321 164.839 185.479 162.079Z" fill="#92E3A9" stroke="#263238" stroke-linecap="round" stroke-linejoin="round"/>
<path d="M149.836 120.115C149.836 120.115 148.23 139.683 146.968 147.018C145.706 154.353 144.208 161.505 143.054 163.111C141.9 164.717 136.388 169.09 135.355 169.9C134.323 170.709 135.355 171.735 136.03 172.079C136.705 172.423 140.861 172.889 143.851 170.358C146.84 167.828 147.299 166.31 148.446 165.871C149.593 165.433 150.517 165.298 150.861 162.538C151.206 159.778 149.249 158.401 150.288 155.527C151.436 152.227 152.788 149.003 154.337 145.871C156.638 141.039 158.939 135.979 158.939 132.301C158.939 128.623 158.439 124.717 158.439 123.812C158.521 122.806 158.676 121.807 158.905 120.823L149.816 119.474L149.836 120.115Z" fill="white" stroke="#263238" stroke-linecap="round" stroke-linejoin="round"/>
<path d="M150.573 159.859C150.308 160.205 150.082 160.578 149.898 160.972C149.115 162.686 145.222 167.356 143.197 167.2C142.031 167.058 140.894 166.739 139.823 166.256C137.974 167.848 135.95 169.441 135.37 169.9C134.331 170.703 135.37 171.735 136.045 172.079C136.719 172.423 140.876 172.889 143.865 170.358C146.855 167.828 147.313 166.31 148.46 165.871C149.608 165.433 150.532 165.298 150.876 162.538C150.97 161.633 150.866 160.719 150.573 159.859Z" fill="#92E3A9" stroke="#263238" stroke-linecap="round" stroke-linejoin="round"/>
<path d="M155.241 38.3722C155.241 38.3722 152.117 39.8364 150.74 40.3965C149.364 40.9565 148.561 44.3507 149.134 46.4222C149.708 48.4938 148.918 55.9501 149.721 58.8246C150.524 61.6992 155.7 64.8031 156.854 66.065C157.628 67.0178 158.212 68.1105 158.574 69.2837L151.563 81.4701C148.918 86.0721 137.649 111.592 137.649 111.592C137.649 111.592 140.875 119.986 158.001 123.549C175.127 127.112 193.184 121.133 195.714 119.501C197.643 118.168 199.45 116.666 201.112 115.013C201.112 115.013 193.75 96.963 188.46 86.9628C183.17 76.9626 175.356 67.3943 175.356 67.3943L174.897 59.3442C174.897 59.3442 173.548 47.7313 172.481 45.4303C171.415 43.1293 166.044 40.2615 163.169 39.5665C160.295 38.8715 157.542 38.2574 155.241 38.3722Z" fill="#263238" stroke="#263238" stroke-linecap="round" stroke-linejoin="round"/>
<path d="M152.773 55.4036C152.773 55.4036 157.989 57.1445 162.052 56.8543" stroke="white" stroke-width="0.75" stroke-linecap="round" stroke-linejoin="round"/>
<path d="M160.308 70.5051C160.308 70.5051 153.041 88.4474 151.32 93.6702" stroke="white" stroke-width="0.75" stroke-linecap="round" stroke-linejoin="round"/>
<path d="M162.622 71.9288L160.888 81.4904" stroke="white" stroke-width="0.75" stroke-linecap="round" stroke-linejoin="round"/>
<path d="M171.937 72.7993C171.937 72.7993 174.548 89.8982 175.128 96.5649" stroke="white" stroke-width="0.75" stroke-linecap="round" stroke-linejoin="round"/>
<path d="M173.644 73.3728L180.31 87.867" stroke="white" stroke-width="0.75" stroke-linecap="round" stroke-linejoin="round"/>
<path d="M163.166 39.6339C160.291 38.9592 157.531 38.2844 155.23 38.3721C155.23 38.3721 153.516 39.1751 151.796 39.9578C151.475 41.0177 151.25 42.1038 151.121 43.2035C150.777 45.8419 152.039 49.985 152.039 49.985L162.734 51.4763C162.734 51.4763 163.078 48.3723 163.766 45.0389C164.066 43.4119 164.678 41.8584 165.568 40.4639C164.791 40.1222 163.988 39.8446 163.166 39.6339Z" fill="#92E3A9" stroke="#263238" stroke-linecap="round" stroke-linejoin="round"/>
<path d="M172.03 61.4833C172.507 61.6887 173.026 61.7781 173.545 61.7441C174.063 61.7101 174.566 61.5536 175.012 61.2876L174.904 59.4117C174.904 59.4117 173.555 47.7988 172.489 45.4978C171.875 44.1482 169.709 42.5625 167.448 41.3682C166.465 44.2938 165.954 47.3575 165.937 50.4439C165.937 55.8489 168.467 59.8705 172.03 61.4833Z" fill="#92E3A9" stroke="#263238" stroke-linecap="round" stroke-linejoin="round"/>
<path d="M153.864 38.1157C153.069 40.6109 152.604 43.1992 152.48 45.8149C152.48 49.2698 153.29 48.8042 154.437 48.2306C155.494 47.5503 156.46 46.7386 157.312 45.8149C157.312 45.8149 160.072 49.6139 160.76 49.1888C161.448 48.7637 162.602 41.9417 162.029 39.0672C161.455 36.1926 159.498 35.2749 157.771 35.2749C156.043 35.2749 154.667 36.4153 153.864 38.1157Z" fill="white" stroke="#263238" stroke-linecap="round" stroke-linejoin="round"/>
<path d="M152.138 37.6838C152.138 37.6838 154.209 40.9025 154.553 42.279C154.898 43.6556 156.51 46.3277 157.313 45.8419C158.116 45.356 159.155 40.4436 159.155 38.2574C159.155 36.0711 157.313 31.5906 157.313 31.5906C157.313 31.5906 152.826 37.7985 152.138 37.6838Z" fill="white" stroke="#263238" stroke-linecap="round" stroke-linejoin="round"/>
<path d="M142.367 24.8024C142.367 24.8024 141.692 22.6229 140.639 24.6877C139.587 26.7525 142.596 29.175 142.596 29.175L142.367 24.8024Z" fill="white" stroke="#263238" stroke-linecap="round" stroke-linejoin="round"/>
<path d="M160.534 23.6553C159.985 23.7474 159.469 23.9798 159.036 24.33C158.362 25.0655 157.775 25.6796 157.775 25.6796C155.601 23.5546 153.646 21.2172 151.938 18.7024C150.318 16.1382 147.889 16.0033 145.129 16.3407C143.891 17.0748 142.953 18.2251 142.484 19.5863C141.681 22.6903 142.369 29.2424 142.599 30.7337C142.828 32.2249 148.348 39.3573 151.452 38.8985C154.556 38.4396 157.889 30.9631 157.889 30.9631C157.889 30.9631 162.491 29.2424 162.95 27.515C163.409 25.7875 162.147 23.4258 160.534 23.6553Z" fill="white" stroke="#263238" stroke-linecap="round" stroke-linejoin="round"/>
<path d="M147.316 25.9698C147.316 25.9698 147.889 26.314 147.316 27.117C146.742 27.92 145.359 28.9591 145.932 29.418C146.38 29.7231 146.893 29.9195 147.43 29.9915" stroke="#263238" stroke-linecap="round" stroke-linejoin="round"/>
<path d="M148.318 32.0427C148.318 32.0427 150.849 33.1899 152.455 31.2397" stroke="#263238" stroke-linecap="round" stroke-linejoin="round"/>
<path d="M150.807 25.7539C150.807 26.5164 150.523 27.1034 150.172 27.1034C149.821 27.1034 149.538 26.4894 149.538 25.7539C149.538 25.0184 149.821 24.3706 150.172 24.3706C150.523 24.3706 150.807 24.9914 150.807 25.7539Z" fill="#263238"/>
<path d="M145.308 26.7391C145.658 26.7391 145.942 26.1228 145.942 25.3625C145.942 24.6023 145.658 23.986 145.308 23.986C144.958 23.986 144.674 24.6023 144.674 25.3625C144.674 26.1228 144.958 26.7391 145.308 26.7391Z" fill="#263238"/>
<path d="M149.606 22.5959C149.606 22.5959 151.104 21.0979 152.825 23.2707" stroke="#263238" stroke-linecap="round" stroke-linejoin="round"/>
<path d="M146.847 22.5959C146.847 22.5959 145.241 20.5243 144.094 22.5959" stroke="#263238" stroke-linecap="round" stroke-linejoin="round"/>
<path d="M168.01 42.1644C168.01 42.1644 171.114 41.8202 172.49 43.6624C173.867 45.5045 182.774 58.8786 182.774 58.8786L176.829 63.9462L169.157 55.7341" fill="#92E3A9"/>
<path d="M168.01 42.1644C168.01 42.1644 171.114 41.8202 172.49 43.6624C173.867 45.5045 182.774 58.8786 182.774 58.8786L176.829 63.9462L169.157 55.7341" stroke="#263238" stroke-linecap="round" stroke-linejoin="round"/>
<path d="M187.455 65.7344C187.583 64.9651 185.167 61.8679 182.792 58.8787C181.462 59.1711 180.223 59.7863 179.187 60.67C178.15 61.5537 177.347 62.6788 176.847 63.9462C178.197 65.7681 179.29 67.3201 179.29 67.3201C179.29 67.3201 176.996 73.6428 175.842 78.238C175.039 81.4567 172.272 85.7887 170.68 88.11C170.16 88.7105 169.222 89.6822 168.547 89.8307C167.562 90.0533 167.34 89.6147 166.246 90.5999C165.153 91.5851 163.5 93.1236 162.731 93.6701C161.962 94.2167 163.163 94.7025 163.838 94.797C164.512 94.8915 166.253 93.3665 166.253 93.3665H167.461L163.946 98.9671C163.946 98.9671 163.399 99.8444 164.384 99.8444C165.369 99.8444 167.461 96.7741 167.461 96.7741H168.446C168.446 96.7741 165.923 100.283 165.923 100.722C165.923 101.16 166.692 101.396 167.13 101.16C167.569 100.924 169.985 97.6513 169.985 97.6513L168.338 101.383C168.338 101.383 168.554 101.929 169.323 101.707C170.093 101.484 171.631 98.0899 171.631 98.0899C171.631 98.0899 170.862 100.944 171.516 101.052C172.171 101.16 172.947 97.5366 172.947 97.5366L174.04 90.8428L175.127 89.3313C176.888 87.1855 180.781 82.4351 182.725 79.5201C185.248 75.7346 187.205 67.1312 187.455 65.7344Z" fill="white" stroke="#263238" stroke-linecap="round" stroke-linejoin="round"/>
<path d="M130.271 88.9399L131.182 89.9589" stroke="#263238" stroke-linecap="round" stroke-linejoin="round"/>
<path d="M125.489 83.5552L129.194 87.7185" stroke="#263238" stroke-linecap="round" stroke-linejoin="round"/>
<path d="M132.968 75.7211L137.239 76.4363" stroke="#263238" stroke-linecap="round" stroke-linejoin="round"/>
<path d="M119.793 63.6224L122.641 58.2849" stroke="#263238" stroke-linecap="round" stroke-linejoin="round"/>
<path d="M85.665 79.0749L91.6773 78.2179" stroke="#263238" stroke-linecap="round" stroke-linejoin="round"/>
<path d="M81.7168 79.6416L83.235 79.4189" stroke="#263238" stroke-linecap="round" stroke-linejoin="round"/>
<path d="M109.6 95.2695L109.121 97.0779" stroke="white" stroke-linecap="round" stroke-linejoin="round"/>
<path d="M111.966 86.4028L110.219 92.9414" stroke="white" stroke-linecap="round" stroke-linejoin="round"/>
<path d="M98.446 82.4893L89.9033 87.4691" stroke="white" stroke-linecap="round" stroke-linejoin="round"/>
</svg>
