<svg width="147" height="160" viewBox="0 0 147 160" fill="none" xmlns="http://www.w3.org/2000/svg">
<path d="M132.536 143.633C131.455 134.261 126.7 92.8517 126.783 91.6122C126.873 90.2097 114.118 85.0759 114.118 85.0759L106.972 84.7242V84.6127L105.841 84.6684L104.711 84.6127V84.7242L97.5646 85.0759C97.5646 85.0759 84.8123 90.2226 84.9021 91.6122C84.9819 92.8517 80.2268 134.261 79.1494 143.633H132.536Z" fill="#92E3A9" stroke="#263238" stroke-linecap="round" stroke-linejoin="round"/>
<path d="M126.563 91.2047L126.783 91.6122C126.79 91.4964 126.71 91.3591 126.563 91.2047Z" fill="#263238" stroke="#263238" stroke-linecap="round" stroke-linejoin="round"/>
<path d="M114.201 94.4343L124.602 89.8795C120.981 87.8551 114.118 85.093 114.118 85.093L110.886 84.9343L114.201 94.4343Z" fill="#263238" stroke="#263238" stroke-linecap="round" stroke-linejoin="round"/>
<path d="M126.893 93.1134L130.683 143.633H132.549C131.565 135.179 127.614 100.791 126.893 93.1134Z" fill="#263238" stroke="#263238" stroke-linecap="round" stroke-linejoin="round"/>
<path d="M132.034 143.633L125.782 127.095L122.473 127.193L122.048 143.633H132.034Z" fill="#92E3A9" stroke="#263238" stroke-linecap="round" stroke-linejoin="round"/>
<path d="M120.818 107.82V105.839" stroke="#263238" stroke-linecap="round" stroke-linejoin="round"/>
<path d="M120.818 125.975V110.089" stroke="#263238" stroke-linecap="round" stroke-linejoin="round"/>
<path d="M89.6273 143.633L89.2017 127.193L85.893 127.095L79.6416 143.633H89.6273Z" fill="#92E3A9" stroke="#263238" stroke-linecap="round" stroke-linejoin="round"/>
<path d="M90.8574 111.976V105.839" stroke="#263238" stroke-linecap="round" stroke-linejoin="round"/>
<path d="M90.8574 125.975V113.486" stroke="#263238" stroke-linecap="round" stroke-linejoin="round"/>
<path d="M102.271 95.5795L105.889 101.644L101.908 135.364L106.61 142.946L110.411 134.78L106.61 101.297L110.321 95.3436L106.793 89.9781L102.271 95.5795Z" fill="#263238" stroke="#263238" stroke-linecap="round" stroke-linejoin="round"/>
<path d="M106.536 93.5765C106.536 93.5765 102.992 96.1499 101.997 97.7797C101.003 99.4095 98.6522 102.562 98.6522 102.926C98.6522 103.291 96.3911 92.0797 96.3911 88.5799C96.3911 85.0802 96.1184 85.4276 96.8433 84.3768C97.5682 83.326 99.836 80.4095 100.461 80.0621C101.086 79.7147 111.947 79.9463 112.582 80.2937C113.217 80.6411 114.843 84.8443 115.295 86.2467C115.519 86.8861 115.7 87.549 115.837 88.2282C115.837 88.2282 114.839 95.8111 114.66 97.6639C114.48 99.5167 113.124 103.497 113.124 103.497C113.124 103.497 108.964 97.2007 108.691 96.3815C108.418 95.5623 106.536 93.5765 106.536 93.5765Z" fill="#92E3A9" stroke="#263238" stroke-linecap="round" stroke-linejoin="round"/>
<path d="M99.915 75.5116L100.011 84.261L106.536 93.5937L112.208 84.9601L112.398 75.859L99.915 75.5116Z" fill="white" stroke="#263238" stroke-linecap="round" stroke-linejoin="round"/>
<path d="M103.441 79.0199L103.82 79.8391L111.644 85.8264L112.209 84.9601L112.399 75.8589L102.649 75.5887L103.441 79.0199Z" fill="#263238"/>
<path d="M98.4061 62.4261C98.4061 62.4261 97.3753 58.1629 95.7991 59.2394C94.2229 60.3159 94.8813 64.9094 95.829 66.2475C96.5226 67.1262 97.37 67.7764 98.2997 68.1432C98.2997 68.1432 97.8175 74.1863 99.9157 76.408C102.014 78.6297 102.908 81.3703 104.179 81.4432C105.449 81.5161 108.525 81.4432 109.073 81.2588C109.622 81.0744 112.625 78.0721 113.26 75.4258C113.649 73.7668 113.89 72.0559 113.978 70.3263C113.978 70.3263 117.287 66.3119 117.456 63.9872C117.626 61.6626 116.126 60.8735 115.381 61.1823L114.647 61.4911L115.072 54.3886C115.072 54.3886 119.425 54.1742 119.445 53.5909C119.465 53.0076 117.669 49.9839 117.669 49.9839C117.669 49.9839 123.01 50.0568 123.379 47.1618C123.748 44.2667 119.146 41.3117 117.769 41.8178C116.392 42.3239 114.204 42.7785 114.204 42.7785C114.204 42.7785 117.377 40.0421 115.977 38.6783C114.577 37.3144 111.853 37.5074 110.264 38.9313C109.441 39.63 108.683 40.4489 108.006 41.3717C107.045 40.1692 105.789 39.4366 104.455 39.3002C102.2 39.0514 100.89 40.2609 101.512 40.6469C101.871 40.859 102.174 41.2019 102.383 41.6333C102.383 41.6333 97.8142 42.89 97.2389 46.3512C96.6637 49.8123 98.4061 62.4261 98.4061 62.4261Z" fill="white" stroke="#263238" stroke-linecap="round" stroke-linejoin="round"/>
<path d="M115.388 61.1823L114.813 61.4224L114.331 62.9879L113.998 70.3263C113.998 70.3263 117.307 66.3118 117.476 63.9872C117.646 61.6626 116.116 60.8735 115.388 61.1823Z" fill="#263238"/>
<path d="M101.618 61.7957L104.022 62.0744" stroke="#263238" stroke-linecap="round" stroke-linejoin="round"/>
<path d="M109.831 62.4089L112.139 62.2588" stroke="#263238" stroke-linecap="round" stroke-linejoin="round"/>
<path d="M97.2959 59.7412L98.4065 62.4261C98.1657 61.4516 97.7894 60.5418 97.2959 59.7412V59.7412Z" stroke="#263238" stroke-linecap="round" stroke-linejoin="round"/>
<path d="M123.367 47.1618C123.74 44.2624 119.188 41.8178 117.758 41.8178C116.531 41.8123 115.316 42.1397 114.193 42.7785C114.193 42.7785 117.365 40.0421 115.966 38.6783C114.566 37.3144 111.842 37.5074 110.253 38.9313C109.43 39.63 108.672 40.4489 107.995 41.3717C107.034 40.1692 105.778 39.4366 104.444 39.3002C102.189 39.0514 100.879 40.2609 101.501 40.6469C101.86 40.859 102.162 41.2019 102.372 41.6333C102.372 41.6333 97.8031 42.89 97.2278 46.3512C96.6525 49.8123 98.395 62.4175 98.395 62.4175L99.1332 61.9886C99.0997 60.7494 99.2982 59.5181 99.7118 58.3988C100.417 56.3401 101.258 55.5681 101.308 54.0541C101.358 52.5401 100.201 49.4349 101.674 48.7058C103.147 47.9767 111.982 48.7058 112.893 48.9974C113.804 49.2891 114.379 50.4857 114.044 52.3342C113.708 54.1827 113.418 54.7489 113.748 55.7053C114.077 56.6618 114.413 59.8313 114.386 60.762L114.356 61.6927L114.313 62.9794L114.758 61.431L114.635 61.4825L115.061 54.38C115.061 54.38 119.414 54.1656 119.434 53.5823C119.454 52.999 117.658 49.9753 117.658 49.9753C117.658 49.9753 123.008 50.0568 123.367 47.1618Z" fill="#263238" stroke="#263238" stroke-linecap="round" stroke-linejoin="round"/>
<path d="M115.056 49.006C115.393 49.2436 115.744 49.4459 116.106 49.6107" stroke="#6E6E6E" stroke-linecap="round" stroke-linejoin="round"/>
<path d="M105.346 45.5834C105.346 45.5834 110.367 48.4269 111.371 48.0624C112.375 47.6978 111.73 45.1116 111.73 45.1116C112.385 46.2955 113.18 47.3403 114.084 48.2082" stroke="#6E6E6E" stroke-linecap="round" stroke-linejoin="round"/>
<path d="M108.708 57.7639L108.043 61.3452C108.043 61.3452 108.306 64.163 108.518 65.9258C108.657 66.8999 108.59 67.904 108.325 68.8336L104.711 68.6278L109.183 69.8415L109.762 68.2504L108.645 61.1393L108.708 57.7639Z" fill="#263238" stroke="#263238" stroke-linecap="round" stroke-linejoin="round"/>
<path d="M103.188 70.7594C103.641 71.4246 104.276 71.8379 104.96 71.9131L108.212 72.0975C108.498 72.0835 108.779 71.9901 109.035 71.8236C109.291 71.6571 109.516 71.4214 109.695 71.1325" stroke="#263238" stroke-linecap="round" stroke-linejoin="round"/>
<path d="M103.986 60.0027C103.966 60.5217 103.783 60.9334 103.573 60.9206C103.364 60.9077 103.208 60.4917 103.241 59.9599C103.274 59.428 103.444 59.0292 103.653 59.0377C103.863 59.0463 104.002 59.4838 103.986 60.0027Z" fill="#263238" stroke="#263238" stroke-linecap="round" stroke-linejoin="round"/>
<path d="M110.5 60.3759C110.483 60.8949 110.297 61.3066 110.087 61.2938C109.878 61.2809 109.725 60.8649 109.755 60.3331C109.785 59.8012 109.958 59.4024 110.167 59.4152C110.377 59.4281 110.516 59.857 110.5 60.3759Z" fill="#263238" stroke="#263238" stroke-linecap="round" stroke-linejoin="round"/>
<path d="M101.877 56.3186C103.218 55.785 104.664 55.9103 105.937 56.6703" stroke="#263238" stroke-width="3" stroke-linecap="round" stroke-linejoin="round"/>
<path d="M109.01 56.8461C109.01 56.8461 110.772 55.6624 112.169 57.142" stroke="#263238" stroke-width="3" stroke-linecap="round" stroke-linejoin="round"/>
<path d="M111.863 121.51C110.842 120.632 109.907 119.597 109.08 118.427C108.921 118.19 108.702 118.032 108.462 117.981C108.222 117.93 107.976 117.989 107.766 118.148L107.168 118.577C106.995 118.704 106.855 118.894 106.764 119.122C106.673 119.351 106.635 119.608 106.656 119.864C106.716 120.721 106.915 122.008 107.557 122.827C108.162 123.615 108.853 124.284 109.609 124.813L112.581 123.359L111.863 121.51Z" fill="white" stroke="#263238" stroke-linecap="round" stroke-linejoin="round"/>
<path d="M98.8349 121.51C98.8349 121.51 100.734 119.911 101.791 118.148C101.891 117.985 102.033 117.874 102.192 117.836C102.35 117.798 102.514 117.836 102.652 117.942L103.726 118.74C103.833 118.819 103.92 118.934 103.979 119.074C104.038 119.213 104.065 119.371 104.059 119.529C104.029 120.34 103.869 121.888 103.138 122.831C102.533 123.619 101.842 124.288 101.086 124.817L98.1133 123.363L98.8349 121.51Z" fill="white" stroke="#263238" stroke-linecap="round" stroke-linejoin="round"/>
<path d="M125.556 143.633V123.363C125.556 123 125.445 122.652 125.246 122.396C125.047 122.139 124.777 121.995 124.496 121.995H87.027C86.8874 121.995 86.7491 122.03 86.62 122.098C86.4909 122.167 86.3736 122.267 86.2748 122.394C86.1759 122.521 86.0975 122.672 86.044 122.839C85.9904 123.005 85.9629 123.183 85.9629 123.363V143.633H125.556Z" fill="#737373" stroke="#263238" stroke-linecap="round" stroke-linejoin="round"/>
<path d="M125.031 122.18C124.872 122.06 124.692 121.996 124.509 121.995H87.0266C86.8619 121.995 86.6993 122.044 86.5521 122.14C86.4048 122.235 86.2769 122.373 86.1787 122.544C88.7159 125.298 102.02 139.533 106.446 139.751C111.025 139.983 122.164 125.894 125.031 122.18Z" stroke="#263238" stroke-linecap="round" stroke-linejoin="round"/>
<path d="M108.551 134.708H104.288V143.504H108.551V134.708Z" fill="#263238" stroke="#263238" stroke-linecap="round" stroke-linejoin="round"/>
<path d="M99.2096 116.578H97.8728C97.4522 116.578 97.1113 117.018 97.1113 117.56V123.415C97.1113 123.957 97.4522 124.397 97.8728 124.397H99.2096C99.6301 124.397 99.971 123.957 99.971 123.415V117.56C99.971 117.018 99.6301 116.578 99.2096 116.578Z" fill="white" stroke="#263238" stroke-linecap="round" stroke-linejoin="round"/>
<path d="M97.5537 124.324C97.6432 124.372 97.7393 124.397 97.8364 124.397H99.2463C99.3619 124.398 99.4761 124.363 99.5788 124.294V122.068H97.5637L97.5537 124.324Z" stroke="#263238" stroke-linecap="round" stroke-linejoin="round"/>
<path d="M97.7578 119.147H99.2675" stroke="#263238" stroke-linecap="round" stroke-linejoin="round"/>
<path d="M98.0596 118.452C98.2699 118.34 98.4979 118.293 98.7249 118.315C98.9519 118.338 99.1717 118.429 99.3664 118.581" stroke="#263238" stroke-linecap="round" stroke-linejoin="round"/>
<path d="M93.0719 116.578H91.7351C91.3146 116.578 90.9736 117.018 90.9736 117.56V123.415C90.9736 123.957 91.3146 124.397 91.7351 124.397H93.0719C93.4924 124.397 93.8333 123.957 93.8333 123.415V117.56C93.8333 117.018 93.4924 116.578 93.0719 116.578Z" fill="white" stroke="#263238" stroke-linecap="round" stroke-linejoin="round"/>
<path d="M91.417 124.324C91.5065 124.372 91.6026 124.397 91.6996 124.397H93.1095C93.2253 124.399 93.3397 124.364 93.4421 124.294V122.068H91.4469L91.417 124.324Z" stroke="#263238" stroke-linecap="round" stroke-linejoin="round"/>
<path d="M91.6191 119.147H93.1288" stroke="#263238" stroke-linecap="round" stroke-linejoin="round"/>
<path d="M91.918 118.452C92.1289 118.34 92.3573 118.293 92.5849 118.315C92.8125 118.338 93.0328 118.429 93.2281 118.581" stroke="#263238" stroke-linecap="round" stroke-linejoin="round"/>
<path d="M89.8 118.066H89.0086C88.588 118.066 88.2471 118.506 88.2471 119.049V123.415C88.2471 123.957 88.588 124.397 89.0086 124.397H89.8C90.2205 124.397 90.5614 123.957 90.5614 123.415V119.049C90.5614 118.506 90.2205 118.066 89.8 118.066Z" fill="white" stroke="#263238" stroke-linecap="round" stroke-linejoin="round"/>
<path d="M88.6064 124.337C88.6779 124.376 88.7548 124.397 88.8326 124.397H89.9764C90.0665 124.394 90.1549 124.366 90.2358 124.315V122.51H88.6064V124.337Z" stroke="#263238" stroke-linecap="round" stroke-linejoin="round"/>
<path d="M88.7695 120.142H89.9899" stroke="#263238" stroke-linecap="round" stroke-linejoin="round"/>
<path d="M89.0127 119.568C89.1834 119.476 89.3683 119.438 89.5526 119.456C89.7369 119.474 89.9153 119.547 90.0734 119.671" stroke="#263238" stroke-linecap="round" stroke-linejoin="round"/>
<path d="M96.0416 115.553H94.7048C94.2843 115.553 93.9434 115.993 93.9434 116.535V123.415C93.9434 123.957 94.2843 124.397 94.7048 124.397H96.0416C96.4621 124.397 96.8031 123.957 96.8031 123.415V116.535C96.8031 115.993 96.4621 115.553 96.0416 115.553Z" fill="white" stroke="#263238" stroke-linecap="round" stroke-linejoin="round"/>
<path d="M94.3857 124.324C94.4741 124.372 94.5691 124.397 94.6651 124.397H96.0783C96.1941 124.399 96.3084 124.364 96.4108 124.294V122.068H94.399L94.3857 124.324Z" stroke="#263238" stroke-linecap="round" stroke-linejoin="round"/>
<path d="M94.585 119.147H96.0979" stroke="#263238" stroke-linecap="round" stroke-linejoin="round"/>
<path d="M94.8877 118.452C95.0986 118.34 95.3271 118.293 95.5547 118.315C95.7822 118.338 96.0025 118.429 96.1978 118.581" stroke="#263238" stroke-linecap="round" stroke-linejoin="round"/>
<path d="M111.953 124.397H113.289C113.71 124.397 114.051 123.957 114.051 123.415V117.56C114.051 117.018 113.71 116.578 113.289 116.578H111.953C111.532 116.578 111.191 117.018 111.191 117.56V123.415C111.191 123.957 111.532 124.397 111.953 124.397Z" fill="white" stroke="#263238" stroke-linecap="round" stroke-linejoin="round"/>
<path d="M113.609 124.324C113.52 124.372 113.423 124.397 113.326 124.397H111.917C111.801 124.399 111.686 124.364 111.584 124.294V122.068H113.579L113.609 124.324Z" stroke="#263238" stroke-linecap="round" stroke-linejoin="round"/>
<path d="M113.406 119.147H111.896" stroke="#263238" stroke-linecap="round" stroke-linejoin="round"/>
<path d="M113.107 118.452C112.896 118.34 112.668 118.293 112.44 118.315C112.212 118.338 111.992 118.429 111.797 118.581" stroke="#263238" stroke-linecap="round" stroke-linejoin="round"/>
<path d="M118.091 124.397H119.428C119.849 124.397 120.189 123.957 120.189 123.415V117.56C120.189 117.018 119.849 116.578 119.428 116.578H118.091C117.671 116.578 117.33 117.018 117.33 117.56V123.415C117.33 123.957 117.671 124.397 118.091 124.397Z" fill="white" stroke="#263238" stroke-linecap="round" stroke-linejoin="round"/>
<path d="M119.748 124.324C119.659 124.372 119.564 124.397 119.468 124.397H118.048C117.933 124.399 117.818 124.363 117.716 124.294V122.068H119.728L119.748 124.324Z" stroke="#263238" stroke-linecap="round" stroke-linejoin="round"/>
<path d="M119.548 119.147H118.038" stroke="#263238" stroke-linecap="round" stroke-linejoin="round"/>
<path d="M119.245 118.452C119.034 118.34 118.805 118.293 118.578 118.315C118.35 118.338 118.13 118.429 117.935 118.581" stroke="#263238" stroke-linecap="round" stroke-linejoin="round"/>
<path d="M121.366 124.393H122.157C122.578 124.393 122.919 123.953 122.919 123.41V119.044C122.919 118.502 122.578 118.062 122.157 118.062H121.366C120.946 118.062 120.605 118.502 120.605 119.044V123.41C120.605 123.953 120.946 124.393 121.366 124.393Z" fill="white" stroke="#263238" stroke-linecap="round" stroke-linejoin="round"/>
<path d="M122.56 124.337C122.488 124.377 122.409 124.397 122.331 124.397H121.19C121.1 124.395 121.011 124.367 120.931 124.315V122.51H122.56V124.337Z" stroke="#263238" stroke-linecap="round" stroke-linejoin="round"/>
<path d="M122.398 120.142H121.174" stroke="#263238" stroke-linecap="round" stroke-linejoin="round"/>
<path d="M122.151 119.568C121.981 119.476 121.797 119.438 121.613 119.456C121.429 119.474 121.251 119.547 121.094 119.67" stroke="#263238" stroke-linecap="round" stroke-linejoin="round"/>
<path d="M115.122 124.393H116.459C116.88 124.393 117.221 123.953 117.221 123.41V116.531C117.221 115.989 116.88 115.549 116.459 115.549H115.122C114.702 115.549 114.361 115.989 114.361 116.531V123.41C114.361 123.953 114.702 124.393 115.122 124.393Z" fill="white" stroke="#263238" stroke-linecap="round" stroke-linejoin="round"/>
<path d="M116.779 124.324C116.69 124.372 116.595 124.397 116.499 124.397H115.089C114.974 124.398 114.859 124.363 114.757 124.294V122.068H116.769L116.779 124.324Z" stroke="#263238" stroke-linecap="round" stroke-linejoin="round"/>
<path d="M116.578 119.147H115.068" stroke="#263238" stroke-linecap="round" stroke-linejoin="round"/>
<path d="M116.276 118.452C116.065 118.34 115.837 118.293 115.61 118.315C115.383 118.338 115.163 118.429 114.969 118.581" stroke="#263238" stroke-linecap="round" stroke-linejoin="round"/>
<path d="M27.5352 143.633H146" stroke="#263238" stroke-linecap="round" stroke-linejoin="round"/>
<path d="M62.4443 131.478L64.5326 144.967H57.5596L62.4443 131.478Z" fill="#263238" stroke="#263238" stroke-linecap="round" stroke-linejoin="round"/>
<path d="M60.0656 146.043H22.3408L24.7184 131.478H62.4432L60.0656 146.043Z" fill="#92E3A9" stroke="#263238" stroke-linecap="round" stroke-linejoin="round"/>
<path d="M29.0621 35.1013C29.0621 35.1013 20.6825 41.2002 20.4696 42.444C20.2568 43.6878 20.6825 56.8548 20.3599 57.8241C20.0374 58.7934 15.5283 67.5214 15.5283 72.0934C15.5283 76.6654 15.4219 101.468 15.4219 101.468L9.31348 115.738L24.1374 122.664L31.5493 108.116C31.5493 108.116 36.4906 102.438 37.5647 101.052L35.8289 34.6896L29.0621 35.1013Z" fill="white" stroke="#263238" stroke-linecap="round" stroke-linejoin="round"/>
<path d="M25.1943 45.6306C25.1943 45.6306 29.168 47.1575 30.5646 48.9588" stroke="#263238" stroke-linecap="round" stroke-linejoin="round"/>
<path d="M26.375 54.7746C26.375 54.7746 27.5588 54.3457 29.7002 54.6374" stroke="#263238" stroke-linecap="round" stroke-linejoin="round"/>
<path d="M26.1494 13.6095C26.1494 13.6095 36.5574 105.127 36.7137 108.395C36.87 111.663 37.0296 115.716 37.0296 115.716C37.0296 115.716 49.8019 111.65 58.1582 110.226C66.5145 108.802 94.2669 105.753 94.2669 105.753C94.2669 105.753 87.1709 42.9072 86.2265 34.5566C85.2821 26.2061 82.2828 1 82.2828 1C82.2828 1 52.3257 4.45688 43.0217 4.45688C37.0562 4.50665 31.1014 5.11874 25.2051 6.28826L26.1494 13.6095Z" fill="white" stroke="#263238" stroke-linecap="round" stroke-linejoin="round"/>
<path d="M69.7127 51.4979L81.8365 49.8295C81.3078 47.1532 80.942 45.2575 80.942 45.1117C80.942 44.76 78.7075 44.1338 77.6899 43.8636C77.4904 43.4347 77.0914 42.6627 76.9218 42.5769H76.8753L76.8387 42.0108C76.9548 41.7825 77.0361 41.5278 77.0781 41.2602C77.1275 40.8085 77.1387 40.3512 77.1114 39.8963C77.2045 39.7376 77.8496 38.6354 77.8263 38.0349C77.8256 37.9088 77.8002 37.7848 77.7526 37.6747C77.7049 37.5645 77.6365 37.4715 77.5536 37.4045C77.491 37.3636 77.4221 37.3412 77.3519 37.339C77.2817 37.3367 77.212 37.3547 77.1479 37.3916L77.0216 37.4731L76.9218 35.7189C77.2959 35.6683 77.6603 35.5348 77.9992 35.3243C78.0424 35.2814 78.0391 35.2557 78.0391 35.2386C77.8967 34.9332 77.7184 34.6582 77.5104 34.4237C77.8196 34.355 78.8637 34.0677 78.8704 33.3557C78.8579 33.1926 78.8135 33.0362 78.7414 32.9011C78.6693 32.7661 78.5718 32.6569 78.4581 32.5837C78.0524 32.2449 77.4206 32.0519 77.1779 32.1934C76.9351 32.335 76.6358 32.4722 76.4463 32.5537C76.5926 32.3478 76.8154 31.9918 76.7788 31.6959C76.7723 31.6421 76.7559 31.5911 76.731 31.5471C76.7062 31.5031 76.6735 31.4674 76.6358 31.4429C76.3778 31.3149 76.0974 31.2817 75.8257 31.3468C75.5539 31.4119 75.3014 31.5728 75.0963 31.8117C74.9131 32.03 74.7461 32.2698 74.5975 32.528C74.3034 32.2754 73.9521 32.1576 73.5999 32.1934C73.141 32.232 72.7985 32.4722 72.7819 32.6652C72.7789 32.6963 72.7851 32.7277 72.7993 32.7532C72.8135 32.7786 72.8346 32.7962 72.8584 32.8024C72.9322 32.8299 73.0004 32.8782 73.0579 32.944C72.8151 33.0727 71.9273 33.6131 71.8874 34.4623C71.8857 34.4908 71.8857 34.5195 71.8874 34.548V34.681C71.8874 34.7024 71.8874 34.7282 71.8874 34.7582C71.8874 34.7882 71.8874 34.7582 71.8874 34.7882V34.8997V34.9255V35.0241C71.8874 35.0241 71.8874 35.0541 71.8874 35.067C71.8858 35.097 71.8858 35.1271 71.8874 35.1571V35.2042C71.8874 35.2386 71.8874 35.2729 71.904 35.3072V35.3415L71.924 35.483V35.5216L71.9439 35.6331V35.6846C71.9439 35.7189 71.9439 35.7532 71.9606 35.7875V35.8347C71.9606 35.8819 71.9606 35.9291 71.9872 35.972L72.0171 36.1307V36.1736C72.0171 36.2122 72.0337 36.2508 72.0404 36.2936V36.3408C72.0404 36.3794 72.0404 36.4223 72.067 36.4652V36.4995C72.0902 36.6067 72.1135 36.7182 72.1368 36.8212V36.8512L72.1667 36.9842V37.0142C72.1667 37.0656 72.19 37.1128 72.2 37.16C72.2232 37.2672 72.2499 37.3745 72.2731 37.4731C72.2731 37.5203 72.2964 37.5717 72.3097 37.6146L72.4427 38.1593C72.4427 38.1593 72.4427 38.1593 72.4261 38.1593L72.4061 38.1207L72.3829 38.0907L72.3529 38.0435C72.3432 38.0332 72.3343 38.0217 72.3263 38.0092L72.3097 37.9878L72.2831 37.9577L72.2632 37.9363C72.2082 37.8767 72.1433 37.8341 72.0736 37.8119C72.028 37.7961 71.9801 37.7945 71.9338 37.8071C71.8876 37.8198 71.8443 37.8464 71.8076 37.8848C71.7423 37.9549 71.6909 38.0439 71.6573 38.1445C71.6238 38.2451 71.6092 38.3546 71.6147 38.4638C71.6176 38.9628 71.766 39.442 72.0304 39.8063C72.2359 39.997 72.4725 40.1246 72.722 40.1794C72.722 40.4325 72.8284 41.6677 73.3272 42.1781L73.417 43.1431C73.1564 43.5004 72.9121 43.877 72.6855 44.271C72.6023 44.4255 72.5724 44.4898 72.5724 44.6013C71.5748 45.1674 69.6395 46.3169 69.6894 46.6514C69.8324 46.7844 69.7925 48.7401 69.7127 51.4979Z" fill="#263238"/>
<path d="M83.7017 46.9903C83.7102 46.2617 83.551 45.5463 83.2442 44.9344C82.9375 44.3226 82.497 43.8418 81.9784 43.5528C81.4598 43.2639 80.8864 43.1797 80.3308 43.3111C79.7751 43.4424 79.2621 43.7833 78.8567 44.2907C78.4512 44.7981 78.1715 45.4491 78.0529 46.1615C77.9343 46.8739 77.9822 47.6156 78.1904 48.2929C78.3986 48.9703 78.7579 49.5527 79.2228 49.9667C79.6876 50.3807 80.2372 50.6076 80.8021 50.6187C81.1772 50.6261 81.5498 50.5381 81.8985 50.3597C82.2473 50.1813 82.5653 49.9161 82.8346 49.5792C83.1039 49.2422 83.319 48.8402 83.4678 48.396C83.6166 47.9518 83.6961 47.4741 83.7017 46.9903Z" fill="#92E3A9" stroke="#263238" stroke-linecap="round" stroke-linejoin="round"/>
<path d="M79.6777 46.2611L80.9979 48.2383L83.5915 42.2209" stroke="#263238" stroke-width="3" stroke-linecap="round" stroke-linejoin="round"/>
<path d="M40.9092 40.6984L65.8584 37.7733" stroke="#263238" stroke-linecap="round" stroke-linejoin="round"/>
<path d="M41.3613 45.3776L66.3106 42.4525" stroke="#263238" stroke-linecap="round" stroke-linejoin="round"/>
<path d="M53.3691 48.7059L66.7632 47.1361" stroke="#263238" stroke-linecap="round" stroke-linejoin="round"/>
<path d="M41.8135 50.0611L50.9146 48.9932" stroke="#263238" stroke-linecap="round" stroke-linejoin="round"/>
<path d="M42.2695 54.7404L67.2188 51.8153" stroke="#263238" stroke-linecap="round" stroke-linejoin="round"/>
<path d="M59.0127 58.6003L83.0941 55.6195" stroke="#263238" stroke-linecap="round" stroke-linejoin="round"/>
<path d="M42.9482 60.5905L57.1936 58.8278" stroke="#263238" stroke-linecap="round" stroke-linejoin="round"/>
<path d="M74.0459 63.2582L83.7755 62.053" stroke="#263238" stroke-linecap="round" stroke-linejoin="round"/>
<path d="M43.6289 67.0281L71.2849 63.6012" stroke="#263238" stroke-linecap="round" stroke-linejoin="round"/>
<path d="M77.1777 69.3913L84.4567 68.4906" stroke="#263238" stroke-linecap="round" stroke-linejoin="round"/>
<path d="M56.0391 72.0118L74.7069 69.7001" stroke="#263238" stroke-linecap="round" stroke-linejoin="round"/>
<path d="M44.3115 73.4614L54.3072 72.2262" stroke="#263238" stroke-linecap="round" stroke-linejoin="round"/>
<path d="M77.2051 75.9105L85.1358 74.9283" stroke="#263238" stroke-linecap="round" stroke-linejoin="round"/>
<path d="M44.9893 79.8992L72.4424 76.498" stroke="#263238" stroke-linecap="round" stroke-linejoin="round"/>
<path d="M56.3193 85.0159L85.8175 81.3617" stroke="#263238" stroke-linecap="round" stroke-linejoin="round"/>
<path d="M45.6709 86.3369L52.5009 85.4877" stroke="#263238" stroke-linecap="round" stroke-linejoin="round"/>
<path d="M68.1426 90.0726L86.4979 87.7994" stroke="#263238" stroke-linecap="round" stroke-linejoin="round"/>
<path d="M46.3535 92.7703L65.6266 90.3856" stroke="#263238" stroke-linecap="round" stroke-linejoin="round"/>
<path d="M84.0312 94.6231L87.1769 94.2328" stroke="#263238" stroke-linecap="round" stroke-linejoin="round"/>
<path d="M65.8584 96.8748L81.2709 94.9662" stroke="#263238" stroke-linecap="round" stroke-linejoin="round"/>
<path d="M47.0312 99.208L63.162 97.2094" stroke="#263238" stroke-linecap="round" stroke-linejoin="round"/>
<path d="M27.0195 69.4642C27.0195 69.4642 28.8451 61.7056 29.7063 58.2401C30.5676 54.7747 31.1029 52.004 31.748 49.0961C32.3931 46.1882 32.0805 39.8149 32.0805 38.5668C32.0805 37.3187 37.8831 37.7347 38.6346 37.872C39.3861 38.0092 41.4278 54.3629 40.7827 57.6868C40.1376 61.0108 37.79 63.7814 37.79 65.72C37.79 67.6586 37.6802 71.4028 37.6802 72.2349C37.6802 73.067 39.293 81.2417 39.3994 84.8401C39.5058 88.4385 37.8964 93.8468 37.5738 94.4001C37.2513 94.9534 29.7329 106.594 29.7329 106.594" fill="white"/>
<path d="M27.0195 69.4642C27.0195 69.4642 28.8451 61.7056 29.7063 58.2401C30.5676 54.7747 31.1029 52.004 31.748 49.0961C32.3931 46.1882 32.0805 39.8149 32.0805 38.5668C32.0805 37.3187 37.8831 37.7347 38.6346 37.872C39.3861 38.0092 41.4278 54.3629 40.7827 57.6868C40.1376 61.0108 37.79 63.7814 37.79 65.72C37.79 67.6586 37.6802 71.4028 37.6802 72.2349C37.6802 73.0669 39.293 81.2417 39.3994 84.8401C39.5058 88.4385 37.8964 93.8468 37.5738 94.4001C37.2513 94.9534 29.7329 106.594 29.7329 106.594" stroke="#263238" stroke-linecap="round" stroke-linejoin="round"/>
<path d="M32.7129 47.1576C32.7129 47.1576 35.1835 45.7723 37.2252 46.8788C37.2252 46.8788 37.4414 40.3682 36.2576 38.5669" stroke="#263238" stroke-linecap="round" stroke-linejoin="round"/>
<path d="M31.5322 52.9776C32.7669 53.2813 34.0442 53.0866 35.19 52.42" stroke="#263238" stroke-linecap="round" stroke-linejoin="round"/>
<path d="M31.8555 51.588C31.8555 51.588 34.11 49.9282 36.5806 51.1591" stroke="#263238" stroke-linecap="round" stroke-linejoin="round"/>
<path d="M36.0454 50.0654C35.532 49.7893 34.9787 49.6587 34.4228 49.6824C33.8669 49.7061 33.3214 49.8835 32.8232 50.2026" stroke="#263238" stroke-linecap="round" stroke-linejoin="round"/>
<path d="M10.8534 109.398C10.8534 109.398 17.6336 108.382 23.1568 113.061C28.68 117.74 30.2629 123.633 30.2629 123.633L25.6907 135.84C25.6907 135.84 17.7932 125.872 12.4329 123.432C7.07265 120.991 6.28125 120.79 6.28125 120.79L10.8534 109.398Z" fill="white" stroke="#263238" stroke-linecap="round" stroke-linejoin="round"/>
<path d="M1 126.357C5.28291 139.125 12.6949 150.289 23.7047 159L30.0559 134.888C30.0559 134.888 25.64 123.908 20.436 120.245C15.232 116.582 6.40351 115.163 6.40351 115.163L1 126.357Z" fill="#263238" stroke="#263238" stroke-linecap="round" stroke-linejoin="round"/>
<path d="M39.0938 31.9232L80.3732 27.8273" stroke="#92E3A9" stroke-linecap="round" stroke-linejoin="round"/>
</svg>
