<svg width="472" height="377" viewBox="0 0 472 377" fill="none" xmlns="http://www.w3.org/2000/svg">
<path d="M290.64 340.148C290.64 340.148 282.42 351.775 290.933 355.681C299.446 359.586 374.825 350.575 410.102 350.244C445.379 349.912 464.651 336.587 463.898 332.554C463.145 328.521 454.543 320.838 454.543 320.838L448.544 327.844C448.544 327.844 454.926 329.759 454.747 332.72C454.568 335.681 431.199 345.317 401.806 341.258C372.413 337.2 309.772 349.784 304.807 349.223C299.842 348.661 304.59 337.557 304.59 337.557L290.64 340.148Z" fill="#263238"/>
<path d="M408.977 344.781C362.635 347.997 285.635 346.912 285.635 346.912C245.891 344.015 238.412 330.907 244.615 315.987C254.276 293.014 296.714 265.765 304.448 265.127C317.211 264.093 330.638 269.16 330.638 269.16L338.934 267.411C336.381 260.532 362.609 245.216 374.594 251.828C386.578 258.439 411.351 249.364 418.818 254.023C420.799 255.297 422.501 256.96 423.821 258.911C425.937 262.068 427.424 265.605 428.199 269.326H428.301C430.177 268.822 432.103 268.522 434.044 268.432C438.154 268.215 443.629 268.841 447.917 272.58C449.014 273.554 450.058 274.585 451.044 275.669C458.779 284.118 468.734 300.085 471.031 309.402C473.712 319.995 455.307 341.552 408.977 344.781Z" fill="#999999"/>
<path opacity="0.2" d="M369.245 259.064C366.986 255.095 395.512 256.971 398.537 259.064C401.561 261.157 401.574 267.718 404.854 265.943C407.471 264.54 417.439 259.141 423.82 258.911C425.937 262.068 427.423 265.605 428.198 269.326C428.198 269.326 388.952 280.417 386.424 277.469C383.897 274.52 393.495 272.07 396.52 265.599C399.545 259.128 387.433 260.902 384.918 260.953C382.404 261.004 371.504 263.021 369.245 259.064Z" fill="black"/>
<path opacity="0.2" d="M408.978 344.78C362.636 347.997 285.636 346.912 285.636 346.912C245.892 344.015 238.413 330.907 244.616 315.987C246.147 317.187 248.777 317.723 253.09 316.893C267.27 314.162 275.336 313.409 284.437 321.998C293.537 330.588 303.887 335.808 308.686 334.123C308.686 334.123 309.35 315.157 327.831 301.539C346.312 287.921 350.664 291.788 354.353 288.176C358.041 284.564 360.223 277.966 349.63 274.239C339.037 270.512 333.881 269.134 333.881 269.134C333.881 269.134 345.546 268.228 355.654 272.759C365.763 277.289 374.582 288.074 370.294 290.512C366.005 292.95 376.598 297.289 383.924 296.128C390.408 295.081 411.927 294.966 416.241 294.788C412.412 295.604 395.284 300.952 395.284 305.062C395.284 305.062 400.568 313.741 400.529 323.556C400.491 333.37 412.016 334.621 417.006 330.945C421.997 327.27 423.043 322.228 421.154 312.63C419.265 303.033 413.981 302.318 407.115 303.811C407.115 303.811 415.947 298.489 418.729 300.25C421.512 302.011 429.323 301.271 430.841 309.593C432.36 317.914 427.013 324.742 429.565 327.014C432.118 329.286 446.731 326.759 449.259 321.909C451.786 317.059 450.114 289.274 447.676 288.725C445.238 288.176 433.049 291.878 432.705 291.98C433.283 290.356 434.276 288.912 435.586 287.792C436.896 286.673 438.477 285.916 440.171 285.598C444.664 284.807 450.203 280.391 451.084 275.566C458.818 284.016 468.773 299.982 471.071 309.299C473.713 319.995 455.308 341.551 408.978 344.78Z" fill="black"/>
<path d="M408.977 344.781C362.635 347.997 285.635 346.912 285.635 346.912C245.891 344.015 238.412 330.907 244.615 315.987C254.276 293.014 296.714 265.765 304.448 265.127C317.211 264.093 330.638 269.16 330.638 269.16L338.934 267.411C336.381 260.532 362.609 245.216 374.594 251.828C386.578 258.439 411.351 249.364 418.818 254.023C420.799 255.297 422.501 256.96 423.821 258.911C425.937 262.068 427.424 265.605 428.199 269.326V269.326H428.301C430.177 268.822 432.103 268.522 434.044 268.432C438.154 268.215 443.629 268.841 447.917 272.58C449.014 273.554 450.058 274.585 451.044 275.669C458.779 284.118 468.734 300.085 471.031 309.402C473.712 319.995 455.307 341.552 408.977 344.781Z" stroke="#263238" stroke-linecap="round" stroke-linejoin="round"/>
<path d="M330.638 269.16C330.638 269.16 336.445 271.1 351.059 274.584C365.673 278.069 357.619 289.9 347.013 290.538C336.407 291.176 309.183 314.877 308.673 330.971C308.162 347.066 329.847 344.717 329.847 344.717" stroke="#263238" stroke-linecap="round" stroke-linejoin="round"/>
<path d="M338.948 267.412C338.948 267.412 359.165 266.557 372.796 274.585C386.427 282.613 422.789 271.381 422.789 271.381" stroke="#263238" stroke-linecap="round" stroke-linejoin="round"/>
<path d="M396.522 305.088C402.598 313.409 400.045 340.033 400.045 340.033C400.045 340.033 440.083 336.383 451.097 327.423C462.112 318.464 452.54 289.313 446.477 288.228C440.415 287.143 418.207 299.804 400.53 302.267" stroke="#263238" stroke-linecap="round" stroke-linejoin="round"/>
<path d="M403.096 305.088C403.096 305.088 415.718 300.289 418.245 305.088C420.773 309.887 425.776 326.122 422.789 331.75C419.803 337.379 408.648 336.332 408.648 336.332" stroke="#263238" stroke-linecap="round" stroke-linejoin="round"/>
<path d="M355.629 254.393C355.629 254.393 371.761 261.196 380.861 261.068C389.962 260.941 400.568 260.264 396.522 265.65C394.719 267.958 393.037 270.356 391.48 272.836" stroke="#263238" stroke-linecap="round" stroke-linejoin="round"/>
<path d="M315.809 314.443C315.809 314.443 333.946 320.825 353.639 317.851C373.332 314.877 376.549 318.425 376.549 318.425V331.75C376.549 331.75 363.786 329.389 355.655 331.75C347.525 334.111 320.812 335.911 308.7 330.971" stroke="#263238" stroke-linecap="round" stroke-linejoin="round"/>
<path d="M310.46 323.582C310.46 323.582 317.135 325.445 333.855 325.484C350.574 325.522 366.235 324.105 366.235 324.105" stroke="#263238" stroke-linecap="round" stroke-linejoin="round"/>
<path d="M306.515 284.45L305.992 278.643C305.966 278.321 306.057 277.999 306.25 277.739C306.442 277.478 306.722 277.296 307.038 277.227L320.593 274.266C320.776 274.216 320.968 274.208 321.155 274.242C321.342 274.276 321.52 274.351 321.674 274.463C321.828 274.574 321.955 274.718 322.046 274.885C322.137 275.052 322.19 275.237 322.201 275.427L322.75 280.915C322.778 281.234 322.692 281.553 322.508 281.815C322.323 282.076 322.051 282.264 321.741 282.345L308.149 285.625C307.962 285.679 307.766 285.69 307.575 285.658C307.384 285.625 307.203 285.549 307.045 285.436C306.888 285.323 306.758 285.175 306.666 285.005C306.574 284.834 306.523 284.644 306.515 284.45Z" fill="#92E3A9" stroke="#263238" stroke-linecap="round" stroke-linejoin="round"/>
<path d="M311.442 278.068L318.768 279.332L317.134 280.302L309.298 279.179L311.442 278.068Z" fill="#263238"/>
<path d="M326.468 270.985C328.98 268.851 332.113 267.584 335.402 267.373C340.316 267.373 344.106 268.892 343.596 269.185C343.085 269.479 335.274 271.01 333.819 272.772L326.468 270.985Z" fill="#263238"/>
<path d="M253.638 332.58C253.638 332.58 237.736 337.774 246.312 343.837C254.889 349.899 266.516 348.636 275.974 342.561L276.982 336.881C273.268 337.453 269.656 338.562 266.261 340.174C261.335 342.726 249.848 340.174 250.601 338.77C250.922 338.335 251.341 337.982 251.825 337.74C252.308 337.498 252.842 337.374 253.383 337.379L253.638 332.58Z" fill="#263238"/>
<path d="M302.637 346.529C303.811 352.911 348.176 343.722 384.206 337.366C420.236 331.01 452.105 338.374 454.76 332.72C457.415 327.066 463.898 332.554 463.898 332.554C460.751 338.844 455.479 343.817 449.017 346.593C438.449 350.92 388.813 349.912 360.952 355.617C333.09 361.322 283.659 369.656 287.22 347.959L302.637 346.529Z" fill="#263238"/>
<path d="M4.38623 273.537C4.38623 273.537 3.65874 306.428 58.1187 330.678C112.579 354.927 260.579 366.708 287.547 281.272L203.681 257.188H91.175L66.4147 268.432L4.38623 273.537Z" fill="#92E3A9"/>
<path opacity="0.2" d="M4.38623 273.537C4.38623 273.537 3.65874 306.428 58.1187 330.678C112.579 354.927 260.579 366.708 287.547 281.272L203.681 257.188H91.175L66.4147 268.432L4.38623 273.537Z" fill="black"/>
<path d="M4.38623 273.537C4.38623 273.537 3.65874 306.428 58.1187 330.678C112.579 354.927 260.579 366.708 287.547 281.272L203.681 257.188H91.175L66.4147 268.432L4.38623 273.537Z" stroke="#263238" stroke-linecap="round" stroke-linejoin="round"/>
<path d="M68.3186 129.124C58.44 137.943 24.184 237.61 28.6127 248.484C33.0415 259.358 91.1517 269.287 91.1517 269.287C91.1517 269.287 85.4083 156.756 85.1148 154.879C84.8212 153.003 68.3186 129.124 68.3186 129.124Z" fill="#263238"/>
<path d="M222.227 129.124C232.105 137.943 266.361 237.61 261.933 248.484C257.504 259.358 199.394 269.287 199.394 269.287C199.394 269.287 205.137 156.756 205.43 154.879C205.724 153.003 222.227 129.124 222.227 129.124Z" fill="#263238"/>
<path d="M68.3164 129.124C68.3164 129.124 91.1112 103.368 145.022 101.837C188.34 100.56 217.989 122.066 222.226 129.124C226.463 136.182 202.954 230.258 202.954 230.258L216.113 280.902C216.113 280.902 145.546 304.412 82.5217 280.902L90.9836 227.425C90.9836 227.425 68.7886 142.295 68.3164 129.124Z" fill="#263238"/>
<g opacity="0.5">
<path opacity="0.5" d="M175.098 112.188C175.098 112.188 155.571 133.706 135.75 127.707" stroke="white" stroke-linecap="round" stroke-linejoin="round"/>
<path opacity="0.5" d="M158.823 151.906C163.389 152.789 168.005 153.386 172.646 153.693" stroke="white" stroke-linecap="round" stroke-linejoin="round"/>
<path opacity="0.5" d="M102.758 124.823C115.151 136.093 133.389 145.742 152.725 150.566" stroke="white" stroke-linecap="round" stroke-linejoin="round"/>
<path opacity="0.5" d="M210.262 147.184C206.118 154.877 203.664 163.367 203.063 172.085" stroke="white" stroke-linecap="round" stroke-linejoin="round"/>
<path opacity="0.5" d="M219.285 133.361C217.202 135.86 215.299 138.504 213.593 141.274" stroke="white" stroke-linecap="round" stroke-linejoin="round"/>
<path opacity="0.5" d="M221.059 160.164C212.239 163.993 204.122 177.802 204.122 177.802C207.789 184.983 210.628 192.558 212.584 200.38" stroke="white" stroke-linecap="round" stroke-linejoin="round"/>
<path opacity="0.5" d="M207.642 233.551C207.642 233.551 215.899 232.211 221.056 226.698C226.212 221.184 241.157 222.665 243.276 226.698" stroke="white" stroke-linecap="round" stroke-linejoin="round"/>
<path opacity="0.5" d="M226.34 220.099C226.34 220.099 231.637 212.033 243.276 217.674" stroke="white" stroke-linecap="round" stroke-linejoin="round"/>
<path opacity="0.5" d="M72.9023 135.837C72.9023 135.837 84.5295 143.585 85.6654 164.733" stroke="white" stroke-linecap="round" stroke-linejoin="round"/>
<path opacity="0.5" d="M80.8164 185.971C77.664 194.688 74.2435 203.597 72.5332 212.773" stroke="white" stroke-linecap="round" stroke-linejoin="round"/>
<path opacity="0.5" d="M75.4043 164.733C78.4802 165.512 85.4616 168.435 86.0487 172.034C86.3295 173.706 83.879 177.713 83.3046 179.245" stroke="white" stroke-linecap="round" stroke-linejoin="round"/>
<path opacity="0.5" d="M62.7207 221.21C63.916 220.927 65.164 220.957 66.3444 221.296C67.5248 221.636 68.5977 222.274 69.4596 223.15" stroke="white" stroke-linecap="round" stroke-linejoin="round"/>
<path opacity="0.5" d="M49.9561 226.698C52.0568 225.3 54.2729 224.083 56.5801 223.06" stroke="white" stroke-linecap="round" stroke-linejoin="round"/>
<path opacity="0.5" d="M61.5967 230.718C61.5967 230.718 62.3497 224.426 72.9047 226.698C83.4598 228.97 108.514 236.73 108.514 236.73" stroke="white" stroke-linecap="round" stroke-linejoin="round"/>
</g>
<path d="M172.734 110.234C172.734 110.234 160.609 122.168 145.932 122.168C131.254 122.168 117.24 108.345 117.24 108.345C117.24 108.345 124.809 104.58 126.838 97.0374C126.967 96.58 127.069 96.1155 127.144 95.6462C127.693 92.3406 126.813 86.7121 125.536 81.1601C123.532 72.4174 120.559 63.662 120.559 63.662H167.973C167.973 63.662 165.727 74.5999 164.247 84.6827C163.979 86.5334 163.723 88.3457 163.532 90.0687C163.34 91.7918 163.136 93.6424 163.047 95.174C162.46 105.857 172.734 110.234 172.734 110.234Z" fill="white" stroke="#263238" stroke-linecap="round" stroke-linejoin="round"/>
<path d="M217.364 280.991V286.467C217.362 286.763 217.328 287.059 217.262 287.347C217.055 288.137 216.594 288.837 215.951 289.34C215.308 289.843 214.517 290.12 213.701 290.13H83.7472C82.9187 290.13 82.1138 289.854 81.4597 289.345C80.8056 288.837 80.3396 288.125 80.1353 287.322C80.0691 287.033 80.0349 286.738 80.0332 286.441V280.966L217.364 280.991Z" fill="#757575"/>
<path opacity="0.2" d="M217.364 280.991V286.467C217.362 286.763 217.328 287.059 217.262 287.347H80.1353C80.0691 287.059 80.0349 286.763 80.0332 286.467V280.991H217.364Z" fill="black"/>
<path d="M217.364 280.991V286.467C217.362 286.763 217.328 287.059 217.262 287.347C217.055 288.137 216.594 288.837 215.951 289.34C215.308 289.843 214.517 290.12 213.701 290.13H83.7472C82.9187 290.13 82.1138 289.854 81.4597 289.345C80.8056 288.837 80.3396 288.125 80.1353 287.322C80.0691 287.033 80.0349 286.738 80.0332 286.441V280.966L217.364 280.991Z" stroke="#263238" stroke-linecap="round" stroke-linejoin="round"/>
<path d="M216.074 284.642H81.309C80.6798 284.663 80.0629 284.465 79.5643 284.08C79.0658 283.696 78.7169 283.15 78.5777 282.536L66.874 188.089C66.8245 187.726 66.8537 187.357 66.9597 187.006C67.0656 186.656 67.2458 186.332 67.4879 186.057C67.7301 185.782 68.0285 185.563 68.3631 185.413C68.6976 185.264 69.0603 185.189 69.4266 185.192H227.969C228.336 185.189 228.698 185.264 229.033 185.413C229.367 185.563 229.666 185.782 229.908 186.057C230.15 186.332 230.33 186.656 230.436 187.006C230.542 187.357 230.571 187.726 230.522 188.089L218.818 282.536C218.683 283.154 218.334 283.705 217.831 284.091C217.329 284.476 216.707 284.671 216.074 284.642Z" fill="#757575" stroke="#263238" stroke-linecap="round" stroke-linejoin="round"/>
<path opacity="0.2" d="M81.8609 282.651L70.3741 192.122C70.3476 191.865 70.3748 191.605 70.454 191.359C70.5332 191.113 70.6628 190.886 70.8345 190.693C71.0061 190.5 71.2161 190.345 71.4511 190.237C71.686 190.129 71.9408 190.071 72.1993 190.068H225.19C225.449 190.072 225.704 190.129 225.94 190.237C226.175 190.344 226.386 190.5 226.559 190.693C226.731 190.886 226.862 191.112 226.943 191.358C227.024 191.604 227.053 191.865 227.028 192.122L215.541 282.651" fill="white"/>
<path d="M81.8609 282.651L70.3741 192.122C70.3476 191.865 70.3748 191.605 70.454 191.359C70.5332 191.113 70.6628 190.886 70.8345 190.693C71.0061 190.5 71.2161 190.345 71.4511 190.237C71.686 190.129 71.9408 190.071 72.1993 190.068H225.19C225.449 190.072 225.704 190.129 225.94 190.237C226.175 190.344 226.386 190.5 226.559 190.693C226.731 190.886 226.862 191.112 226.943 191.358C227.024 191.604 227.053 191.865 227.028 192.122L215.541 282.651" stroke="#263238" stroke-linecap="round" stroke-linejoin="round"/>
<path d="M150.232 243.149H136.384L152.465 226.302L144.999 239.678L150.232 243.149Z" fill="#92E3A9" stroke="#263238" stroke-linecap="round" stroke-linejoin="round"/>
<path d="M144.809 251.981L161.886 235.504H148.357L153.207 239.077L144.809 251.981Z" fill="#92E3A9" stroke="#263238" stroke-linecap="round" stroke-linejoin="round"/>
<path d="M260.746 338.387L264.83 343.032C264.83 343.032 268.659 351.737 258.079 362.394C247.498 373.051 220.071 375.157 209.401 373.306L202.674 374.213L179.79 369.261C179.79 369.261 168.201 363.594 172.937 353.651C177.672 343.709 260.746 338.387 260.746 338.387Z" fill="#92E3A9" stroke="#263238" stroke-linecap="round" stroke-linejoin="round"/>
<path d="M253.727 360.748C244.882 369.975 216.548 371.813 204.717 369.12C201.488 368.38 189.733 367.959 180.978 364.819C176.255 363.147 172.401 360.684 171.227 356.957C167.832 346.325 197.748 326.096 197.748 326.096C197.748 326.096 216.829 329.772 220.785 330.716C225.394 331.802 230.095 332.451 234.825 332.656C243.899 333.052 250.038 331.839 256.688 334.698C264.218 337.953 264.32 349.695 253.727 360.748Z" fill="#757575"/>
<path opacity="0.2" d="M234.774 332.656C227.958 343.786 210.945 365.151 180.978 364.819C176.255 363.147 172.401 360.684 171.227 356.957C167.832 346.325 197.748 326.096 197.748 326.096C197.748 326.096 216.829 329.772 220.785 330.716C225.377 331.799 230.061 332.448 234.774 332.656Z" fill="black"/>
<path d="M253.727 360.748C244.882 369.975 216.548 371.813 204.717 369.12C201.488 368.38 189.733 367.959 180.978 364.819C176.255 363.147 172.401 360.684 171.227 356.957C167.832 346.325 197.748 326.096 197.748 326.096C197.748 326.096 216.829 329.772 220.785 330.716C225.394 331.802 230.095 332.451 234.825 332.656C243.899 333.052 250.038 331.839 256.688 334.698C264.218 337.953 264.32 349.695 253.727 360.748Z" stroke="#263238" stroke-linecap="round" stroke-linejoin="round"/>
<path d="M192.325 339.076C192.325 339.076 221.68 347.933 227.194 347.359C232.708 346.785 233.384 351.303 233.384 351.303" stroke="#263238" stroke-linecap="round" stroke-linejoin="round"/>
<path d="M197.035 328.419C197.035 328.419 229.249 335.311 233.142 336.46C235.491 337.134 237.997 337.022 240.276 336.14" stroke="#263238" stroke-linecap="round" stroke-linejoin="round"/>
<path d="M203.005 328.929C202.729 332.061 201.643 335.067 199.853 337.652C198.062 340.237 195.63 342.311 192.795 343.67" stroke="#263238" stroke-linecap="round" stroke-linejoin="round"/>
<path d="M209.03 330.028C208.74 333.067 207.834 336.017 206.369 338.696C204.903 341.375 202.908 343.728 200.504 345.611" stroke="#263238" stroke-linecap="round" stroke-linejoin="round"/>
<path d="M215.449 332.248C215.449 332.248 217.185 341.667 207.166 348.597" stroke="#263238" stroke-linecap="round" stroke-linejoin="round"/>
<path d="M222.213 332.988C222.213 332.988 223.732 344.858 214.058 350.946" stroke="#263238" stroke-linecap="round" stroke-linejoin="round"/>
<path d="M229.45 334.022C229.45 334.022 229.195 346.415 221.039 351.724" stroke="#263238" stroke-linecap="round" stroke-linejoin="round"/>
<path d="M235.133 335.604C235.133 335.604 237.277 346.134 228.509 352.554" stroke="#263238" stroke-linecap="round" stroke-linejoin="round"/>
<path d="M200.007 321.208C197.161 340.493 167.423 361.45 167.423 361.45C167.423 361.45 159.191 353.728 156.473 354.047C153.754 354.366 142.433 353.562 142.433 353.562C142.433 353.562 52.8876 320.046 42.1411 319.868C35.4277 319.766 16.0789 313.882 6.50666 298.617C0.814334 289.555 -1.41921 277.175 4.46456 260.749C14.1645 233.653 61.9876 253.615 108.879 279.511C124.45 288.126 138.234 295.031 149.427 300.289C167.998 309.032 179.293 313.244 179.293 313.244L185.496 311.023L200.007 321.208Z" fill="#92E3A9"/>
<path opacity="0.2" d="M200.007 321.208C197.161 340.493 167.423 361.449 167.423 361.449C167.423 361.449 159.191 353.728 156.473 354.047C153.754 354.366 142.433 353.562 142.433 353.562C142.433 353.562 52.8878 320.046 42.1413 319.867C35.4279 319.765 16.0791 313.882 6.50684 298.617C17.7511 299.447 36.9084 301.323 46.0723 304.743C46.0723 304.743 35.8619 307.296 38.6697 309.746C41.4776 312.197 82.4725 317.021 96.8948 313.384C109.939 310.104 135.975 301.233 149.453 300.289C168.023 309.032 179.319 313.243 179.319 313.243L185.521 311.023L200.007 321.208Z" fill="black"/>
<path d="M200.007 321.208C197.161 340.493 167.423 361.45 167.423 361.45C167.423 361.45 159.191 353.728 156.473 354.047C153.754 354.366 142.433 353.562 142.433 353.562C142.433 353.562 52.8876 320.046 42.1411 319.868C35.4277 319.766 16.0789 313.882 6.50666 298.617C0.814334 289.555 -1.41921 277.175 4.46456 260.749C14.1645 233.653 61.9876 253.615 108.879 279.511C124.45 288.126 138.234 295.031 149.427 300.289C167.998 309.032 179.293 313.244 179.293 313.244L185.496 311.023L200.007 321.208Z" stroke="#263238" stroke-linecap="round" stroke-linejoin="round"/>
<path d="M120.709 302.574C123.887 302.025 127.091 301.374 130.166 300.557" stroke="#263238" stroke-linecap="round" stroke-linejoin="round"/>
<path d="M35.9121 304.271C61.8594 306.352 88.5725 306.939 114.418 303.531" stroke="#263238" stroke-linecap="round" stroke-linejoin="round"/>
<path d="M34.0387 340.174L29.9162 344.82C29.9162 344.82 26.0873 353.524 36.6551 364.181C47.2229 374.839 74.6635 376.945 85.3334 375.094L92.0723 376L114.944 371.086C114.944 371.086 126.584 365.432 121.81 355.477C117.037 345.522 34.0387 340.174 34.0387 340.174Z" fill="#92E3A9" stroke="#263238" stroke-linecap="round" stroke-linejoin="round"/>
<path d="M97.0501 327.883C97.0501 327.883 77.9693 331.559 74 332.491C56.2722 336.677 47.7209 332.376 38.1614 336.485C30.5801 339.74 30.5036 351.482 41.0586 362.535C49.9034 371.762 78.2374 373.6 90.0687 370.907C95.0336 369.784 120.19 369.337 123.572 358.731C126.954 348.125 97.0501 327.883 97.0501 327.883Z" fill="#757575" stroke="#263238" stroke-linecap="round" stroke-linejoin="round"/>
<path d="M102.457 340.863C102.457 340.863 73.1022 349.72 67.5885 349.146C62.0749 348.572 61.3984 353.09 61.3984 353.09" stroke="#263238" stroke-linecap="round" stroke-linejoin="round"/>
<path d="M97.7637 330.167C97.7637 330.167 65.537 337.072 61.6443 338.208C59.2967 338.89 56.7903 338.782 54.5098 337.902" stroke="#263238" stroke-linecap="round" stroke-linejoin="round"/>
<path d="M91.7881 330.716C92.064 333.848 93.1505 336.854 94.9408 339.439C96.7311 342.024 99.1634 344.098 101.999 345.457" stroke="#263238" stroke-linecap="round" stroke-linejoin="round"/>
<path d="M85.7529 331.814C86.043 334.855 86.9497 337.805 88.4177 340.485C89.8857 343.164 91.8843 345.516 94.2914 347.397" stroke="#263238" stroke-linecap="round" stroke-linejoin="round"/>
<path d="M79.3456 334.022C79.3456 334.022 77.597 343.441 87.616 350.371" stroke="#263238" stroke-linecap="round" stroke-linejoin="round"/>
<path d="M72.5701 334.8C72.5701 334.8 71.0513 346.67 80.7257 352.758" stroke="#263238" stroke-linecap="round" stroke-linejoin="round"/>
<path d="M65.3428 335.809C65.3428 335.809 65.5853 348.201 73.7536 353.511" stroke="#263238" stroke-linecap="round" stroke-linejoin="round"/>
<path d="M59.6654 337.353C59.6654 337.353 57.5212 347.87 66.2766 354.303" stroke="#263238" stroke-linecap="round" stroke-linejoin="round"/>
<path d="M288.458 260.57C278.694 233.487 230.922 253.538 184.095 279.524C142.691 302.497 113.732 313.384 113.732 313.384L107.529 311.189L93.0303 321.399C95.9147 340.671 125.704 361.564 125.704 361.564C125.704 361.564 133.91 353.817 136.642 354.136C139.373 354.455 150.681 353.626 150.681 353.626C150.681 353.626 240.227 319.944 250.909 319.753C261.592 319.561 304.323 304.667 288.458 260.57Z" fill="#92E3A9" stroke="#263238" stroke-linecap="round" stroke-linejoin="round"/>
<path d="M158.541 330.142C161.094 330.321 163.723 330.423 166.314 330.436" stroke="#263238" stroke-linecap="round" stroke-linejoin="round"/>
<path d="M113.729 313.384C123.084 323.314 138.399 327.627 151.443 329.414" stroke="#263238" stroke-linecap="round" stroke-linejoin="round"/>
<path d="M219.113 295.822C237.428 299.306 257.798 302.497 276.228 298.196" stroke="#263238" stroke-linecap="round" stroke-linejoin="round"/>
<path d="M205.062 292.759C207.615 293.41 210.244 294.035 212.861 294.558" stroke="#263238" stroke-linecap="round" stroke-linejoin="round"/>
<path d="M164.307 84.6444C164.039 86.495 163.784 88.3074 163.592 90.0304C158.819 94.9186 150.829 101.645 143.171 101.874C137.568 102.04 131.685 99.6409 126.911 96.999C127.04 96.5416 127.143 96.0771 127.218 95.6078C127.766 92.3022 126.886 86.6737 125.609 81.1218L164.307 84.6444Z" fill="#263238"/>
<path d="M176.688 53.7325C176.688 53.7325 180.173 50.4524 181.883 51.5373C183.593 52.6221 185.622 55.6597 184.691 58.4421C183.759 61.2244 179.713 66.0999 179.394 68.9078C179.075 71.7156 176.995 74.9319 174.697 73.0558C172.4 71.1796 176.688 53.7325 176.688 53.7325Z" fill="white" stroke="#263238" stroke-linecap="round" stroke-linejoin="round"/>
<path d="M114.635 53.7325C114.635 53.7325 111.151 50.4524 109.441 51.5373C107.73 52.6221 105.701 55.6597 106.646 58.4421C107.59 61.2244 111.623 66.0999 111.929 68.9078C112.236 71.7156 114.342 74.9319 116.626 73.0558C118.911 71.1796 114.635 53.7325 114.635 53.7325Z" fill="white" stroke="#263238" stroke-linecap="round" stroke-linejoin="round"/>
<path d="M144.908 8.95947C190.217 8.95947 177.965 63.7385 169.618 83.1128C166.695 89.9155 152.247 99.4495 144.908 99.4495C138.08 99.4495 124.487 90.5154 121.68 84.1339C113.243 64.6064 101.731 8.95947 144.908 8.95947Z" fill="white" stroke="#263238" stroke-linecap="round" stroke-linejoin="round"/>
<path d="M152.593 53.3492C152.593 53.3492 164.386 49.699 168.036 56.9994" stroke="#263238" stroke-linecap="round" stroke-linejoin="round"/>
<path d="M161.372 63.2668C161.372 64.658 160.67 65.8195 159.79 65.8195C158.909 65.8195 158.22 64.6835 158.22 63.2668C158.22 61.8501 158.922 60.7142 159.79 60.7142C160.657 60.7142 161.372 61.8757 161.372 63.2668Z" fill="#263238"/>
<path d="M138.756 53.3492C138.756 53.3492 126.95 49.699 123.3 56.9994" stroke="#263238" stroke-linecap="round" stroke-linejoin="round"/>
<path d="M130.014 63.2668C130.014 64.658 130.728 65.8195 131.596 65.8195C132.464 65.8195 133.179 64.6835 133.179 63.2668C133.179 61.8501 132.464 60.7142 131.596 60.7142C130.728 60.7142 130.014 61.8757 130.014 63.2668Z" fill="#263238"/>
<path d="M140.355 73.6174C138.645 75.4425 144.567 78.4418 145.677 78.4418C146.787 78.4418 151.293 76.0806 151.293 74.6895" fill="white"/>
<path d="M140.355 73.6174C138.645 75.4425 144.567 78.4418 145.677 78.4418C146.787 78.4418 151.293 76.0806 151.293 74.6895" stroke="#263238" stroke-linecap="round" stroke-linejoin="round"/>
<path d="M163.721 24.3905C152.363 28.0148 140.159 28.0148 128.802 24.3905C128.802 24.3905 122.688 24.0331 120.276 27.109C117.864 30.1849 120.276 39.6679 120.914 43.5351C121.552 47.4023 115.605 50.0697 116.409 59.8335L115.605 63.522C115.605 63.522 109.019 46.7514 110.627 33.2353C112.235 19.7192 119.472 15.2139 119.472 15.2139C119.472 15.2139 123.364 3.54843 146.159 3.62501C170.728 3.72711 173.204 17.0262 173.204 17.0262C173.204 17.0262 188.52 28.5129 176.165 64.7728L174.889 59.8335C175.521 55.0309 174.417 50.1606 171.775 46.1004C169.631 42.9735 173.051 33.5544 172.26 28.7299C171.468 23.9055 163.721 24.3905 163.721 24.3905Z" fill="#263238"/>
<path d="M135.845 85.0328C138.926 83.599 142.287 82.8667 145.685 82.8886C148.893 82.8245 152.084 83.3657 155.091 84.484" fill="white"/>
<path d="M135.845 85.0328C138.926 83.599 142.287 82.8667 145.685 82.8886C148.893 82.8245 152.084 83.3657 155.091 84.484" stroke="#263238" stroke-linecap="round" stroke-linejoin="round"/>
<path d="M162.728 28.7041C163.71 33.6653 165.504 38.4305 168.037 42.8073C171.866 48.9208 176.385 49.5462 177.674 56.9998C177.674 56.9998 189.428 37.166 179.486 19.7572C179.486 19.7572 176.359 0 145.677 0C114.994 0 100.789 21.3781 112.71 54.2047C115.596 52.9497 118.098 50.951 119.959 48.4126C121.82 45.8742 122.974 42.8873 123.303 39.7569C123.924 44.2299 122.795 48.7701 120.151 52.4306C120.151 52.4306 135.951 50.095 140.048 36.9235C140.048 36.9235 138.453 45.679 133.182 49.393C133.182 49.393 139.142 56.9232 145.945 45.1557C152.747 33.3881 156.844 26.3429 162.728 28.7041Z" fill="#263238"/>
<path opacity="0.2" d="M138.514 31.2693C136.599 34.0133 133.906 38.2507 130.014 37.8423" stroke="white" stroke-linecap="round" stroke-linejoin="round"/>
<path opacity="0.2" d="M161.372 19.8719C156.203 9.35519 144.997 22.2459 141.334 27.3256" stroke="white" stroke-linecap="round" stroke-linejoin="round"/>
<path opacity="0.2" d="M118.08 22.2078C116.813 23.3505 115.309 24.2002 113.677 24.6966" stroke="white" stroke-linecap="round" stroke-linejoin="round"/>
<path opacity="0.2" d="M155.08 10.057C144.653 -0.855457 129.873 11.831 121.615 19.0932" stroke="white" stroke-linecap="round" stroke-linejoin="round"/>
<path opacity="0.2" d="M176.143 22.476C177.926 25.2854 179.068 28.4535 179.486 31.7547" stroke="white" stroke-linecap="round" stroke-linejoin="round"/>
<path opacity="0.2" d="M168.038 17.894C169.695 17.8526 171.327 18.2962 172.735 19.1703" stroke="white" stroke-linecap="round" stroke-linejoin="round"/>
<path opacity="0.2" d="M164.87 12.4056C164.87 12.4056 167.129 6.41972 171.673 10.7974" stroke="white" stroke-linecap="round" stroke-linejoin="round"/>
</svg>
